<svg width="64" height="62" viewBox="0 0 64 62" fill="none" xmlns="http://www.w3.org/2000/svg">
<g clip-path="url(#clip0_183_3)">
<path d="M61.152 26.0121L59.422 25.7451C51.893 24.5891 44.353 25.0041 37 26.9711C29.648 25.0031 22.105 24.5881 14.578 25.7451L12.848 26.0121C12.36 26.0871 12 26.5071 12 27.0001V32.0001H7C4.243 32.0001 2 34.2431 2 37.0001V38.0001V55.0001V57.0001C2 59.7571 4.243 62.0001 7 62.0001H16H37H61C61.553 62.0001 62 61.5531 62 61.0001V27.0001C62 26.5071 61.64 26.0871 61.152 26.0121ZM7 34.0001H13H16C17.654 34.0001 19 35.3461 19 37.0001H4C4 35.3461 5.346 34.0001 7 34.0001ZM19 54.0001H4V39.0001H19V54.0001ZM4 57.0001V56.0001H19V57.0001C19 58.6541 17.654 60.0001 16 60.0001H7C5.346 60.0001 4 58.6541 4 57.0001ZM20.077 59.8751C20.134 59.7941 20.183 59.7101 20.236 59.6261C20.342 59.4551 20.439 59.2791 20.524 59.0951C20.569 58.9991 20.611 58.9041 20.649 58.8051C20.725 58.6111 20.784 58.4101 20.836 58.2051C20.859 58.1121 20.888 58.0221 20.906 57.9271C20.963 57.6261 21 57.3181 21 57.0001V55.0001V38.0001V37.0001C21 34.2431 18.757 32.0001 16 32.0001H14V27.8571L14.883 27.7211C21.969 26.6311 29.069 26.9841 36 28.7691V60.0001H19.998C20.028 59.9611 20.049 59.9161 20.077 59.8751ZM60 60.0001H38V28.7701C44.931 26.9851 52.031 26.6331 59.117 27.7221L60 27.8571V60.0001Z" fill="white"/>
<path d="M61 2H3C2.447 2 2 2.447 2 3V11C2 11.553 2.447 12 3 12H61C61.553 12 62 11.553 62 11V3C62 2.447 61.553 2 61 2ZM60 10H4V4H6V6H8V4H11V8H13V4H16V6H18V4H21V8H23V4H26V6H28V4H31V8H33V4H36V6H38V4H41V8H43V4H46V6H48V4H51V8H53V4H56V6H58V4H60V10Z" fill="white"/>
<path d="M58 14H56H52H27C26.818 14 26.641 14.049 26.485 14.143L21.485 17.143C21.185 17.323 21 17.648 21 18C21 18.352 21.185 18.677 21.485 18.857L26.485 21.857C26.641 21.951 26.818 22 27 22H52H56H58C60.206 22 62 20.206 62 18C62 15.794 60.206 14 58 14ZM51 16V20H30V16H51ZM23.943 18L27.277 16H28V20H27.277L23.943 18ZM53 20V16H55V20H53ZM58 20H57V16H58C59.103 16 60 16.897 60 18C60 19.103 59.103 20 58 20Z" fill="white"/>
<path d="M33 32H23V34H33V32Z" fill="white"/>
<path d="M33 36H23V38H33V36Z" fill="white"/>
<path d="M33 44H23V46H33V44Z" fill="white"/>
<path d="M9.553 49.8952C9.694 49.9652 9.848 50.0002 10 50.0002C10.212 50.0002 10.424 49.9332 10.6 49.8002L14.6 46.8002C14.852 46.6122 15 46.3152 15 46.0002C15 45.6852 14.852 45.3892 14.6 45.2002L10.6 42.2002C10.297 41.9712 9.891 41.9362 9.553 42.1052C9.214 42.2752 9 42.6212 9 43.0002V49.0002C9 49.3792 9.214 49.7252 9.553 49.8952ZM11 45.0002L12.333 46.0002L11 47.0002V45.0002Z" fill="white"/>
<path d="M57 32H41V34H57V32Z" fill="white"/>
<path d="M45 36H41V38H45V36Z" fill="white"/>
<path d="M33 48H23V50H33V48Z" fill="white"/>
<path d="M26 52H23V54H26V52Z" fill="white"/>
<path d="M27 40H23V42H27V40Z" fill="white"/>
<path d="M33 40H29V42H33V40Z" fill="white"/>
<path d="M57 36H47V38H57V36Z" fill="white"/>
</g>
<defs>
<clipPath id="clip0_183_3">
<rect width="64" height="62" fill="white"/>
</clipPath>
</defs>
</svg>
