<?xml version="1.0" encoding="UTF-8"?>
<svg style="strokeWidth: 2" stroke="1" width="8em" height="8em" version="1.1" viewBox="0 0 752 752" xmlns="http://www.w3.org/2000/svg" xmlns:xlink="http://www.w3.org/1999/xlink">
   <g>
    <path xmlns="http://www.w3.org/2000/svg" d="m467.64 440.43c-5.8359-2.2109-9.4727-3.4727-10.898-3.7891-3.9414-1.1016-10.414-1.6562-19.418-1.6562-9.9453 0-18.941 1.7383-26.988 5.2109-5.3672 2.207-12.152 6.2305-20.367 12.078-4.8906 4.2617-11.527 9.3164-19.887 15.156-0.95312 1.2656-2.0547 2.1328-3.3203 2.6055-6.9492 4.7344-14.441 8.6055-22.496 11.602-9.4727 3.1602-19.488 5.3672-30.074 6.6289-6.9492 1.1016-15.781 1.7383-26.52 1.8945-4.4219 0-10.414 0.94531-18 2.8398-5.8359 1.2656-9.4727 2.6055-10.887 4.0273l-0.24219 0.23828-0.9375 0.70703h-0.24219l-0.47266 1.1836c-0.62891 2.8398-0.47266 6.5508 0.47266 11.129 1.1094 4.8906 9.8711 8.7617 26.289 11.602 17.836 2.9961 35.047 4.2617 51.621 3.7891 15.305-0.15625 31.727-5.2109 49.242-15.156l27-16.34c1.2578-0.62891 2.5234-0.78906 3.7852-0.47266 1.2695 0.31641 2.2109 1.0273 2.8516 2.1328 0.62891 1.1016 0.78516 2.2891 0.47266 3.5508-0.3125 1.2656-1.0273 2.207-2.1367 2.8398l-27.23 16.34c-18.785 10.891-36.703 16.418-53.75 16.574-16.887 0.47266-34.723-0.78906-53.512-3.7891-20.211-3.4727-31.492-9.7891-33.859-18.941-1.582-7.4219-1.582-12.941 0-16.574l0.47266-1.8945c-8.3711-7.418-16.816-14.207-25.336-20.363h-0.24219l-8.9961-6.3945c-14.207-9.3164-24.223-13.969-30.074-13.969-1.8945 0-3.8633 0.78906-5.918 2.3672-2.2148 1.7383-3.3125 3.3945-3.3125 4.9727 2.6797 5.3672 13.18 18.551 31.492 39.543 12.938 14.68 24.621 28.887 35.035 42.621 11.055 14.207 20.922 22.34 29.598 24.391 9.3164 0.31641 22.023 0.082031 38.129-0.71094 17.844-0.47266 35.207-0.71094 52.094-0.71094 9.1602 0 17.758-1.5781 25.805-4.7344 5.8438-2.9961 12.082-7.1055 18.711-12.312l18.469-13.023 0.47266-0.23828c7.8906-3.7891 16.102-5.6836 24.621-5.6836 9.3164 0 27.859 1.2656 55.645 3.7891l-1.8945-84.77c-14.984-2.2109-26.742-4.9727-35.266-8.2891zm43.805-15.152 3.5508 130.71h62.277v-130.71zm70.562-9.4727c3.1523 0 4.7344 1.5781 4.7344 4.7344v140.18c0 1.2656-0.39844 2.3672-1.1836 3.3164-0.95312 0.94531-2.1367 1.4219-3.5508 1.4219h-71.746c-1.2695 0-2.2812-0.39453-3.0781-1.1836-0.94141-0.94531-1.4141-2.0508-1.4141-3.3164l-0.71094-17.996c-30.625-2.5234-49.254-3.7891-55.887-3.7891-6.793 0-13.578 1.5781-20.359 4.7344l-17.527 12.312c-7.418 5.8398-14.281 10.262-20.602 13.262-8.9961 3.7891-18.859 5.6836-29.598 5.6836-16.73 0-34.023 0.23828-51.852 0.71094l-40.023 0.71094c-11.367-2.8398-23.125-12.234-35.277-28.18-11.367-14.363-23.051-28.414-35.047-42.148-14.68-16.73-24.465-28.809-29.355-36.23-2.8516-4.1055-4.2617-7.2617-4.2617-9.4727 0-4.7344 2.2812-8.8398 6.8633-12.312 3.793-2.9961 7.7344-4.5 11.84-4.5 7.7344 0 19.418 5.1289 35.047 15.391l0.24219 0.23828-13.508-72.457c-0.3125-1.5781 0-2.9219 0.95312-4.0273 1.0977-1.1016 2.2812-1.6562 3.5508-1.6562h80.035l0.23047-0.71094c-2.2109-2.9961-5.2891-5.7617-9.2305-8.2891-2.0547 0-5.0469 0.39453-8.9961 1.1836-4.7344 0.47266-8.6836 0.71094-11.84 0.71094-5.6797 0-10.102-0.78906-13.266-2.3672-3.1523-1.2656-7.1055-4.5-11.84-9.707-2.2109-2.2109-5.918-10.734-11.129-25.574l-0.47266-1.6562v-0.47266c0-2.0547 1.0273-3.4727 3.0781-4.2617 2.0547-0.78906 3.7852-0.47266 5.2109 0.94531 1.2695 1.2656 4.8906 2.6055 10.898 4.0273l17.52 2.6055c5.8359 0.78906 11.211 3.3945 16.102 7.8125 5.8359 5.3672 9.2305 11.758 10.184 19.18 2.6797 1.5781 5.0469 3.3945 7.1055 5.4453 0.94141-3.1602 1.4141-5.7617 1.4141-7.8125v-0.71094c0-11.211-2.3672-20.602-7.1055-28.18-2.0547-3.7891-6.3086-8.8398-12.781-15.156l-3.0781-2.6055c-15.633-5.3672-27.473-11.84-35.52-19.418-10.742-9.7852-16.102-22.102-16.102-36.938 0-8.9961 2.1367-17.441 6.3945-25.336 2.5234-4.8906 6.8711-11.047 13.023-18.469 6.4727-7.4219 10.977-13.262 13.508-17.523 3.7852-5.8398 6.4648-12.152 8.0469-18.941 0.3125-1.1016 0.94141-1.9766 1.8945-2.6055 1.0977-0.78906 2.2109-1.1016 3.3086-0.94531 1.2695 0.16016 2.293 0.71094 3.0781 1.6562 0.78516 0.94531 1.1836 1.9766 1.1836 3.0781 0 3.3164 0.71094 7.3398 2.125 12.078 2.2109 5.2109 6.0039 13.023 11.367 23.441 6.6289 12.156 10.969 20.602 13.023 25.336 4.1055 9.7891 6.1602 18.152 6.1602 25.102 0 9.4727-3.5508 20.285-10.656 32.441l-8.0547 12.078-0.94141 2.8398c5.6797 5.6836 9.7852 10.656 12.312 14.918 2.5234 3.9453 4.5039 8.4453 5.918 13.496-1.4141-6.3125-0.62891-12.785 2.3672-19.418 2.8398-6.1562 6.9492-10.574 12.312-13.262l15.16-9.2344c4.7344-3.3164 7.5781-5.918 8.5195-7.8125 1.1094-2.0547 2.8516-2.8398 5.2188-2.3672 2.3672 0.3125 3.5508 1.7383 3.5508 4.2617 0.94141 15.312 1.0273 24.547 0.23047 27.703l-0.23047 0.71094c-2.3672 6-4.8203 10.262-7.3438 12.785-2.3672 2.9961-6.2305 5.6055-11.598 7.8125-2.8516 1.2656-6.4023 2.4492-10.656 3.5508l-0.48438 0.23828-8.5195 2.1328c-3.6367 4.8906-5.6875 9.1562-6.1602 12.785v0.47266c0 4.7344-1.4141 10.891-4.2617 18.469v0.47266l80.266 0.007813c1.4141 0 2.6797 0.55469 3.7852 1.6562 0.94922 1.1094 1.2617 2.4492 0.94922 4.0273l-13.977 67.957 12.793-9.9453c8.2031-6 15.703-10.5 22.496-13.496 8.9961-3.9453 19.176-5.918 30.543-5.918 8.9961 0 16.188 0.62891 21.551 1.8945 2.2109 0.47266 6.3086 1.8945 12.312 4.2617 7.418 2.8398 17.914 5.2891 31.492 7.3398l-0.71094-18.234c-0.15625-1.4219 0.24219-2.6055 1.1836-3.5508 0.94141-0.94531 2.125-1.4219 3.5508-1.4219zm-320.38-212.88c-2.9961 4.8906-7.7344 11.129-14.207 18.707-5.6797 6.6289-9.7148 12.156-12.082 16.574-3.4648 6.9492-5.2109 13.969-5.2109 21.074 0 12.156 4.3477 22.102 13.023 29.836 3.6367 3.4727 8.4453 6.8672 14.449 10.184l-3.5508-5.6836c-5.0469-9.1562-7.8125-20.129-8.2891-32.914 0-1.2656 0.47266-2.4492 1.4141-3.5508 0.95312-0.94531 2.0547-1.4219 3.3203-1.4219 1.2578 0 2.3672 0.47266 3.3086 1.4219 0.95312 0.94531 1.4258 2.0547 1.4258 3.3164 0.47266 11.367 2.8398 20.836 7.1055 28.414 2.8398 5.2109 7.5781 11.129 14.207 17.758l8.5195-13.023c6.1602-10.574 9.2383-19.734 9.2383-27.469 0-5.8398-1.8125-12.941-5.4453-21.312-2.3672-5.2109-6.5508-13.418-12.551-24.625-5.6797-10.891-9.3867-18.625-11.129-23.207zm-5.4531 40.02c0 3.1602-1.5742 4.7344-4.7344 4.7344-1.2578 0-2.3672-0.47266-3.3086-1.4219-0.95312-0.94531-1.4258-2.0508-1.4258-3.3164l0.47266-3.0781c0.48438-2.9961 2.293-4.3438 5.4453-4.0273 1.2695 0.31641 2.293 0.94531 3.0781 1.8945 0.78516 1.1016 1.0273 2.2891 0.71094 3.5508zm78.855 85.953c1.7383-1.7383 3.5508-4.9727 5.4453-9.707 0.3125-1.1016 0.38672-5.6836 0.23047-13.734l-19.176 12.078c-3.4766 1.7383-6.1602 4.6562-8.0547 8.7617-1.8867 4.2617-2.6016 8.4453-2.125 12.551l6.1602-1.1836 9.4727-3.3164c3.9414-1.4219 6.4648-3.0781 7.5781-4.9727zm-64.879 23.68c-3.3203-3.1602-6.9492-4.9727-10.898-5.4453l-22.496-3.7891c2.8398 7.2617 4.7344 11.367 5.6797 12.312 3.3203 3.9453 6.1602 6.4727 8.5273 7.5781 2.2109 0.94531 5.3672 1.4219 9.4727 1.4219l16.332-1.6562c-0.77734-3.6367-2.9883-7.1055-6.6172-10.422zm42.855 126.21c9.4727-0.94531 18.867-2.9961 28.184-6.1562 6.6211-2.5234 12.938-5.6836 18.941-9.4727l14.91-72.457h-158.88l14.207 76.484c8.5195 6.1562 16.965 12.941 25.336 20.363 3.3086-1.5781 7.2617-2.8398 11.84-3.7891 8.2031-2.0508 14.918-3.0781 20.129-3.0781 10.094-0.15625 18.543-0.78906 25.332-1.8945z" fill="#fff" fill-rule="evenodd"/>
  </g>
</svg>