<svg width="71" height="53" viewBox="0 0 71 53" fill="none" xmlns="http://www.w3.org/2000/svg">
<path d="M20.9587 12.555C19.0439 14.2687 17.1291 15.9823 15.2144 17.696C12.163 20.4239 9.1203 23.1605 6.0689 25.8884C5.36944 26.5092 4.66998 27.1387 3.97926 27.7595C3.97926 26.9376 3.97926 26.107 3.97926 25.2852C5.89404 26.9988 7.80881 28.7125 9.72358 30.4262C12.775 33.1541 15.8176 35.8907 18.869 38.6186C19.5685 39.2394 20.268 39.8689 20.9587 40.4897C21.6406 41.1017 21.6319 42.352 20.9587 42.964C20.233 43.6372 19.2188 43.6198 18.4843 42.964C16.5696 41.2503 14.6548 39.5367 12.74 37.823C9.68861 35.0951 6.64596 32.3584 3.59456 29.6306C2.8951 29.0098 2.19564 28.3803 1.50492 27.7595C0.831692 27.1562 0.831692 25.8884 1.50492 25.2852C3.4197 23.5715 5.33447 21.8578 7.24924 20.1441C10.3006 17.4162 13.3433 14.6796 16.3947 11.9517C17.0942 11.3309 17.7936 10.7014 18.4843 10.0806C19.1663 9.4686 20.2942 9.35494 20.9587 10.0806C21.5707 10.7451 21.6844 11.8992 20.9587 12.555Z" fill="#E5E7EB"/>
<path d="M49.9164 40.4987C51.8312 38.785 53.746 37.0713 55.6607 35.3577C58.7121 32.6298 61.7548 29.8931 64.8062 27.1652C65.5056 26.5445 66.2051 25.9149 66.8958 25.2942C66.8958 26.116 66.8958 26.9467 66.8958 27.7685C64.981 26.0548 63.0663 24.3412 61.1515 22.6275C58.1001 19.8996 55.0574 17.1629 52.0061 14.4351C51.3066 13.8143 50.6071 13.1848 49.9164 12.564C49.2344 11.952 49.2432 10.7017 49.9164 10.0897C50.6421 9.41642 51.6563 9.43391 52.3908 10.0897C54.3055 11.8033 56.2203 13.517 58.1351 15.2307C61.1865 17.9586 64.2291 20.6952 67.2805 23.4231C67.98 24.0439 68.6794 24.6734 69.3702 25.2942C70.0434 25.8975 70.0434 27.1652 69.3702 27.7685C67.4554 29.4822 65.5406 31.1959 63.6258 32.9096C60.5744 35.6374 57.5318 38.3741 54.4804 41.102C53.7809 41.7228 53.0815 42.3523 52.3908 42.973C51.7088 43.5851 50.5809 43.6987 49.9164 42.973C49.3044 42.3086 49.1907 41.1544 49.9164 40.4987Z" fill="#E5E7EB"/>
<path d="M29.288 2.2683C29.8075 3.8452 30.3184 5.4221 30.8379 7.00776C32.0761 10.8011 33.3142 14.5857 34.5524 18.379C36.0417 22.952 37.531 27.5162 39.0289 32.0893C40.3191 36.0403 41.6092 39.9913 42.8993 43.9423C43.5141 45.8609 44.2068 47.7707 44.7783 49.7155C44.7869 49.7418 44.7956 49.7681 44.8042 49.7944C45.09 50.6617 44.4752 51.748 43.592 51.9495C42.6396 52.1685 41.7651 51.6604 41.462 50.723C40.9425 49.1461 40.4316 47.5692 39.9121 45.9835C38.6739 42.1902 37.4358 38.4056 36.1976 34.6123C34.7083 30.0393 33.219 25.475 31.7211 20.902C30.4309 16.951 29.1408 13 27.8507 9.04897C27.2359 7.13917 26.5432 5.22937 25.9717 3.28452C25.9631 3.25824 25.9544 3.23196 25.9458 3.20567C25.66 2.33838 26.2748 1.25207 27.158 1.05058C28.1104 0.831563 28.9849 1.33968 29.288 2.2683Z" fill="#E5E7EB"/>
</svg>
