<svg xmlns="http://www.w3.org/2000/svg" width="1024" height="1024" fill="none" viewBox="0 0 1024 1024"><path fill="#000" d="M369.91 655.213c-2.104-21.888-1.81-43.85-1.908-65.788a59.5 59.5 0 0 1 1.296-15.212c.171 1.834.367 3.668.465 5.503.66 12.619.807 25.288 2.103 37.81s3.033 24.456 3.106 36.685v4.353l-3.473-1.712zm183.135-194.601c.269 4.011.489 7.044.685 10.174 4.182 4.207 8.267 8.535 12.571 12.62 10.639 10.076 18.073 22.427 24.897 35.168a89 89 0 0 1 4.426 11.544c5.063 14.038 10.346 28.003 15.066 42.139a313 313 0 0 1 9.342 36.343c2.862 14.038.661 28.051 1.419 42.041a9.4 9.4 0 0 1-1.859 5.356 90.1 90.1 0 0 1-27.074 25.679c-6.456 3.987-12.742 1.761-18.391-1.834-4.745-3.008-9-6.823-13.402-10.247l-.979 2.054c-.318-.245-.929-.538-.88-.734.465-2.69-1.37-4.108-2.959-5.698-7.851-7.777-15.457-15.848-23.625-23.258-6.066-5.479-10.174-12.473-15.726-18.319-3.913-4.108-7.337-8.828-11.177-13.01a90 90 0 0 1-9.489-12.571c-2.274-3.4-3.986-7.142-6.603-11.984-.318 6.53-1.125 11.715.709 16.851.263.791.419 1.613.465 2.445.66 9.538 1.222 19.052 1.932 28.566.391 5.576 1.027 11.103 1.516 16.679a5.55 5.55 0 0 1-1.076 4.182c-1.321-8.29-2.592-16.581-3.962-24.848-2.177-13.108-4.891-26.168-6.457-39.375-.978-8.022-2.005-15.995-3.668-23.894a94 94 0 0 0-3.693-14.234c-5.601-14.429-5.43-29.348-4.574-44.413.269-4.892 3.253-9.783 5.748-14.332a28.7 28.7 0 0 0 4.206-17.438 24.2 24.2 0 0 1 .172-7.63 56.5 56.5 0 0 1 4.891-13.696v24.604l12.375-9.049v-29.348h.978v28.247c1.761 0 3.302.709 4.354.245 8.193-3.718 16.948-4.305 25.704-4.892a40.14 40.14 0 0 1 20.934 4.72zm104.006 35.144c.563 15.114 2.25 30.326 1.345 45.367a284 284 0 0 0-.733 32.87c.929 16.899 1.271 33.775 1.125 50.699a16.3 16.3 0 0 1-1.052 6.309c-.758-8.608-.587-17.437-2.446-25.752-1.81-7.729 0-15.702-2.739-23.234a18.2 18.2 0 0 1-.147-5.894c0-9.074-.636-18.221.196-27.196 1.027-11.25.978-22.476 1.565-33.702.318-6.383 1.468-12.717 2.275-19.076zM432.899 627.088c9.588 32.063 8.731 65.617 11.74 98.927-6.163-1.687-6.506-2.03-6.775-6.701-.611-10.345-.538-20.788-1.932-31.035-1.785-13.183-1.076-26.365-1.638-39.547-.147-3.595-1.101-7.141-1.321-10.712s-.074-7.288-.074-10.932m-15.306-20.932c.489 6.604 1.174 13.207 1.394 19.81.293 9.025-.294 18.098.367 27.098.954 12.595 1.149 25.215 1.907 37.786.367 6.065 1.223 12.081 1.199 19.565l-6.066-4.109a13 13 0 0 1-.611-2.176c0-4.231 0-8.462-.122-12.693-.489-13.182-1.296-26.34-1.59-39.498-.342-15.212-.734-30.351 3.522-45.783M643.356 489.69c-2.201-22.867-4.426-45.71-6.676-69.042l13.108 5.797-5.282 63.171zm-179.251-10.296a40433 40433 0 0 0-7.949-55.957l10.614-5.478c.587 8.731 2.079 16.557 1.395 24.163-.881 9.783-1.15 19.566-1.517 29.348a36 36 0 0 1-2.543 7.924m92.426-79.042h8.658c.387 5.265.469 10.548.245 15.823v16.117c0 5.38.244 10.761-.147 16.117-.392 5.356-1.394 10.419-2.446 17.12a431 431 0 0 1-6.31-65.177m63.443 343.177h-9.441c-4.769-7.19-1.907-15.041-.587-22.451 1.688-9.441 4.721-18.661 7.337-28.908 2.079 9.196.367 17.731 1.957 26.193s.391 16.924.416 25.411zm-80.997-53.806c3.399 20.299 6.579 39.13 9.782 58.696h-8.902c.661-19.223-3.35-38.153-.88-58.696m-79.652-61.266c1.737 27.685 2.813 53.536 2.177 79.411 0 .514-.416 1.003-.929 2.128-3.987-26.927-5.65-53.267-1.248-81.539m149.671-124.266c1.247 7.875 3.008 15.726 3.644 23.65.635 7.924.122 16.288.122 24.652a6.28 6.28 0 0 1-4.891-6.505v-41.332zM475.329 741.984c-.318-2.201-3.62-1.809-3.522-4.891.342-13.5.147-26.902 1.027-40.525 2.005 14.87 3.986 29.764 6.041 45.099l-3.644.317z"/><path fill="#000" d="M528.747 705.885c-.807-8.878-1.785-17.756-2.323-26.658-.391-6.212-.122-12.473-.22-18.71 0-4.01-.245-8.021-.392-12.228a5.89 5.89 0 0 1 3.62 6.065c.171 17.12 0 34.386 0 51.58zm-74.934-94.522c-1.687-10.981 0-20.837 2.128-30.644 1.027 9.929 1.541 19.859-2.128 30.644"/><path fill="#fff" d="M354.911 670.01c-12.228 0-24.261-4.231-36.538-4.158-23.039.122-44.023 16.19-54.392 36.832-10.37 20.641-10.957 45-6.408 67.598l87.115 5.968c4.035 11.372 8.169 22.94 15.237 32.698s17.657 17.707 29.69 18.758c12.033 1.052 23.601-4.891 34.239-10.516l71.805-38.177c7.533-3.986 16.117-8.095 24.188-5.454 11.446 3.718 14.674 17.952 21.889 27.588 9.905 13.28 28.516 17.804 44.804 14.674 16.289-3.131 30.645-12.473 43.68-22.721a17.66 17.66 0 0 1 8.193-4.378 16.95 16.95 0 0 1 9.343 2.446c11.127 5.405 22.769 10.834 35.168 10.981a42.8 42.8 0 0 0 41.846-53.609c9.489 1.981 19.418-3.008 25.63-10.467s9.294-16.973 11.52-26.438a187.7 187.7 0 0 0 4.646-53.291 14.7 14.7 0 0 0-1.565-6.873c-2.739-4.524-9.024-4.891-14.283-4.891a1079 1079 0 0 0-141.946 12.84c-42.751 6.677-85.843 15.946-128.863 11.372-13.842-1.467-27.514-4.353-41.356-5.723a382 382 0 0 0-47.226-.758l-46.297 1.272"/><path fill="#fff" d="M354.904 663.898c-17.731-.685-34.704-7.019-52.362-1.859a70.8 70.8 0 0 0-33.873 22.598c-20.494 24.31-22.598 57.205-16.997 87.262a6.19 6.19 0 0 0 5.894 4.5l87.115 5.967-5.894-4.475c9.513 26.658 26.168 60.897 60.408 55.468 18.147-2.862 35.12-14.674 51.041-23.234l27.465-14.674c9.098-4.892 21.302-14.332 31.549-15.824 19.052-2.763 21.302 20.079 32.625 30.62 9.661 9 23.454 12.938 36.441 12.546 16.41-.513 31.793-7.85 45.025-16.997 2.714-1.859 5.356-3.84 7.972-5.845 6.677-5.038 11.911-4.084 19.028-.807a93.7 93.7 0 0 0 24.897 8.388c35.511 5.356 62.707-26.315 55.492-60.603l-5.894 7.875c35.071 4.182 44.193-39.131 47.055-65.031 1.296-11.886 5.845-35.609-4.549-44.731s-32.821-3.938-45.074-3.326a1099 1099 0 0 0-117.392 12.228c-40.501 6.408-81.466 15.066-122.651 11.03-22.598-2.201-44.486-6.897-67.28-7.019-23.307-.122-46.663 1.027-69.971 1.663-7.85.22-7.899 12.449 0 12.229 21.718-.587 43.484-1.541 65.226-1.664 22.011-.122 43.289 3.596 65.104 6.261 40.721 4.892 81.27-2.274 121.354-8.853a1121 1121 0 0 1 130.379-13.867c8.291-.367 28.761-4.891 33.506 4.891 3.277 6.702 0 24.09-.856 31.281-2.25 19.712-7.704 56.054-34.827 52.802-4.206-.514-6.627 4.28-5.894 7.728 5.185 24.726-13.475 47.911-39.13 45.563-11.691-1.052-21.082-7.215-31.794-11.201-5.356-1.981-10.076-2.74-15.457-.245-8.022 3.717-14.674 10.908-22.255 15.481a69.2 69.2 0 0 1-30.18 10.737 42.2 42.2 0 0 1-25.533-5.943c-7.581-4.892-10.883-12.4-15.212-19.933-6.383-11.127-15.359-19.761-29.152-17.706-9.269 1.394-17.78 6.921-25.9 11.225l-29.715 15.53-29.568 15.702c-9.783 5.184-20.103 11.665-31.451 12.032-25.313.856-36.147-27.734-43.044-47.054a6.36 6.36 0 0 0-5.894-4.5l-87.115-5.968 5.894 4.476c-4.891-26.903-3.081-57.107 16.264-78.115a55.98 55.98 0 0 1 32.283-18c14.258-2.128 28.614 3.032 42.897 3.595 7.875.293 7.85-11.935 0-12.228z"/><path fill="#fff" d="M357.262 681.115a137.78 137.78 0 0 1-33.653-116.243c4.403-24.138 14.894-50.919 1.541-71.511l12.546.196a55.18 55.18 0 0 1 12.812-69.055 55.2 55.2 0 0 1 22.455-11.335c17.658-4.28 36.074.343 53.927 3.718a389.8 389.8 0 0 0 96.726 5.943c32.479-2.055 65.544-8.169 97.216-.661 8.657 2.03 21.033 3.057 23.185-5.551.905-3.546-.685-7.191-.954-10.835s2.03-8.217 5.649-7.679a6.97 6.97 0 0 1 3.987 2.666c18.049 19.883 14.87 50.478 10.565 76.99l22.72-25.313a114.15 114.15 0 0 1-12.228 63.587c-2.103 4.036-4.5 8.144-4.696 12.693a26.9 26.9 0 0 0 3.327 12.009c7.924 17.266 16.826 34.386 20.543 53.022 3.718 18.636 1.468 39.546-10.956 53.804-10.541 12.229-26.903 18.001-42.8 20.373s-32.234 1.81-48.253 3.937c-20.079 2.666-39.351 9.49-59.136 13.867-52.998 11.715-108.123 5.625-161.904-1.443-6.26-.831-12.839-1.809-17.706-5.82s-6.873-12.229-2.446-16.606"/><path fill="#fff" d="M361.588 676.786a132.92 132.92 0 0 1-33.849-94.941c1.492-30.473 19.566-62.511 2.642-91.566l-5.283 9.196 12.546.196a6.2 6.2 0 0 0 5.242-3.105 6.18 6.18 0 0 0 .041-6.091c-10.003-19.712-7.141-43.704 9.22-59.161 17.976-17.12 41.577-14.527 64.101-10.272a444.7 444.7 0 0 0 123.58 6.604c20.813-1.835 41.821-4.256 62.707-2.299 12.228 1.125 30.84 9.318 42.114.636a15.15 15.15 0 0 0 4.426-5.77 15.15 15.15 0 0 0 1.224-7.168c0-.612-1.052-8.144-1.957-7.973 2.642-.489 8.291 14.014 8.854 15.677 5.772 17.706 2.959 37.419 0 55.37-.856 5.454 5.723 10.956 10.223 5.943l22.696-25.288-10.199-4.329c1.834 22.965-3.155 42.97-13.06 63.587-8.437 17.536 2.275 31.623 9.44 47.789 9.049 20.396 16.802 44.022 8.952 66.033-8.56 24.114-33.946 31.378-57.033 33.334-21.155 1.785-41.577 2.446-62.316 7.606-22.818 5.674-44.952 12.082-68.479 14.21a416 416 0 0 1-69.579-.245c-11.642-.905-23.283-2.128-34.875-3.522-5.405-.636-47.129-2.714-37.982-16.117 4.451-6.53-6.138-12.644-10.541-6.187-7.875 11.543 0 24.456 11.886 28.81 7.778 2.934 16.9 3.252 25.068 4.304 11.569 1.467 23.185 2.837 34.802 3.938 43.631 4.133 87.213 3.741 129.841-7.337 21.546-5.577 42.237-10.957 64.59-12.229 18.049-1.003 36.465-1.663 53.316-8.878 33.97-14.674 42.114-50.723 32.796-83.959a207.4 207.4 0 0 0-11.69-30.033c-2.446-5.258-5.478-10.517-7.337-15.946-3.742-10.541-.783-13.769 3.228-22.207a123.2 123.2 0 0 0 11.201-62.951c-.415-4.892-6.627-8.56-10.443-4.329l-22.769 25.435 10.223 5.943c3.962-25.019 10.125-66.571-13.94-84.645-8.291-6.212-17.462 0-18.147 9.636-.245 3.473 1.174 6.237-.318 9.636-2.079 4.891-6.603 3.644-11.593 2.837-9.122-1.467-17.902-3.473-27.171-4.084-40.989-2.617-81.759 6.53-122.919 4.011-21.889-1.346-42.995-5.577-64.542-9.196-16.606-2.764-33.505-3.718-49.231 3.228-33.359 14.674-44.951 54.147-28.883 85.843l5.282-9.196-12.546-.195a6.16 6.16 0 0 0-5.244 3.103 6.16 6.16 0 0 0-.014 6.093c10.027 17.315 4.28 36.954.244 55.198a158.5 158.5 0 0 0-4.182 49.158 146.37 146.37 0 0 0 37.003 84.645c5.259 5.87 13.867-2.813 8.634-8.658z"/><path fill="#fff" d="M347.307 288.775a87.7 87.7 0 0 0 3.766 59.137 39.7 39.7 0 0 0 9.636 14.405c5.479 4.891 12.962 7.337 17.56 12.937 2.446 2.911 3.816 6.506 5.943 9.612 6.163 8.951 18.416 14.87 18.832 25.728a61.3 61.3 0 0 0-7.337-55.027 158 158 0 0 0-15.579-17.56 246.6 246.6 0 0 1-34.093-45.441"/><path fill="#fff" d="M345.907 288.362c-5.919 22.354-4.891 50.235 9.049 69.702a36.7 36.7 0 0 0 9.465 8.829 56.25 56.25 0 0 1 17.535 17.12c6.041 9.367 18.025 15.261 19.566 26.902.22 1.614 2.445 1.296 2.934 0a63.59 63.59 0 0 0-8.731-57.767c-6.505-8.804-14.82-16.141-22.011-24.456a255.7 255.7 0 0 1-26.413-36.808 1.543 1.543 0 0 0-2.687.452c-.118.356-.102.744.046 1.089a277.4 277.4 0 0 0 38.397 49.892c18.024 18.856 26.902 41.063 18.538 66.864h2.935c-1.052-7.606-5.65-12.228-10.932-17.462-7.02-6.897-10.859-16.41-18.49-22.475-5.111-4.06-11.274-6.579-15.75-11.471-5.282-5.747-8.315-14.087-10.443-21.424a89.05 89.05 0 0 1-.122-48.179 1.52 1.52 0 0 0-1.064-1.871 1.525 1.525 0 0 0-1.871 1.063zm33.453-43.336a576 576 0 0 0 31.525 41.919 42 42 0 0 1 6.53 9.44 33.4 33.4 0 0 1 2.298 13.427 91.05 91.05 0 0 1-12.228 45.978 131 131 0 0 0-3.057-15.676c-7.19-25.753-29.495-46.664-30.84-73.371a32.12 32.12 0 0 1 6.603-22.524"/><path fill="#fff" d="M378.041 245.808c10.834 15.53 23.38 29.642 34.043 45.123 12.816 18.538 4.158 45.93-5.771 64.101l2.788.367c-2.886-18.563-9.783-33.017-18.979-49.158-10.271-18.074-22.793-41.846-8.462-61.142 1.174-1.59-1.492-3.106-2.641-1.541-10.688 14.454-7.092 32.846-.122 48.131 9.978 22.036 23.405 39.865 27.269 64.468.196 1.321 2.201 1.443 2.788.367 8.78-16.044 15.579-37.248 11.47-55.688-1.932-8.756-8.486-15.041-13.916-21.791-9.049-11.299-17.608-22.916-25.826-34.826-1.1-1.614-3.766 0-2.641 1.54z"/><path fill="#fff" d="M497.757 195.06c13.255 9.563 13.231 24.579 12.521 40.916a17.1 17.1 0 0 1-2.274 8.805 20.7 20.7 0 0 1-6.041 5.331c-20.91 14.112-41.772 28.81-58.329 47.813s-28.639 42.971-28.883 68.161a55.1 55.1 0 0 0 6.114 27.392 61.3 61.3 0 0 0 16.239 17.804c5.38 4.231 11.177 8.046 15.457 13.378 13.94 17.462 7.141 44.927 20.103 63.147 10.174 14.283 29.348 18.514 46.81 20.104a303.6 303.6 0 0 0 95.626-6.432 8.17 8.17 0 0 0 7.826-6.604 540 540 0 0 0 27.489-135.514c.71-9.783 1.101-19.957-1.956-29.348-5.038-15.457-18.514-26.414-31.329-36.441l-34.24-26.902c3.498 18.367 19.761 31.402 27.612 48.375 9.538 20.544 5.894 44.487 2.054 66.791-9.122-4.891-14.796-14.674-16.924-24.725-2.127-10.052-1.149-20.569.196-30.791-16.288 12.228-19.37 35.022-21.155 55.296a132 132 0 0 1-30.277-26.731 40.7 40.7 0 0 1-9.465-17.12c-1.345-6.407.44-13.842 5.772-17.609 8.902-6.285 21.057.294 31.916-.464a23.67 23.67 0 0 0 19.565-13.402 78 78 0 0 1-20.421 4.548 18.86 18.86 0 0 1-13.452-2.812c-16.704-13.011-4.744-9.587-4.671-15.041a120.8 120.8 0 0 1 16.215-59.112 41.992 41.992 0 0 0-28.419 61.289c-10.492-2.617-21.644 3.081-28.59 11.372-6.945 8.291-10.516 18.832-13.964 29.079-1.688.171-2.691-1.834-3.131-3.473a68.48 68.48 0 0 1 6.163-50.576c5.821-10.468 14.283-19.199 20.862-29.177 3.326-5.038 6.187-10.394 9.024-15.726a19.57 19.57 0 0 0 3.18-10.369 16.5 16.5 0 0 0-3.155-7.484 57.9 57.9 0 0 0-44.022-25.337"/><path fill="#fff" d="M496.693 196.135c10.468 8.511 15.946 26.462 12.082 39.84-4.378 15.09-23.65 23.527-35.364 32.552-20.617 15.872-39.669 34.68-50.821 58.696-8.854 19.003-13.721 43.386-4.892 63.343 4.06 9.171 10.981 15.921 18.661 22.158 7.019 5.698 14.258 10.394 18.636 18.66a65 65 0 0 1 5.698 19.737c3.546 20.886 5.943 40.745 27.049 50.919 21.596 10.394 49.696 9.538 72.955 8.486a311 311 0 0 0 36.856-3.888c8.12-1.346 21.008-1.321 25.997-9.001 2.764-4.206 3.669-10.589 5.185-15.407a524 524 0 0 0 6.408-22.207 538 538 0 0 0 9.954-45.123 551 551 0 0 0 6.114-46.223c1.247-14.038 2.984-29.054-2.568-42.432-4.696-11.299-13.769-20.03-23.014-27.71-13.573-11.274-27.758-21.864-41.576-32.747a1.543 1.543 0 0 0-2.446 1.492c6.041 25.63 29.764 41.136 32.943 68.307.832 7.674.832 15.414 0 23.087-.391 4.134 0 10.81-1.883 14.528s-.513 6.334-5.625 2.665c-14.014-10.149-11.299-34.655-9.514-49.329.172-1.467-1.712-1.809-2.616-1.076-10.003 8.242-15.31 19.443-18.172 31.941-1.247 5.478-.905 12.375-2.763 17.584-1.712 4.891-.783 3.571-5.038.954a86.2 86.2 0 0 1-13.745-11.666c-7.851-7.606-18.612-17.927-19.076-29.544s11.348-16.19 21.301-14.918c2.642.342 5.234.978 7.876 1.271 12.228 1.321 22.011-2.959 28.198-13.818.15-.264.219-.566.197-.869a1.53 1.53 0 0 0-.317-.833 1.54 1.54 0 0 0-1.616-.548c-9.783 3.302-31.965 10.346-38.202-2.788-3.375-7.141.661-3.228 1.443-8.046 1.419-9.073 1.248-18.147 3.449-27.22a125.5 125.5 0 0 1 12.888-32.234 1.562 1.562 0 0 0-.859-2.198 1.56 1.56 0 0 0-.877-.052c-28.639 7.337-42.163 37.027-29.348 63.587l1.736-2.25c-18.342-2.959-31.524 10.223-38.617 25.9a86 86 0 0 0-1.712 4.109c-1.247 3.106-.905 8.682-4.011 5.918-4.011-3.571-2.714-16.41-2.25-21.326 1.541-16.288 9.392-29.348 19.101-41.968 8.658-11.274 27.734-31.28 19.81-46.468-8.707-16.728-28.321-26.119-46.297-27.856-1.981-.195-1.956 2.862 0 3.057a58.7 58.7 0 0 1 27.27 9.343c11.152 7.337 18.807 17.119 15.285 31.524s-18.685 27.368-26.731 39.718a71.1 71.1 0 0 0-11.642 34.558c-.44 7.116-1.516 22.793 6.041 26.682a1.55 1.55 0 0 0 1.337.072 1.54 1.54 0 0 0 .889-1.002c6.236-18.367 16.484-43.288 40.696-39.375a1.538 1.538 0 0 0 1.905-1.389c.021-.3-.046-.599-.193-.861a41.11 41.11 0 0 1 10.72-50.922 41.1 41.1 0 0 1 16.769-8.092l-1.736-2.25a127 127 0 0 0-14.87 41.063c-1.125 6.725-.489 14.674-3.228 20.886-.441 1.003-2.446 1.223-2.446 2.69-.269 4.891 5.943 9.612 9.514 11.739 10.418 6.286 24.456 2.03 35.046-1.589l-1.736-2.25c-6.995 12.375-17.878 13.304-30.742 11.445a40.4 40.4 0 0 0-13.378-.782 16.605 16.605 0 0 0-13.598 14.821c-2.837 21.521 25.41 41.576 40.745 51.823a1.537 1.537 0 0 0 2.086-.56c.136-.231.209-.493.213-.76 1.809-19.712 4.475-40.819 20.715-54.221l-2.617-1.076c-2.446 20.862-2.446 44.536 17.486 56.837a1.56 1.56 0 0 0 1.906-.309c.158-.17.275-.374.344-.595 3.546-20.862 7.337-43.313-.416-63.735-7.141-19.003-24.456-32.136-29.348-52.264l-2.445 1.492a62019 62019 0 0 1 32.356 25.337c10.247 8.022 21.4 16.289 28.272 27.588 13.965 22.964 5.209 59.185 1.247 84.082a542 542 0 0 1-19.345 80.927c-2.764 8.609-5.381 12.399-14.136 15.31a109 109 0 0 1-18.049 3.302 301 301 0 0 1-45.245 3.35c-24.212 0-60.824.538-74.862-23.576-10.198-17.536-4.891-40.183-16.166-57.351-6.041-9.245-16.117-14.234-23.894-21.767-12.057-11.739-16.557-26.193-15.603-42.823 1.491-26.463 15.97-50.626 33.994-69.311a251.3 251.3 0 0 1 34.998-29.348c7.851-5.625 21.522-11.103 25.239-20.592 6.017-15.481.93-38.471-11.812-48.914-1.517-1.247-3.693.905-2.153 2.153z"/><path fill="#fff" d="M595.629 194.744a55.8 55.8 0 0 0-4.207 13.451c-1.125 9.343 3.84 3.082 5.087 27.636.954 19.223.954 19.223-2.445 28.126a20.9 20.9 0 0 0 15.579-9.661 31.06 31.06 0 0 0 4.573-18.122 26.5 26.5 0 0 0-2.568-11.25c-2.568-4.892-7.166-8.585-10.321-13.207a53 53 0 0 1-6.481-16.973"/><path fill="#fff" d="M594.167 194.229c-4.182 10.492-4.891 15.139-1.589 24.824 4.451 12.913 4.891 31.5 0 44.389-.465 1.223.855 2.054 1.883 1.883 12.913-2.03 20.348-12.815 21.204-25.435a29.6 29.6 0 0 0-4.476-18.685c-2.446-3.766-6.065-6.628-8.56-10.37a53.1 53.1 0 0 1-6.31-16.557 1.537 1.537 0 0 0-1.867-.963 1.544 1.544 0 0 0-1.092 1.795 56 56 0 0 0 6.628 17.266c5.185 7.802 12.228 13.427 12.693 23.699a29.76 29.76 0 0 1-4.378 17.364c.856-1.272-10.052 11.323-12.008 8.78 0-.147 2.128-8.462 2.225-9.489a94.6 94.6 0 0 0-2.739-33.53c-2.959-9.416-2.714-13.818 1.345-24.041.71-1.81-2.225-2.617-2.959-.807z"/><path fill="#171213" d="M589.788 267.747c.244 1.688 1.687 2.446 2.739 3.473a74.3 74.3 0 0 0 11.25 8.976 132 132 0 0 1 15.163 10.418c5.332 4.28 10.663 8.609 15.848 13.06a80.8 80.8 0 0 1 11.959 13.084 14.4 14.4 0 0 1 1.517 2.446 135 135 0 0 1 8.315 19.101 59.1 59.1 0 0 1 1.687 17.584 104.6 104.6 0 0 1-5.429 32.332c19.394 17.976 27.074 39.571 19.419 65.544 1.638.709 2.103-.465 2.739-1.223a63.8 63.8 0 0 1 10.565-9.978 14.26 14.26 0 0 1 7.753-3.253 123.7 123.7 0 0 1 1.981 29.911 201 201 0 0 1-3.84 27.318c-1.614 7.997-5.502 15.065-8.682 22.402a80 80 0 0 1-4.035 7.875 6.06 6.06 0 0 0-.392 5.454 48 48 0 0 0 3.204 6.677c3.424 6.065 6.775 12.228 10.174 18.244a109 109 0 0 1 9.392 25.533 101.6 101.6 0 0 1 3.252 30.522c-.489 13.867-5.869 25.777-13.72 36.832a10.5 10.5 0 0 1-1.59 1.516h-12.228a63.4 63.4 0 0 0 5.992-8.217c4.28-7.606 8.731-15.114 12.889-22.794a20.7 20.7 0 0 0 2.445-8.119 74.5 74.5 0 0 0-3.375-29.031c-4.133-13.377-11.397-24.897-19.565-36.049a115.6 115.6 0 0 1-11.593-18.685 69.75 69.75 0 0 1-4.377-45.807c2.445-10.981 5.282-21.864 7.753-32.821a53.59 53.59 0 0 0-9.539-48.4 16 16 0 0 0 .954 6.041 59.12 59.12 0 0 1-7.85 45.954c-4.574 7.044-9.221 14.038-13.28 21.424a60.6 60.6 0 0 0-6.897 24.457 76.3 76.3 0 0 0 2.617 28.101 17.11 17.11 0 0 1-3.816 17.119 12.76 12.76 0 0 1-6.481 4.109 92 92 0 0 0-10.785 4.5 38 38 0 0 1-3.693 1.247 22.45 22.45 0 0 0-17.535 18.367c-.685 3.106-1.003 6.286-1.468 9.441a20 20 0 0 0 .954 8.07 63.6 63.6 0 0 0 3.473 10.419 93.6 93.6 0 0 1 6.09 18.489 45.6 45.6 0 0 1-1.223 25.191c-1.076 3.252-2.299 6.456-3.375 9.782a5.46 5.46 0 0 1-3.375 3.62 9.34 9.34 0 0 1-.856-5.674 39.44 39.44 0 0 0-2.299-19.565 130 130 0 0 1-7.606-31.305 151.7 151.7 0 0 1-.489-27.685 74.3 74.3 0 0 1 3.521-18.709 8.4 8.4 0 0 0 .734-5.161 25.6 25.6 0 0 0-4.011 5.503 85 85 0 0 0-11.177 37.052c-.195 2.641-1.516 5.258-.317 7.826a6.4 6.4 0 0 1-3.033 2.641 20.6 20.6 0 0 0-8.095 6.726c-4.354 5.454-8.658 10.957-13.036 16.41a47.1 47.1 0 0 0-7.655 14.332 9.36 9.36 0 0 1-3.962 5.87 9.13 9.13 0 0 1-1.467-7.337c2.446-9.979 5.527-19.761 11.47-28.37a17 17 0 0 0 1.786-3.449 44.3 44.3 0 0 1 8.437-13.059 159 159 0 0 0 10.321-14.846 27 27 0 0 0 3.375-10.271 70.8 70.8 0 0 0-.538-27.49c-1.517-8.633-2.617-17.315-.538-26.022a35.14 35.14 0 0 1 6.481-14.796c2.03-2.446 3.791-5.136 5.674-7.728a37.6 37.6 0 0 1 5.723-5.21 3.36 3.36 0 0 0-3.962.514c-6.799 4.891-13.549 9.978-18.221 17.12a34.66 34.66 0 0 0-5.992 22.182c.965 7.174.7 14.461-.782 21.546a58.03 58.03 0 0 1-20.055 30.693 156.3 156.3 0 0 1-22.842 15.604 125.4 125.4 0 0 0-24.628 16.753 45.7 45.7 0 0 0-13.5 21.301 27.8 27.8 0 0 0-1.174 8.731c.293 6.408 1.247 12.718 2.005 19.077a80 80 0 0 1 .294 8.657 15.8 15.8 0 0 1-6.066-6.481c-11.029-19.565-11.054-39.913-3.986-60.652a99.4 99.4 0 0 1 14.063-26.462c2.445-3.229 5.551-5.797 7.85-9.147a62.8 62.8 0 0 0 7.46-12.816c.366-.929 1.834-1.345 1.271-2.69-.88-.538-1.418.123-1.663.709a15.5 15.5 0 0 1-4.451 5.43 115 115 0 0 0-7.802 8.706c-6.236 6.506-13.035 12.4-19.712 18.392a27 27 0 0 0-3.986 4.524 22 22 0 0 1-1.712 2.275c-6.995 7.337-11.324 16.41-15.921 25.386-5.136 10.076-5.65 20.592-5.405 31.427a83 83 0 0 0 1.002 13.011c-1.271.464-1.956-.318-2.665-.807a169 169 0 0 1-18.734-15.188 162 162 0 0 1-19.272-19.394 85.3 85.3 0 0 1-14.674-24.114 65.5 65.5 0 0 1-2.813-13.452c-1.149-8.193-2.617-16.41-1.418-24.75a54 54 0 0 1 2.739-14.185c.328-.79.738-1.545 1.223-2.25.374.839.443 1.782.195 2.666-.978 4.671-.635 9.44-1.222 14.161-.905 7.557.978 14.82 3.008 22.011a115 115 0 0 0 4.255 12.741 145.4 145.4 0 0 0 10.199 20.618c.587.978 1.394.953 2.176 1.345.49-.93 0-1.517-.342-2.299-4.109-10.345-8.951-20.422-11.372-31.354a9.8 9.8 0 0 1 0-4.696c4.402 7.338 8.07 15.237 12.375 22.672a140.5 140.5 0 0 0 15.285 20.984c.881-1.688-.171-2.446-.758-3.18a118 118 0 0 1-14.503-29.03 3.11 3.11 0 0 1-.122-2.886c7.533 9.93 14.405 20.079 23.429 28.884a5.7 5.7 0 0 0-1.198-4.378c-2.274-4.109-4.745-8.095-7.068-12.228a10.8 10.8 0 0 1-1.981-6.481c6.921 5.502 12.791 11.568 19.247 17.119 1.028-1.125.294-1.81-.22-2.445a101 101 0 0 1-6.799-10.786 10.8 10.8 0 0 1-1.589-4.231c4.769 2.886 7.875 7.704 13.182 9.979.391-2.055-.905-2.984-1.639-4.036a148 148 0 0 0-13.842-16.166 64.9 64.9 0 0 1-17.903-40.011 54.1 54.1 0 0 1 2.299-23.796 182.7 182.7 0 0 1 17.952-35.683c6.114-9.415 6.261-19.296 2.152-29.348a42 42 0 0 0-2.177-4.451 11.59 11.59 0 0 0-7.924-6.383 68.5 68.5 0 0 0-15.408-1.81 50.76 50.76 0 0 1-22.011-4.891c-4.548-2.446-10.54-9.489-7.777-16.9a15.53 15.53 0 0 1 6.75-9.171 45 45 0 0 0 6.604-4.891c1.638-1.321 3.081-2.886 4.597-4.305-.513-.856-1.149-.587-1.638-.489a78.27 78.27 0 0 0-55.468 42.457 26.66 26.66 0 0 0 2.03 27.269 17.1 17.1 0 0 0 7.63 6.628 48 48 0 0 0 12.816 3.84 12.4 12.4 0 0 0 4.891-.71 83.2 83.2 0 0 1 29.886-1.834c7.337.734 14.479 7.949 13.867 14.21-.367 3.741-1.321 7.337-2.054 11.152-.196 1.051-.587 2.054-.881 3.081a8.63 8.63 0 0 1-3.497 4.745 67.4 67.4 0 0 0-14.527 12.889c-2.911 3.546-6.31 6.701-9.465 10.027a66.4 66.4 0 0 0-13.305 21.204 92.7 92.7 0 0 0-5.722 24.041 94 94 0 0 0 1.712 26.438c.382 1.6.538 3.247.464 4.891-.293 2.446 1.027 4.598.709 6.994-.269 0-.611.001-.635-.146-2.813-6.848-7.142-13.085-9.098-20.226a91 91 0 0 1-3.473-19.174c-.245-4.109-.783-8.217-.636-12.4.22-6.847.954-13.671 1.37-20.519.636-10.467 1.785-21.057-1.786-31.304a57.4 57.4 0 0 0-15.285-22.329c-.587-.563-.612-.514-2.642-.489a44.2 44.2 0 0 1 4.427 8.877 47.4 47.4 0 0 1 2.103 10.419 74.6 74.6 0 0 1 0 18.685 141 141 0 0 1-3.375 15.212 170.4 170.4 0 0 0-5.967 30.179c-1.101 12.351.783 24.457 2.641 36.343a56.26 56.26 0 0 0 11.275 25.753 191 191 0 0 0 15.041 16.435c3.204 3.302 5.992 6.97 8.951 10.492a2.44 2.44 0 0 1 .416 2.446c-.22.635-1.15.953-2.275 1.1-3.05.372-6.14.24-9.147-.391a11.1 11.1 0 0 1-6.823-4.011 127 127 0 0 1-11.25-15.921c-1.394-2.446-2.739-4.696-4.305-6.922a150 150 0 0 1-9.782-17.657c-2.25-4.305-2.935-9.441-4.28-14.21a63 63 0 0 1-1.81-11.543c-.318-3.962-1.345-7.9-1.639-11.911a21.04 21.04 0 0 1 .563-9.782c.31-1.023.459-2.087.44-3.155a81.4 81.4 0 0 1 5.332-23.087 165.5 165.5 0 0 0 7.068-25.876c3.252-14.233-.758-26.388-10.272-37.027a78 78 0 0 0-7.753-7.826 2.57 2.57 0 0 1-1.345-2.446c4.06-.587 7.997.832 11.984 1.223a58.6 58.6 0 0 1 11.372 2.25c.66-.269.734-.465.587-.734-7.679-11.935-7.704-24.603-2.984-37.419 6.188-16.752 17.732-29.152 32.675-38.568 8.413-5.307 14.674-7.704 28.051-11.201a28.9 28.9 0 0 0-4.646-8.144 36.2 36.2 0 0 0-9.783-9.098 105.5 105.5 0 0 1-13.843-9.783 47.1 47.1 0 0 1-14.111-17.951 67.2 67.2 0 0 1-3.815-15.823c-2.104-13.794.244-27.147 4.157-40.305 1.199-3.962 2.593-7.851 4.134-12.595 13.72 27.758 33.505 50.112 54.367 72.172a52 52 0 0 0-2.788-12.742 262 262 0 0 0-11.275-29.348c-2.128-4.354-4.353-8.683-7.019-12.816a35.5 35.5 0 0 1-4.891-12.497 200 200 0 0 1-2.446-22.207c-.831-10.198 2.641-18.807 8.315-26.902a16.7 16.7 0 0 0 3.913-6.652c1.517 4.255.832 8.29 1.859 12.228a28.3 28.3 0 0 0 5.478 11.103c5.43 6.481 11.935 11.813 17.829 17.78a58.7 58.7 0 0 1 16.655 30.645c0 .317 0 .733.563.782 4.035-4.402 7.166-9.489 10.81-14.185a87.1 87.1 0 0 1 28.614-23.992 846 846 0 0 1 19.932-10.003 61.1 61.1 0 0 0 15.873-11.176 19.93 19.93 0 0 0 5.111-23.038 51.3 51.3 0 0 0-11.568-18.025c-2.861-2.984-5.772-5.968-8.609-8.976a2.76 2.76 0 0 1-1.051-1.981 27.2 27.2 0 0 1 9.024.807 101.7 101.7 0 0 1 26.218 10.59 33.24 33.24 0 0 1 14.185 15.897A28.47 28.47 0 0 1 533.17 244a142 142 0 0 1-12.668 18 117 117 0 0 1-7.924 9.122 57.66 57.66 0 0 0-14.503 30.253 57.7 57.7 0 0 0-.538 19.125c1.345-.733 1.247-2.274 1.687-3.424a42 42 0 0 1 11.52-17.119 31.64 31.64 0 0 1 27.024-7.337s0-.172-.171-.465c-6.774-8.829-6.995-18.489-3.448-28.565a51.1 51.1 0 0 1 15.212-21.473 82.6 82.6 0 0 1 19.418-12.229 22.8 22.8 0 0 1 6.75-1.956c1.101-.123 1.835 0 2.299.953a2.91 2.91 0 0 1-1.076 2.593 68.5 68.5 0 0 0-15.359 34.044c-1.1 6.53-2.029 13.084-3.154 19.565a49.4 49.4 0 0 0-.245 12.742 62 62 0 0 1 .538 6.995c10.688 6.799 28.296 6.529 35.438-7.337-.147-1.15-1.15-1.737-1.81-2.446a128.5 128.5 0 0 1-16.826-24.457 48.4 48.4 0 0 1-4.451-13.793 47.4 47.4 0 0 1 .489-12.229c0-.489.562-.929 1.003-1.614a88.8 88.8 0 0 0 13.133 21.473c1.223 1.516 2.225 3.277 4.255 3.962zm15.652 46.297a4.52 4.52 0 0 1-.783 3.35c-1.614 3.669-2.837 7.484-4.231 11.25-4.598 12.449-2.861 24.457 3.229 35.781a35.4 35.4 0 0 0 5.307 8.388 114 114 0 0 0 2.445-12.791 78.1 78.1 0 0 0 .343-30.595c-1.37-5.967-2.568-11.984-6.31-17.12a77.6 77.6 0 0 0-7.533-11.372c-.513 1.394-.88 2.446-1.271 3.375a25.88 25.88 0 0 1-18.49 17.12 46.5 46.5 0 0 1-18.66.171 53 53 0 0 0-10.223-.954c-8.756.391-12.889 5.185-12.057 13.867a25.85 25.85 0 0 0 6.09 13.745 141.2 141.2 0 0 0 21.815 22.255 14.7 14.7 0 0 0 4.035 3.008v-3.423a34 34 0 0 1 0-3.547 69.93 69.93 0 0 1 30.204-50.356 9.47 9.47 0 0 1 6.09-2.152M492.572 195.233c.22.538.269.832.416.929 1.247.881 2.446 1.761 3.791 2.593a68.2 68.2 0 0 1 19.125 19.761 17.83 17.83 0 0 1 2.592 11.201 31.8 31.8 0 0 1-7.337 18.122 63.3 63.3 0 0 1-14.674 12.938 298 298 0 0 0-28.149 21.033c-18.636 15.359-31.794 34.239-37.37 57.938-2.446 10.247-4.158 20.666-2.446 31.28a36.1 36.1 0 0 0 8.536 19.883 130 130 0 0 0 11.641 10.957c4.182 3.522 8.78 6.407 13.207 9.587a35.9 35.9 0 0 1 13.818 17.975 192 192 0 0 1 6.04 21.107c2.153 10.418 3.229 21.032 5.65 31.402.799 2.875.841 5.908.122 8.804-.831 2.935-3.179 3.816-5.258 1.664a56.7 56.7 0 0 0-9.44-7.484 17 17 0 0 1-2.862-2.642 45 45 0 0 1-10.149-19.565 34.06 34.06 0 0 1-1.052-15.799 26.6 26.6 0 0 0 .807-9.66c-.954.171-1.027.831-1.223 1.345a105.7 105.7 0 0 0-7.043 42.065 29.34 29.34 0 0 0 6.75 18.685c3.032 3.644 6.016 7.337 9 10.981 6.212 7.606 10.565 16.044 10.81 26.071a33.34 33.34 0 0 1-3.522 18.22 68.8 68.8 0 0 1-10.15 12.229 27.3 27.3 0 0 1-9.122 5.967 23.93 23.93 0 0 0-10.565-17.804 21.65 21.65 0 0 1-6.261-6.212 13.5 13.5 0 0 0-2.446-2.642 74 74 0 0 1-17.853-23.527 8.1 8.1 0 0 0-.294 4.035 27.6 27.6 0 0 0 6.506 14.332c3.35 3.84 6.701 7.704 9.783 11.764 3.619 4.891 6.945 9.782 7.141 16.288.125 1.06.371 2.102.734 3.106.733 2.861 1.247 5.772 1.712 8.682.66 4.084.293 8.169.587 12.889 2.445-4.109 5.869-6.53 8.486-9.783a135 135 0 0 1 18.098-16.973 213.5 213.5 0 0 0 23.136-22.011 24.45 24.45 0 0 0 6.481-12.375 53 53 0 0 1 4.72-13.329 127.5 127.5 0 0 1 21.864-32.625c4.77-5.258 9.441-10.614 14.234-15.848a50.9 50.9 0 0 0 9.269-13.818 81.6 81.6 0 0 0 6.579-28.174 28.6 28.6 0 0 0-1.272-11.593 99.4 99.4 0 0 0-8.095-17.682c-.391-.636-.807-1.15 0-1.932a10.85 10.85 0 0 1 4.036 4.109c5.16 7.337 9.244 15.163 13.647 22.867a58.43 58.43 0 0 1 7.508 28.541 93.2 93.2 0 0 1-4.525 27.562c-.831 2.911-1.834 5.772-2.788 8.658.978.245 1.296-.318 1.761-.636a81.8 81.8 0 0 1 17.438-9.44 27.9 27.9 0 0 1 15.285-1.981c.807.147 1.296.416 1.321 1.345a90.5 90.5 0 0 0-21.693 24.457 31.6 31.6 0 0 0-3.816 11.005 74.5 74.5 0 0 0-.953 10.957c0 8.975 1.907 17.78 2.445 27.024a7.6 7.6 0 0 0 2.764-3.032c1.418-2.055 2.788-4.133 4.329-6.065 4.231-5.283 8.364-10.615 12.522-15.922.66-.856 1.345-1.638 2.69-1.247.709 2.005-.783 3.375-1.663 4.745a46.5 46.5 0 0 0-5.919 14.674c-.122.489-.195 1.222.954 1.296 6.285-9.171 8.315-20.397 13.256-30.204 1.418.513 1.369 1.32 1.149 2.176-.416 1.615-.88 3.18-1.247 4.892a109.4 109.4 0 0 1-5.479 20.03c-.244.562-.489 1.369.416 1.81.93 0 1.321-.783 1.737-1.517 4.598-8.511 8.462-17.119 7.704-27.22-.27-3.766-.539-7.557-.71-11.324 0-1.1-.464-2.445.93-3.13a1.514 1.514 0 0 1 1.516 1.296c2.812 12.375 4.427 24.799 1.198 37.346.905.562 1.345 0 1.786-.538a16 16 0 0 0 2.225-4.892c2.446-7.85 1.59-15.652-.269-23.454-1.198-5.087-3.522-9.782-5.062-14.674a64.2 64.2 0 0 1-3.033-19.565 5.46 5.46 0 0 1 2.177-4.891c1.247 4.891 1.076 9.782 2.617 14.429s2.567 9.538 6.163 13.402c.146-.44.293-.636.269-.856 0-.685-.147-1.394-.269-2.103-3.865-23.185-.441-45.759 5.967-68.039 2.446-8.559 6.603-16.483 9.563-24.848a155.8 155.8 0 0 0 9.929-51.701 56.25 56.25 0 0 0-11.47-35.854 86.4 86.4 0 0 0-13.256-12.815 397 397 0 0 1-34.826-31.182c-.22-.245-.636-.171-.954 0a1.86 1.86 0 0 0 0 1.981 44 44 0 0 1 4.011 5.967 96.5 96.5 0 0 0 13.476 14.674 66 66 0 0 1 15.725 20.837 73.8 73.8 0 0 1 4.598 16.729 76.1 76.1 0 0 1 .44 26.902 172.5 172.5 0 0 1-7.483 26.242 20 20 0 0 0-1.908 7.141 2.62 2.62 0 0 1-.481 1.77c-.369.512-.91.874-1.524 1.019-2.055-.416-2.886-2.202-3.449-3.987a43.1 43.1 0 0 0-8.609-14.674 82 82 0 0 1-5.649-7.337 28.1 28.1 0 0 1-4.573-21.62 74 74 0 0 1 4.451-15.114 1.074 1.074 0 0 0-.343-1.516 6.65 6.65 0 0 0-2.445 2.445 95.8 95.8 0 0 0-8.634 19.175 39.52 39.52 0 0 0 4.158 34.068c3.057 5.062 6.065 10.149 8.78 15.432a48.06 48.06 0 0 1 4.598 26.535c-.66 8.414-3.938 16.044-6.799 23.797a11.6 11.6 0 0 1-2.959 4.378c-1.003.953-2.079 1.589-3.424.562a10.24 10.24 0 0 1 .269-5.307c.562-2.152 1.394-4.28 2.103-6.408a59.2 59.2 0 0 0 1.834-31.158 7.83 7.83 0 0 0-2.445-5.307c.587 4.388.653 8.829.195 13.231-.636 4.378-1.638 8.609-5.38 11.617a9.78 9.78 0 0 1-1.101-6.848c0-3.326.734-6.627.612-9.929a30 30 0 0 0-2.446-12.717c-.465 14.356-1.639 18.807-5.796 22.011-.147-1.346-.954-2.446-.661-3.865.526-3.39.796-6.816.807-10.247a33.26 33.26 0 0 0-3.057-17.927 76.9 76.9 0 0 0-16.899-21.301c-4.892-4.574-9.123-9.954-14.21-14.381a5.7 5.7 0 0 1-1.54-2.446c-.856-2.225-2.226-4.182-3.277-6.285-3.522-7.068-5.992-14.356-5.039-22.476a15.95 15.95 0 0 1 12.229-13.475c3.94-.78 8.013-.544 11.837.684a37.95 37.95 0 0 0 19.908.612 24.66 24.66 0 0 0 11.005-5.845 5.52 5.52 0 0 0-4.427.587 27.77 27.77 0 0 1-24.285-.294 71 71 0 0 1-8.829-5.258 84 84 0 0 0-8.438-5.258 15.89 15.89 0 0 0-16.557.66 27.95 27.95 0 0 0-9.44 9.465 63.9 63.9 0 0 0-7.508 20.177c-1.932 8.559-2.446 17.119.758 25.532a2.44 2.44 0 0 1 .147 2.275q-.573.499-1.199.929a8.4 8.4 0 0 1-1.198.514 5.2 5.2 0 0 1-1.052-.538 57.4 57.4 0 0 1-16.704-23.894 46.5 46.5 0 0 1-2.445-26.487 73.4 73.4 0 0 1 15.505-33.09c6.139-7.533 11.96-15.285 17.854-22.989a72.3 72.3 0 0 0 9.611-16.093c4.891-11.69 3.033-19.565-6.408-27.147-.562-.44-1.125-.88-1.712-1.272a76 76 0 0 1-6.75-4.573c-5.551-4.769-12.668-6.139-19.076-9.024-.171.048-.562.22-1.174.293m69.384 235.543c-.342 2.959-1.003 5.82-1.345 8.706a70.46 70.46 0 0 1-18.196 40.329c-3.742 4.109-7.337 8.316-11.005 12.547a86.4 86.4 0 0 0-19.321 36.196c-1.981 8.119-4.133 16.214-6.31 24.309a29 29 0 0 1-1.565 4.28c-2.446 5.503-5.479 10.664-8.34 15.922-.318.562-1.052 1.149.269 1.956 3.522-3.595 5.185-8.608 9.049-12.228-2.201 6.554-3.595 13.207-5.283 19.908 7.068-6.139 11.348-14.674 17.756-21.816.856 5.552-1.565 10.052-1.786 14.894a5.3 5.3 0 0 0 1.248-.317c8.242-4.892 15.799-10.395 20.103-19.37a19 19 0 0 1 2.03-3.326 21.2 21.2 0 0 0 3.449-7.704 60.4 60.4 0 0 0 1.394-21.84 47.7 47.7 0 0 1 .856-13.353c.66-4.182 3.301-7.558 4.524-11.52a22.9 22.9 0 0 1 4.256-7.337 47.2 47.2 0 0 0 7.801-12.57 71.5 71.5 0 0 0 4.647-27.441 54.7 54.7 0 0 0-1.247-10.565c-.783-3.228-.905-6.701-2.984-9.66m-217.958-135.27a42 42 0 0 0 .122 11.078 153.6 153.6 0 0 0 8.633 31.794 61.96 61.96 0 0 0 20.935 28.028 128 128 0 0 1 15.97 14.038c5.332 5.918 10.492 11.91 13.158 19.565.171.44.343.881 1.223.563-.196-3.204-.318-6.481-.587-9.783a50.38 50.38 0 0 0-12.84-30.498c-7.117-7.924-14.503-15.603-21.84-23.307a71 71 0 0 1-7.948-10.003 128.2 128.2 0 0 1-15.457-30.204c-.171-.464-.122-1.174-1.369-1.271m33.946-45.71a46.5 46.5 0 0 0-.465 12.742 68.3 68.3 0 0 0 5.576 22.256 81 81 0 0 0 9.514 16.606 112.7 112.7 0 0 1 18.318 38.568c.196.709.195 1.761 1.369 1.687.783-.269.661-.953.71-1.492.44-3.766.953-7.508 1.223-11.274a66.6 66.6 0 0 0 0-16.655c-.979-5.356-2.299-10.639-3.4-15.946a15.2 15.2 0 0 0-3.571-7.337c-1.907-2.128-3.79-4.231-5.796-6.261-3.668-3.693-7.484-7.337-11.128-10.956a42.35 42.35 0 0 1-10.272-16.802c-.684-1.688-1.418-3.4-2.078-5.136m296.121 266.969a4.5 4.5 0 0 0 2.153-2.445 158 158 0 0 0 10.1-23.014 51.7 51.7 0 0 0 3.204-20.837 64 64 0 0 1 .343-12.767 79 79 0 0 0 0-9.318c-.392 0-.661 0-.808.245a36.37 36.37 0 0 0-10.883 17.12 126 126 0 0 0-5.478 33.114 99.5 99.5 0 0 0 1.369 17.902M566.701 235.513a73.4 73.4 0 0 0-22.965 22.476 32.13 32.13 0 0 0-5.136 17.78c.489 7.948 4.891 13.231 11.348 17.413.88-27.929 1.002-28.296 16.753-57.571zM353.365 542.029c4.695-7.777 8.217-16.141 13.035-23.821 5.65-8.975 9.147-19.1 14.674-28.174a14.9 14.9 0 0 0-7.557 3.693 57.14 57.14 0 0 0-18.294 26.903 20.8 20.8 0 0 1-1.687 5.013 10.1 10.1 0 0 0-1.272 6.457c.318 3.228.758 6.505 1.101 9.929m105.604 4.549a50.1 50.1 0 0 0-6.139-22.378 152 152 0 0 1-8.535-18.734c-1.248-3.326-2.299-6.75-3.473-10.271a5.2 5.2 0 0 0-.514 1.1 49.04 49.04 0 0 0 5.405 33.506c3.571 6.212 8.78 11.079 13.256 16.655zM404.357 430.58c17.927 4.622 29.348 15.75 34.435 34.093a29.16 29.16 0 0 0-9.587-28.003c-7.337-6.604-15.75-7.606-24.848-6.212zm184.575-20.837-.147-.147v.269z"/><path fill="#110a0c" d="M502.46 759.69a6.45 6.45 0 0 1-3.619 4.598 67.4 67.4 0 0 1-13.231 5.894c-3.4 1.296-6.873 2.446-10.321 3.669a72.4 72.4 0 0 0-18.074 8.829c-5.674 3.937-12.35 5.771-18.464 8.804a96 96 0 0 1-10.077 4.231 53.4 53.4 0 0 0-18.905 12.228 26.3 26.3 0 0 0-4.891 4.647c-.611.954-1.639.783-2.446.147-.758-1.076-.342-2.275-.367-3.424a95.4 95.4 0 0 0-4.891-30.669 72.2 72.2 0 0 0-11.543-18.978c-4.5-5.796-9.172-11.446-13.794-17.12a11.15 11.15 0 0 1-2.275-3.937c1.688-1.028 2.984.171 4.256.831a93 93 0 0 1 13.671 9.489 180 180 0 0 1 14.87 12.229c-1.688-8.682-5.845-16.533-7.337-25.142 1.1-1.051 1.761-.269 2.446.318A109.4 109.4 0 0 1 408.889 748c2.446 2.641 4.622 5.356 7.19 8.34a14.7 14.7 0 0 0-1.467-6.775c-2.324-6.065-3.742-12.424-6.481-18.318a4.03 4.03 0 0 1-.196-3.399c4.329 1.663 11.813 9.269 20.642 20.91.761-3.946.5-8.02-.759-11.837-1.809-5.869-3.79-11.641-5.698-17.462-.269-.783-.685-1.541.147-2.446a88.4 88.4 0 0 1 21.228 28.688c0-10.81-1.908-21.302-3.033-31.94 7.558 5.918 11.593 14.209 16.435 22.304a67 67 0 0 0-.415-6.995c-.416-2.445-.465-5.16-.979-7.728-.513-2.568-1.002-4.891-1.443-7.337a16.64 16.64 0 0 1-.66-7.337c1.859-.856 2.446.685 3.375 1.688a102.3 102.3 0 0 1 12.082 18.318c.538 1.002.709 2.274 2.054 3.008-.734-8.535-.587-17.12-3.033-25.362h1.492a51.4 51.4 0 0 1 8.903 9.098c3.277 4.892 3.815 9.392 6.187 14.356.489 1.003 3.546 7.019 3.546 7.019a13.4 13.4 0 0 0 2.813 5.65c5.307 9.122 5.307 9.122 10.027 16.973z"/><path fill="#130d0e" d="M272.784 754.8c1.859.88 2.837-.709 3.889-1.565a48.4 48.4 0 0 0 8.437-9.563 197 197 0 0 0 21.057-39.131 121 121 0 0 0 5.674-17.364 2.45 2.45 0 0 1 1.052-1.81c1.174.832 1.052 2.128 1.174 3.326a52.2 52.2 0 0 1-1.785 15.799 89.3 89.3 0 0 0-2.446 17.56 102 102 0 0 0 8.462-15.383 112 112 0 0 0 7.117-17.12 9.64 9.64 0 0 1 1.59 7.117 117 117 0 0 1-1.957 12.962c-.685 4.329-1.467 8.682-1.932 13.158 2.103-1.712 2.641-4.378 3.889-6.603a195 195 0 0 0 3.839-7.191c1.223-2.421 2.275-4.891 3.522-7.337s2.446-4.695 3.913-7.19c2.568 2.03 2.128 4.573 1.81 6.946a260 260 0 0 1-2.275 13.622 28.8 28.8 0 0 1-1.149 6.995c2.446-.954 4.622-4.427 10.198-15.799a160 160 0 0 0 8.365-16.973c1.687.464 1.442 1.467 1.296 2.176a31.8 31.8 0 0 0-.465 7.753c0 5.821-.66 11.568-1.125 17.34 0 .685-.391 1.419.318 1.957-.22-.172-.416-.172-.465 0s0 .244.172.391l.244-.538c1.468-.391 1.59-1.883 2.25-2.911a86.4 86.4 0 0 0 11.348-22.671c.122-.367.367-.562 1.198-.611 1.125 7.141-.318 14.356.294 22.353 4.353-7.973 10.027-14.454 11.617-23.136 2.445 1.639 2.445 1.639 2.445 16.117 1.272-.367 1.786-1.492 2.446-2.446 2.446-2.959 4.72-5.894 6.897-8.975 2.177-3.082 4.353-5.283 4.451-9.025 3.375 2.299 3.473 2.642 4.084 15.922a95.3 95.3 0 0 0 11.25-16.02c4.011 5.625 3.424 11.128 2.666 16.851l-11.25 4.549-52.411 20.788c-.782.318-1.809.392-2.201 1.37v-.122c-4.06.464-5.184 1.369-6.016 4.891a58 58 0 0 0-.587 12.351c.232 2.553.281 5.119.147 7.679a8.8 8.8 0 0 1-7.533 3.008c-17.364.342-34.728.881-52.093 1.321h-8.878a3.8 3.8 0 0 1-3.057-.832c-.929-.929-.195-2.079-.929-2.812h-.122c.758.244 1.027 0 .807-.783.758.245 1.027 0 .807-.783zm36.856-31.794-.171-.245s-.196.196-.171.221a.8.8 0 0 0 .244.244z"/><path fill="#140e0f" d="M628.257 722.738c2.128-2.446 4.305-4.672 6.359-7.068a9.3 9.3 0 0 1 4.06-3.18 97 97 0 0 1-.342 15.408c4.646-4.891 6.798-10.736 11.592-14.478.196-.147.66 0 1.272.146.587 5.625.293 11.275.489 17.634 3.644-6.481 6.261-12.865 11.177-17.805 1.809.514 1.443 1.957 1.492 3.18a165 165 0 0 1-.71 16.655v2.861c5.748-7.484 10.957-14.674 18.343-19.345 2.103 1.1 1.32 2.445.709 3.448a67.8 67.8 0 0 0-6.603 17.829 98.7 98.7 0 0 0-.465 45.979 4.7 4.7 0 0 1 0 2.445 2.99 2.99 0 0 1-3.353 1.072 3 3 0 0 1-1.074-.631c-5.576-4.378-12.399-5.577-18.905-7.655-2.69-.856-5.356-1.761-8.07-2.446-3.669-1.052-6.384-3.693-10.077-5.356 6.286-8.462 10.297-17.364 10.37-27.685a8.6 8.6 0 0 0-3.033-1.712 141.7 141.7 0 0 1-29.348-19.565c-3.717-3.155-6.823-6.775-10.32-10.077-2.177-2.029-3.742-4.744-6.359-6.163a36.7 36.7 0 0 1 6.016-13.377c1.859 0 1.908 1.296 1.859 2.641a69 69 0 0 0 0 10.027c1.761-2.861 2.666-6.31 6.579-6.334 1.492 4.06.391 8.291 1.149 12.766 2.446-3.326 3.913-7.068 7.191-10.223 1.443 5.65-.612 10.615 0 15.922 3.155-4.109 4.891-8.951 9.611-11.275a3.545 3.545 0 0 1 .685 3.889c-.832 3.864-.391 7.801-.881 11.666 0 .269.318.562.49.856-.465-.441-.49 0-.563.293z"/><path fill="#150f10" d="M661.603 684.268c1.076-.293 1.101-1.369 1.492-2.127a89.6 89.6 0 0 1 11.813-17.12c.733-.832 1.247-2.079 3.081-1.981-1.394 7.337-3.913 14.405-3.448 22.011 5.111-7.826 10.076-15.677 17.315-21.742 0 0 .391.171.954.391a144 144 0 0 0-6.261 21.302 82.3 82.3 0 0 1 14.674-17.12c-1.859 6.653-3.351 13.256-5.111 19.908 1.736.147 2.005-1.247 2.616-2.128a130.4 130.4 0 0 1 11.593-14.674c1.198-1.345 1.247-1.296 3.155-1.222-2.152 5.82-2.103 11.959-2.959 18.049 1.247 0 1.369-.808 1.785-1.419a115 115 0 0 1 19.565-23.356c3.033-2.617 3.498-2.886 5.968-3.302.905 1.15 0 2.275-.22 3.302-1.712 5.478-3.522 10.932-5.307 16.41a172.5 172.5 0 0 0-5.552 22.965 40.3 40.3 0 0 0-.245 7.093c0 6.97 0 13.964.538 20.935.294 4.573-1.785 6.138-5.967 4.769a7.7 7.7 0 0 1-.122-3.498c.415-5.576-.807-11.079-.881-16.63a4.5 4.5 0 0 0-1.198-2.446 37.7 37.7 0 0 0-6.726-6.799 17.7 17.7 0 0 1-4.622-5.038c-6.701 0-13.451-.196-20.177-.562a99.2 99.2 0 0 1-20.25-2.935 175 175 0 0 0-18.392-3.375 138 138 0 0 1-15.138-3.375c-1.345-.392-2.862 0-4.256-1.052a36 36 0 0 1 6.97-15.579c2.251 3.18 1.517 6.75 2.96 9.954a110.7 110.7 0 0 1 13.426-20.666c1.052.612 1.003 1.076.856 1.932a105 105 0 0 0-1.932 12.938c-.1.452-.021.925.221 1.32-.832.294-.49.808-.196 1.59l.293-1.492c2.764-3.326 4.403-7.337 6.995-10.81.831-1.149 1.614-2.323 2.446-3.448a1.61 1.61 0 0 1 1.83-.725c.227.065.437.179.615.334a33 33 0 0 1-1.1 6.089c-.71 4.305-1.052 8.658-1.345 13.011 0 .172.269.367.415.563-.929 0-.44.538-.342 1.272z"/><path fill="#10090b" d="M563.428 806.161c0-.66-.172-1.223 0-1.59 3.742-6.652 6.187-13.916 10.1-20.494 8.242-13.818 18.049-26.291 31.354-35.634a42 42 0 0 1 17.266-7.728 19.6 19.6 0 0 1 8.413.244 10.714 10.714 0 0 1 7.998 12.498 38 38 0 0 1-7.655 16.532 103.9 103.9 0 0 1-47.3 35.365 37.9 37.9 0 0 1-13.475 2.568c-2.354.05-4.676-.56-6.701-1.761"/><path fill="#110a0c" d="M350.297 730.491a23.1 23.1 0 0 1 9.612 4.256 37.1 37.1 0 0 1 10.223 9.611c2.079 2.862 4.378 5.577 6.432 8.462 4.109 5.748 8.291 11.446 12.228 17.389a26.5 26.5 0 0 1 3.84 8.682 28.4 28.4 0 0 0 2.446 6.212 32.8 32.8 0 0 1 2.959 13.378c.171 5.307-.22 10.639.367 15.946a2.74 2.74 0 0 1-.954 2.446 3.43 3.43 0 0 1-3.717-.465c-5.356-3.473-11.25-5.968-16.729-9.196a11.4 11.4 0 0 1-4.475-4.891 60 60 0 0 0-5.332-9.563c-1.345-1.834-1.394-4.255-2.764-6.089-3.228-4.354-5.307-9.392-8.339-13.867-2.055-2.96-3.229-6.384-5.503-9.343s-2.275-7.337-3.033-11.152a37.64 37.64 0 0 1 2.03-20.495q.373-.778.856-1.492z"/><path fill="#140e0f" d="M554.552 770.527c3.791-3.889 7.582-7.802 11.69-11.348a11.3 11.3 0 0 1 6.115-3.179 98.4 98.4 0 0 0-7.337 20.274 111 111 0 0 1 15.236-15.261c1.223-1.076 2.446-2.714 5.038-1.589a262 262 0 0 0-23.258 41.233l-1.101.636a2.64 2.64 0 0 1-1.907.294c-1.174-.343-1.81-1.541-2.617-2.446-7.142-8.975-14.356-17.878-21.033-27.22-.342-.465-.636-1.076-1.125-1.321a25.4 25.4 0 0 1-11.005-12.937 61.5 61.5 0 0 1-6.017-28.444 48.6 48.6 0 0 1 4.329-20.568 3.16 3.16 0 0 1 1.247-1.663c3.009.514 3.082.538 5.821 3.4a3.13 3.13 0 0 1-1.565 3.301 30.3 30.3 0 0 0-4.892 5.528 4.89 4.89 0 0 0-1.173 4.646c3.692-1.785 6.187-5.845 11.299-5.698 0 5.65-3.645 10.37-4.036 15.995 2.568-.22 4.06-2.446 6.163-3.498a9.53 9.53 0 0 1 7.166-1.345c-1.467 6.286-4.524 11.886-6.065 18.465 2.445-.685 2.935-2.739 4.231-3.864s2.446-2.446 3.742-3.791 2.763-2.568 4.157-3.84c1.981.685 1.737 1.981 1.272 3.424a75 75 0 0 0-2.861 12.009c-.294 2.054-.416 4.133-.661 6.945 4.892-5.429 8.854-10.712 14.943-13.793-2.127 8.486-4.744 16.728-6.53 25.19-.22.514-.415 1.003.147 1.492z"/><path fill="#110a0c" d="M701.917 704.713a26.5 26.5 0 0 1 12.962 12.228 9.8 9.8 0 0 0-.734 6.065c.392 8.732.685 17.511.563 26.243-.347 4-1.373 7.912-3.033 11.568-2.274 6.089-5.307 11.837-7.337 18.024a7.7 7.7 0 0 1-3.179 4.06c-2.446 1.761-4.891 3.742-7.337 5.454a14.95 14.95 0 0 1-9.783 2.446c-2.641-.196-3.913-1.443-3.815-4.085.318-9.587.636-19.149 1.198-28.712a283 283 0 0 1 4.305-30.106 13 13 0 0 1 3.204-6.848c3.668-4.329 7.019-8.927 10.516-13.402.66-.832 1.516-1.761 2.47-2.935"/><path fill="#120c0d" d="M271.475 756.022c-1.908 1.101-3.596 3.424-6.139.978a2.4 2.4 0 0 1-.342-.905c0-6.016-.123-12.032-.221-18.073a26 26 0 0 1 2.862-11.568c1.932-4.06 3.815-8.12 5.87-12.106a76.6 76.6 0 0 0 6.334-14.943 17.27 17.27 0 0 1 5.478-8.12 120 120 0 0 1 14.209-11.152 51.4 51.4 0 0 0 6.848-5.014c.612-.562 1.223-1.149 2.446-.709a61.2 61.2 0 0 1-2.739 16.068 164 164 0 0 1-16.533 41.161 155 155 0 0 1-15.09 20.543c-.611.734-1.761 1.248-1.54 2.446-.71-.171-.954.122-.808.783-.733-.196-.856.22-.807.782z"/><path fill="#1a1516" d="M627.753 571.133c5.601-5.454 9.783-12.008 16.606-16.117a34.6 34.6 0 0 1-4.157 8.805 106.7 106.7 0 0 0-11.617 23.796 31.63 31.63 0 0 0-.294 18.147 76.3 76.3 0 0 1 2.446 16.802 44.43 44.43 0 0 1-6.677 26.731c-2.446 3.668-4.475 7.508-6.75 11.226-.562.929-.88 2.299-2.446 2.201-.807-.954-.318-1.835 0-2.691 2.006-4.279 3.229-8.877 5.503-13.059a31 31 0 0 0 2.324-8.878 27.57 27.57 0 0 0-.856-17.389 97 97 0 0 0-9.025-16.435 37.25 37.25 0 0 1-7.337-16.312 25.55 25.55 0 0 1 3.106-16.973 60.3 60.3 0 0 1 15.603-17.12 4.43 4.43 0 0 1 3.278-1.492 14.87 14.87 0 0 1-1.59 7.337c1.125.832 1.736 0 2.446-.611 1.614-1.737 3.228-3.473 4.891-5.136.783-.758 1.565-1.835 3.448-1.15-2.201 6.335-7.165 11.593-8.902 18.318"/><path fill="#130d0e" d="M736.854 735.528a4.473 4.473 0 0 1-4.329-4.524 180 180 0 0 1-1.149-20.862 70.4 70.4 0 0 1 1.492-11.934c1.956-9.539 3.448-19.248 7.068-28.321a62.4 62.4 0 0 1 8.804-16.02 2.62 2.62 0 0 1 3.082-1.124 3.57 3.57 0 0 1 2.837 2.836c.469 2.419.723 4.874.758 7.337-.22 8.145-.294 16.289-.685 24.457a97 97 0 0 1-1.443 11.177c-.783 4.5-1.81 8.976-2.592 13.5a80.8 80.8 0 0 1-5.821 16.557 9.8 9.8 0 0 1-3.987 4.354c-1.345.904-2.641 1.687-4.035 2.567"/><path fill="#252020" d="M589.864 267.821c-.758-4.108 1.81-7.337 3.131-10.736a40.57 40.57 0 0 0 1.32-26.071 34.5 34.5 0 0 0-3.106-6.334 25.24 25.24 0 0 1-.293-24.799 6.7 6.7 0 0 0 .685-1.615 14.67 14.67 0 0 1 5.405-8.266 2.03 2.03 0 0 1 .244 1.957 17.12 17.12 0 0 0 2.103 12.937 37.2 37.2 0 0 0 5.038 7.337 92 92 0 0 1 9.147 11.739c8.047 13.011 5.699 27.049-6.163 36.685a45.3 45.3 0 0 1-8.168 5.308c-2.764 1.418-5.528 2.788-8.756 1.394 0 0-.342.244-.538.391zm9.954-9.269a13.7 13.7 0 0 0 5.968-4.231c8.095-9.171 8.364-17.12 4.157-25.019a40.4 40.4 0 0 0-5.234-8.022 55 55 0 0 1-5.038-7.337 50 50 0 0 1-5.282-12.228 20.76 20.76 0 0 0-1.174 12.106 39.1 39.1 0 0 0 4.891 10.956 24.5 24.5 0 0 1 3.326 9.612 55.2 55.2 0 0 1-1.418 21.448c-.196.832-.905 1.712-.171 2.666-.221-.269-.367-.244-.465 0-.098.245.122 0 .171 0 .489.44-.147.318.269.049"/><path fill="#1d1819" d="M642.792 643.036c0-3.498-.905-6.897-.171-10.272 1.272-5.625-.171-11.054-1.198-16.508a95 95 0 0 1-1.076-26.903 19.8 19.8 0 0 1 5.087-10.492c1.125.147 1.125.93 1.296 1.59 1.908 7.337 3.913 14.821 5.698 22.28a26.4 26.4 0 0 1-.171 15.09c-1.785 5.136-2.617 10.492-4.206 15.652a22.6 22.6 0 0 1-5.259 9.563"/><path fill="#1c1617" d="M506.083 466.212a13.15 13.15 0 0 1-.244-7.68c.231-.918.534-1.818.905-2.69 5.722-14.454 2.445-27.587-5.895-39.938a122.5 122.5 0 0 0-20.396-21.693 164 164 0 0 1-21.204-21.424 56.5 56.5 0 0 1-11.837-25.508 47 47 0 0 1-.563-13.133c.587-5.307.807-10.615.929-15.946a41.6 41.6 0 0 1 3.791-13.794c1.59.587.978 1.712 1.052 2.446.017 3.271.237 6.539.66 9.783 1.516 8.07 6.212 14.258 11.421 20.103a38.7 38.7 0 0 0 8.047 7.19c4.28 2.764 8.144 6.09 12.497 8.731a62.5 62.5 0 0 1 9.073 6.775 43 43 0 0 0 3.914 3.057 100.5 100.5 0 0 1 23.674 22.843 35.24 35.24 0 0 1 6.383 31.182c-.905 3.424-1.59 6.921-2.69 10.296a193 193 0 0 1-14.919 34.509 11.7 11.7 0 0 1-4.598 4.891m13.28-39.375a58 58 0 0 1 2.446-10.981c3.155-10.272.489-19.395-5.527-27.759-7.337-10.321-17.707-17.682-27.539-25.41-8.07-6.335-16.948-11.568-24.823-18.221a32.7 32.7 0 0 1-9.196-10.32c-.318-.685-.856-1.517-1.883-.856a.85.85 0 0 0 0 1.002 68 68 0 0 0 6.848 11.446c8.34 11.421 19.296 20.47 28.052 31.5q.143.113.269.245a152 152 0 0 1 12.057 13.891c4.084 5.356 8.022 10.81 11.886 16.313a29.97 29.97 0 0 1 6.481 16.924c-.098.758-.318 1.688.929 2.274z"/></svg>