<svg width="1024" height="1024" viewBox="0 0 1024 1024" fill="none" xmlns="http://www.w3.org/2000/svg">
<rect width="1024" height="1024" fill="black"/>
<path d="M369.91 655.213C367.806 633.325 368.1 611.363 368.002 589.425C367.779 584.32 368.215 579.207 369.298 574.213C369.469 576.047 369.665 577.881 369.763 579.716C370.423 592.335 370.57 605.004 371.866 617.526C373.162 630.048 374.899 641.982 374.972 654.211C374.972 655.556 374.972 656.901 374.972 658.564L371.499 656.852L369.91 655.213Z" fill="black"/>
<path d="M553.045 460.612C553.314 464.623 553.534 467.656 553.73 470.786C557.912 474.993 561.997 479.321 566.301 483.406C576.94 493.482 584.374 505.833 591.198 518.574C592.94 522.315 594.42 526.172 595.624 530.118C600.687 544.156 605.97 558.121 610.69 572.257C614.528 584.173 617.648 596.309 620.032 608.6C622.894 622.638 620.693 636.651 621.451 650.641C621.398 652.575 620.749 654.446 619.592 655.997C612.458 666.352 603.236 675.099 592.518 681.676C586.062 685.663 579.776 683.437 574.127 679.842C569.382 676.834 565.127 673.019 560.725 669.595L559.746 671.649C559.428 671.404 558.817 671.111 558.866 670.915C559.331 668.225 557.496 666.807 555.907 665.217C548.056 657.44 540.45 649.369 532.282 641.959C526.216 636.48 522.108 629.486 516.556 623.64C512.643 619.532 509.219 614.812 505.379 610.63C501.855 606.724 498.68 602.518 495.89 598.059C493.616 594.659 491.904 590.917 489.287 586.075C488.969 592.605 488.162 597.79 489.996 602.926C490.259 603.717 490.415 604.539 490.461 605.371C491.121 614.909 491.683 624.423 492.393 633.937C492.784 639.513 493.42 645.04 493.909 650.616C494.018 651.35 493.979 652.098 493.794 652.816C493.609 653.535 493.283 654.208 492.833 654.798C491.512 646.508 490.241 638.217 488.871 629.95C486.694 616.842 483.98 603.782 482.414 590.575C481.436 582.553 480.409 574.58 478.746 566.681C477.89 561.847 476.655 557.087 475.053 552.447C469.452 538.018 469.623 523.099 470.479 508.034C470.748 503.142 473.732 498.251 476.227 493.702C479.455 488.488 480.929 482.377 480.433 476.264C480.086 473.728 480.144 471.152 480.605 468.634C481.638 463.877 483.282 459.274 485.496 454.938V479.542L497.871 470.493V441.145H498.849V469.392C500.61 469.392 502.151 470.101 503.203 469.637C511.396 465.919 520.151 465.332 528.907 464.745C536.184 464.389 543.421 466.021 549.841 469.465L553.045 460.612Z" fill="black"/>
<path d="M657.051 495.756C657.614 510.87 659.301 526.082 658.396 541.123C657.517 552.056 657.272 563.031 657.663 573.993C658.592 590.892 658.934 607.768 658.788 624.692C658.857 626.844 658.499 628.988 657.736 631.001C656.978 622.393 657.149 613.564 655.29 605.249C653.48 597.52 655.29 589.547 652.551 582.015C652.182 580.071 652.132 578.08 652.404 576.121C652.404 567.047 651.768 557.9 652.6 548.925C653.627 537.675 653.578 526.449 654.165 515.223C654.483 508.84 655.633 502.506 656.44 496.147L657.051 495.756Z" fill="black"/>
<path d="M432.899 627.088C442.487 659.151 441.63 692.705 444.639 726.015C438.476 724.328 438.133 723.985 437.864 719.314C437.253 708.969 437.326 698.526 435.932 688.279C434.147 675.096 434.856 661.914 434.294 648.732C434.147 645.137 433.193 641.591 432.973 638.02C432.753 634.449 432.899 630.732 432.899 627.088Z" fill="black"/>
<path d="M417.593 606.156C418.082 612.76 418.767 619.363 418.987 625.966C419.28 634.991 418.693 644.064 419.354 653.064C420.308 665.659 420.503 678.279 421.261 690.85C421.628 696.915 422.484 702.931 422.46 710.415L416.394 706.306C416.129 705.6 415.924 704.872 415.783 704.13C415.783 699.899 415.783 695.668 415.661 691.437C415.172 678.255 414.365 665.097 414.071 651.939C413.729 636.727 413.337 621.588 417.593 606.156Z" fill="black"/>
<path d="M643.356 489.69C641.155 466.823 638.93 443.98 636.68 420.648L649.788 426.445L644.506 489.616L643.356 489.69Z" fill="black"/>
<path d="M464.105 479.394C461.341 459.829 458.773 441.78 456.156 423.437L466.77 417.959C467.357 426.69 468.849 434.516 468.165 442.122C467.284 451.905 467.015 461.688 466.648 471.47C466.111 474.201 465.257 476.861 464.105 479.394Z" fill="black"/>
<path d="M556.531 400.352H565.189C565.576 405.617 565.658 410.9 565.434 416.175C565.434 421.556 565.434 426.912 565.434 432.292C565.434 437.672 565.678 443.053 565.287 448.409C564.895 453.765 563.893 458.828 562.841 465.529C559.087 443.995 556.977 422.206 556.531 400.352Z" fill="black"/>
<path d="M619.974 743.529H610.533C605.764 736.339 608.626 728.488 609.946 721.078C611.634 711.637 614.667 702.417 617.283 692.17C619.362 701.366 617.65 709.901 619.24 718.363C620.83 726.825 619.631 735.287 619.656 743.774L619.974 743.529Z" fill="black"/>
<path d="M538.977 689.723C542.376 710.022 545.556 728.853 548.759 748.419H539.857C540.518 729.196 536.507 710.266 538.977 689.723Z" fill="black"/>
<path d="M459.325 628.457C461.062 656.142 462.138 681.993 461.502 707.868C461.502 708.382 461.086 708.871 460.573 709.996C456.586 683.069 454.923 656.729 459.325 628.457Z" fill="black"/>
<path d="M608.996 504.191C610.243 512.066 612.004 519.917 612.64 527.841C613.275 535.765 612.762 544.129 612.762 552.493C611.307 552.165 610.017 551.331 609.121 550.139C608.225 548.948 607.782 547.476 607.871 545.988C607.871 532.194 607.871 518.425 607.871 504.656L608.996 504.191Z" fill="black"/>
<path d="M475.329 741.984C475.011 739.783 471.709 740.175 471.807 737.093C472.149 723.593 471.954 710.191 472.834 696.568C474.839 711.438 476.82 726.332 478.875 741.667L475.231 741.984H475.329Z" fill="black"/>
<path d="M528.747 705.885C527.94 697.007 526.962 688.129 526.424 679.227C526.033 673.015 526.302 666.754 526.204 660.517C526.204 656.507 525.959 652.496 525.812 648.289C526.99 648.773 527.979 649.626 528.631 650.719C529.284 651.813 529.565 653.088 529.432 654.354C529.603 671.474 529.432 688.74 529.432 705.934L528.747 705.885Z" fill="black"/>
<path d="M453.813 611.363C452.126 600.382 453.813 590.526 455.941 580.719C456.968 590.648 457.482 600.578 453.813 611.363Z" fill="black"/>
<path d="M354.911 670.01C342.683 670.01 330.65 665.779 318.373 665.852C295.334 665.974 274.35 682.042 263.981 702.684C253.611 723.325 253.024 747.684 257.573 770.282L344.688 776.25C348.723 787.622 352.857 799.19 359.925 808.948C366.993 818.706 377.582 826.655 389.615 827.706C401.648 828.758 413.216 822.815 423.854 817.19L495.659 779.013C503.192 775.027 511.776 770.918 519.847 773.559C531.293 777.277 534.521 791.511 541.736 801.147C551.641 814.427 570.252 818.951 586.54 815.821C602.829 812.69 617.185 803.348 630.22 793.1C632.511 790.936 635.34 789.424 638.413 788.722C641.699 788.614 644.945 789.464 647.756 791.168C658.883 796.573 670.525 802.002 682.924 802.149C689.502 802.216 696.007 800.766 701.934 797.91C707.86 795.055 713.049 790.873 717.097 785.687C721.144 780.501 723.942 774.452 725.273 768.01C726.604 761.568 726.432 754.905 724.77 748.54C734.259 750.521 744.188 745.532 750.4 738.073C756.612 730.613 759.694 721.1 761.92 711.635C766.005 694.184 767.57 676.238 766.566 658.344C766.611 655.96 766.073 653.601 765.001 651.471C762.262 646.947 755.977 646.58 750.718 646.58C703.172 647.728 655.753 652.017 608.772 659.42C566.021 666.097 522.929 675.366 479.909 670.792C466.067 669.325 452.395 666.439 438.553 665.069C422.842 663.842 407.069 663.588 391.327 664.311L345.03 665.583" fill="white"/>
<path d="M354.904 663.898C337.173 663.213 320.2 656.879 302.542 662.039C289.281 666.091 277.503 673.949 268.669 684.637C248.175 708.947 246.071 741.842 251.672 771.899C252.036 773.185 252.808 774.319 253.87 775.13C254.933 775.941 256.229 776.386 257.566 776.399L344.681 782.366L338.787 777.891C348.3 804.549 364.955 838.788 399.195 833.359C417.342 830.497 434.315 818.685 450.236 810.125L477.701 795.451C486.799 790.559 499.003 781.119 509.25 779.627C528.302 776.864 530.552 799.706 541.875 810.247C551.536 819.247 565.329 823.185 578.316 822.793C594.726 822.28 610.109 814.943 623.341 805.796C626.055 803.937 628.697 801.956 631.313 799.951C637.99 794.913 643.224 795.867 650.341 799.144C658.205 803.095 666.586 805.919 675.238 807.532C710.749 812.888 737.945 781.217 730.73 746.929L724.836 754.804C759.907 758.986 769.029 715.673 771.891 689.773C773.187 677.887 777.736 654.164 767.342 645.042C756.948 635.92 734.521 641.104 722.268 641.716C682.946 643.686 643.759 647.768 604.876 653.944C564.375 660.352 523.41 669.01 482.225 664.974C459.627 662.773 437.739 658.077 414.945 657.955C391.638 657.833 368.282 658.982 344.974 659.618C337.124 659.838 337.075 672.067 344.974 671.847C366.692 671.26 388.458 670.306 410.2 670.183C432.211 670.061 453.489 673.779 475.304 676.444C516.025 681.336 556.574 674.17 596.658 667.591C639.81 660.429 683.344 655.799 727.037 653.724C735.328 653.357 755.798 648.833 760.543 658.615C763.82 665.317 760.543 682.705 759.687 689.896C757.437 709.608 751.983 745.95 724.86 742.698C720.654 742.184 718.233 746.978 718.966 750.426C724.151 775.152 705.491 798.337 679.836 795.989C668.145 794.937 658.754 788.774 648.042 784.788C642.686 782.807 637.966 782.048 632.585 784.543C624.563 788.26 617.911 795.451 610.33 800.024C601.248 805.914 590.911 809.592 580.15 810.761C571.224 811.54 562.282 809.458 554.617 804.818C547.036 799.926 543.734 792.418 539.405 784.885C533.022 773.758 524.046 765.124 510.253 767.179C500.984 768.573 492.473 774.1 484.353 778.404L454.638 793.934L425.07 809.636C415.287 814.82 404.967 821.301 393.619 821.668C368.306 822.524 357.472 793.934 350.575 774.614C350.187 773.341 349.409 772.223 348.352 771.415C347.294 770.608 346.01 770.153 344.681 770.114L257.566 764.146L263.46 768.622C258.569 741.719 260.379 711.515 279.724 690.507C288.136 681.025 299.518 674.679 312.007 672.507C326.265 670.379 340.621 675.539 354.904 676.102C362.779 676.395 362.754 664.167 354.904 663.874V663.898Z" fill="white"/>
<path d="M357.262 681.115C343.175 665.579 332.82 647.031 326.989 626.887C321.157 606.742 320.001 585.531 323.609 564.872C328.012 540.734 338.503 513.953 325.15 493.361L337.696 493.557C333.575 486.127 331.225 477.846 330.83 469.358C330.435 460.871 332.005 452.408 335.419 444.627C338.832 436.846 343.996 429.959 350.508 424.502C357.021 419.046 364.705 415.166 372.963 413.167C390.621 408.887 409.037 413.51 426.89 416.885C458.759 422.882 491.253 424.878 523.616 422.828C556.095 420.773 589.16 414.659 620.832 422.167C629.489 424.197 641.865 425.224 644.017 416.616C644.922 413.07 643.332 409.425 643.063 405.781C642.794 402.137 645.093 397.564 648.712 398.102C650.315 398.491 651.727 399.436 652.699 400.768C670.748 420.651 667.569 451.246 663.264 477.758L685.984 452.445C688.131 474.377 683.884 496.461 673.756 516.032C671.653 520.068 669.256 524.176 669.06 528.725C669.214 532.933 670.353 537.046 672.387 540.734C680.311 558 689.213 575.12 692.93 593.756C696.648 612.392 694.398 633.302 681.974 647.56C671.433 659.789 655.071 665.561 639.174 667.933C623.277 670.305 606.94 669.743 590.921 671.87C570.842 674.536 551.57 681.36 531.785 685.737C478.787 697.452 423.662 691.362 369.881 684.294C363.621 683.463 357.042 682.485 352.175 678.474C347.308 674.463 345.302 666.245 349.729 661.868" fill="white"/>
<path d="M361.588 676.786C338.278 650.81 326.12 616.709 327.739 581.845C329.231 551.372 347.305 519.334 330.381 490.279L325.098 499.475L337.644 499.671C338.712 499.649 339.755 499.352 340.674 498.808C341.592 498.264 342.354 497.492 342.886 496.566C343.418 495.641 343.701 494.593 343.708 493.526C343.715 492.459 343.446 491.408 342.927 490.475C332.924 470.763 335.786 446.771 352.147 431.314C370.123 414.194 393.724 416.787 416.248 421.042C456.932 428.993 498.528 431.215 539.828 427.646C560.641 425.811 581.649 423.39 602.535 425.347C614.763 426.472 633.375 434.665 644.649 425.983C646.571 424.447 648.09 422.467 649.075 420.213C650.059 417.958 650.479 415.498 650.299 413.045C650.299 412.433 649.247 404.901 648.342 405.072C650.984 404.583 656.633 419.086 657.196 420.749C662.968 438.455 660.155 458.168 657.196 476.119C656.34 481.573 662.919 487.075 667.419 482.062L690.115 456.774L679.916 452.445C681.75 475.41 676.761 495.415 666.856 516.032C658.419 533.568 669.131 547.655 676.296 563.821C685.345 584.217 693.098 607.843 685.248 629.854C676.688 653.968 651.302 661.232 628.215 663.188C607.06 664.973 586.638 665.634 565.899 670.794C543.081 676.468 520.947 682.876 497.42 685.004C474.261 686.866 450.986 686.784 427.841 684.759C416.199 683.854 404.558 682.631 392.966 681.237C387.561 680.601 345.837 678.523 354.984 665.12C359.435 658.59 348.846 652.476 344.443 658.933C336.568 670.476 344.443 683.389 356.329 687.743C364.107 690.677 373.229 690.995 381.397 692.047C392.966 693.514 404.582 694.884 416.199 695.985C459.83 700.118 503.412 699.726 546.04 688.648C567.586 683.071 588.277 677.691 610.63 676.419C628.679 675.416 647.095 674.756 663.946 667.541C697.916 652.867 706.06 616.818 696.742 583.582C693.63 573.283 689.722 563.241 685.052 553.549C682.606 548.291 679.574 543.032 677.715 537.603C673.973 527.062 676.932 523.834 680.943 515.396C690.153 495.764 694.016 474.049 692.144 452.445C691.729 447.553 685.517 443.885 681.701 448.116L658.932 473.551L669.155 479.494C673.117 454.475 679.28 412.923 655.215 394.849C646.924 388.637 637.753 394.849 637.068 404.485C636.823 407.958 638.242 410.722 636.75 414.121C634.671 419.012 630.147 417.765 625.157 416.958C616.035 415.491 607.255 413.485 597.986 412.874C556.997 410.257 516.227 419.404 475.067 416.885C453.178 415.539 432.072 411.308 410.525 407.689C393.919 404.925 377.02 403.971 361.294 410.917C327.935 425.591 316.343 465.064 332.411 496.76L337.693 487.564L325.147 487.369C324.079 487.387 323.034 487.683 322.115 488.227C321.196 488.771 320.434 489.545 319.903 490.472C319.373 491.399 319.093 492.448 319.091 493.516C319.088 494.584 319.363 495.635 319.889 496.565C329.916 513.88 324.169 533.519 320.133 551.763C316.181 567.83 314.77 584.418 315.951 600.921C318.825 632.391 331.806 662.085 352.954 685.566C358.213 691.436 366.821 682.753 361.588 676.908V676.786Z" fill="white"/>
<path d="M347.307 288.775C341.664 308.327 342.995 329.234 351.073 347.912C353.186 353.364 356.476 358.283 360.709 362.317C366.188 367.208 373.671 369.654 378.269 375.254C380.715 378.165 382.085 381.76 384.212 384.866C390.375 393.817 402.628 399.736 403.044 410.594C406.236 401.492 407.235 391.764 405.96 382.203C404.685 372.641 401.172 363.515 395.707 355.567C390.956 349.336 385.748 343.467 380.128 338.007C367.051 324.224 355.611 308.976 346.035 292.566" fill="white"/>
<path d="M345.907 288.362C339.988 310.716 341.016 338.597 354.956 358.064C357.563 361.545 360.767 364.534 364.421 366.893C371.453 371.241 377.44 377.087 381.956 384.013C387.997 393.38 399.981 399.274 401.522 410.915C401.742 412.529 403.967 412.211 404.456 410.915C407.724 401.289 408.637 391.021 407.118 380.97C405.599 370.919 401.692 361.378 395.725 353.148C389.22 344.344 380.905 337.007 373.714 328.692C363.838 317.229 354.999 304.911 347.301 291.884C347.073 291.586 346.744 291.381 346.375 291.308C346.007 291.235 345.625 291.299 345.3 291.488C344.976 291.678 344.731 291.979 344.614 292.336C344.496 292.692 344.512 293.08 344.66 293.425C355.524 311.459 368.406 328.197 383.057 343.317C401.081 362.173 409.959 384.38 401.595 410.181H404.53C403.478 402.575 398.88 397.953 393.598 392.719C386.578 385.822 382.739 376.309 375.108 370.244C369.997 366.184 363.834 363.665 359.358 358.773C354.076 353.026 351.043 344.686 348.915 337.349C344.448 321.606 344.406 304.936 348.793 289.17C348.9 288.78 348.848 288.365 348.648 288.014C348.449 287.663 348.118 287.406 347.729 287.299C347.34 287.192 346.924 287.244 346.573 287.443C346.222 287.643 345.965 287.973 345.858 288.362H345.907Z" fill="white"/>
<path d="M379.36 245.026C389.24 259.488 399.749 273.461 410.885 286.945C413.483 289.778 415.68 292.954 417.415 296.385C419.096 300.655 419.879 305.226 419.713 309.812C419.784 325.951 415.564 341.819 407.485 355.79C406.785 350.508 405.764 345.272 404.428 340.114C397.238 314.361 374.933 293.45 373.588 266.743C372.868 258.671 375.227 250.625 380.191 244.219" fill="white"/>
<path d="M378.041 245.808C388.875 261.338 401.421 275.45 412.084 290.931C424.9 309.469 416.242 336.861 406.313 355.032L409.101 355.399C406.215 336.836 399.318 322.382 390.122 306.241C379.851 288.167 367.329 264.395 381.66 245.099C382.834 243.509 380.168 241.993 379.019 243.558C368.331 258.012 371.927 276.404 378.897 291.689C388.875 313.725 402.302 331.554 406.166 356.157C406.362 357.478 408.367 357.6 408.954 356.524C417.734 340.48 424.533 319.276 420.424 300.836C418.492 292.08 411.938 285.795 406.508 279.045C397.459 267.746 388.9 256.129 380.682 244.219C379.582 242.605 376.916 244.219 378.041 245.759V245.808Z" fill="white"/>
<path d="M497.757 195.06C511.012 204.623 510.988 219.639 510.278 235.976C510.328 239.063 509.542 242.105 508.004 244.781C506.358 246.936 504.306 248.747 501.963 250.112C481.053 264.224 460.191 278.922 443.634 297.925C427.077 316.928 414.995 340.896 414.751 366.086C414.39 375.591 416.497 385.028 420.865 393.478C425.046 400.429 430.566 406.48 437.104 411.282C442.484 415.513 448.281 419.328 452.561 424.66C466.501 442.122 459.702 469.587 472.664 487.807C482.838 502.09 502.012 506.321 519.474 507.911C551.489 510.843 583.766 508.672 615.1 501.479C616.962 501.435 618.753 500.756 620.176 499.555C621.599 498.354 622.57 496.703 622.926 494.875C637.859 451.068 647.098 405.524 650.415 359.361C651.125 349.578 651.516 339.404 648.459 330.013C643.421 314.556 629.945 303.599 617.13 293.572L582.89 266.67C586.388 285.037 602.651 298.072 610.502 315.045C620.04 335.589 616.396 359.532 612.556 381.836C603.434 376.945 597.76 367.162 595.632 357.111C593.505 347.059 594.483 336.542 595.828 326.32C579.54 338.548 576.458 361.342 574.673 381.616C563.27 374.311 553.058 365.295 544.396 354.885C539.896 350.033 536.647 344.157 534.931 337.765C533.586 331.358 535.371 323.923 540.703 320.156C549.605 313.871 561.76 320.45 572.619 319.692C576.77 319.376 580.765 317.97 584.2 315.617C587.636 313.264 590.389 310.047 592.184 306.29C585.612 308.717 578.743 310.247 571.763 310.838C567.085 311.626 562.282 310.622 558.311 308.026C541.607 295.015 553.567 298.439 553.64 292.985C553.874 272.215 559.458 251.856 569.855 233.873C563.417 235.191 557.379 238.002 552.225 242.079C547.071 246.156 542.947 251.386 540.182 257.347C537.418 263.309 536.091 269.836 536.309 276.404C536.527 282.971 538.283 289.396 541.436 295.162C530.944 292.545 519.792 298.243 512.846 306.534C505.901 314.825 502.33 325.366 498.882 335.613C497.194 335.784 496.191 333.779 495.751 332.14C491.224 315.116 493.431 297.002 501.914 281.564C507.735 271.096 516.197 262.365 522.776 252.387C526.102 247.349 528.963 241.993 531.8 236.661C533.816 233.573 534.918 229.979 534.98 226.292C534.568 223.573 533.483 221.001 531.825 218.808C526.895 211.517 520.368 205.446 512.74 201.056C505.112 196.665 496.583 194.071 487.803 193.471" fill="white"/>
<path d="M496.693 196.135C507.161 204.646 512.639 222.597 508.775 235.975C504.397 251.065 485.125 259.502 473.411 268.527C452.794 284.399 433.742 303.207 422.59 327.223C413.736 346.226 408.869 370.609 417.698 390.566C421.758 399.737 428.679 406.487 436.359 412.724C443.378 418.422 450.617 423.118 454.995 431.384C457.929 437.619 459.853 444.281 460.693 451.121C464.239 472.007 466.636 491.866 487.742 502.04C509.338 512.434 537.438 511.578 560.697 510.526C573.049 509.964 585.356 508.666 597.553 506.638C605.673 505.292 618.561 505.317 623.55 497.637C626.314 493.431 627.219 487.048 628.735 482.23C631.034 474.876 633.17 467.474 635.143 460.023C639.105 445.137 642.423 430.096 645.097 414.9C647.771 399.705 649.809 384.297 651.211 368.677C652.458 354.639 654.195 339.623 648.643 326.245C643.947 314.946 634.874 306.215 625.629 298.535C612.056 287.261 597.871 276.671 584.053 265.788C583.806 265.602 583.509 265.495 583.201 265.479C582.893 265.464 582.587 265.542 582.323 265.703C582.06 265.864 581.85 266.1 581.723 266.381C581.595 266.662 581.555 266.975 581.607 267.28C587.648 292.91 611.371 308.416 614.55 335.587C615.382 343.261 615.382 351.001 614.55 358.674C614.159 362.808 614.55 369.484 612.667 373.202C610.784 376.919 612.154 379.536 607.042 375.867C593.028 365.718 595.743 341.212 597.528 326.538C597.7 325.071 595.816 324.729 594.912 325.462C584.909 333.704 579.602 344.905 576.74 357.403C575.493 362.881 575.835 369.778 573.977 374.987C572.265 379.878 573.194 378.558 568.939 375.941C563.962 372.543 559.355 368.633 555.194 364.275C547.343 356.669 536.582 346.348 536.118 334.731C535.653 323.114 547.466 318.541 557.419 319.813C560.061 320.155 562.653 320.791 565.295 321.084C577.523 322.405 587.306 318.125 593.493 307.266C593.643 307.002 593.712 306.7 593.69 306.397C593.669 306.094 593.559 305.804 593.373 305.564C593.188 305.323 592.935 305.143 592.648 305.046C592.36 304.948 592.05 304.938 591.757 305.016C581.974 308.318 559.792 315.362 553.555 302.228C550.18 295.087 554.216 299 554.998 294.182C556.417 285.109 556.246 276.035 558.447 266.962C561.229 255.672 565.567 244.824 571.335 234.728C571.474 234.463 571.533 234.164 571.507 233.866C571.481 233.568 571.369 233.284 571.187 233.047C571.004 232.811 570.758 232.631 570.476 232.53C570.195 232.429 569.89 232.411 569.599 232.478C540.96 239.815 527.436 269.505 540.251 296.065L541.987 293.815C523.645 290.856 510.463 304.038 503.37 319.715C502.759 321.06 502.196 322.454 501.658 323.824C500.411 326.93 500.753 332.506 497.647 329.742C493.636 326.171 494.933 313.332 495.397 308.416C496.938 292.128 504.789 279.068 514.498 266.448C523.156 255.174 542.232 235.168 534.308 219.98C525.601 203.252 505.987 193.861 488.011 192.124C486.03 191.929 486.055 194.986 488.011 195.181C497.736 195.98 507.109 199.191 515.281 204.524C526.433 211.861 534.088 221.643 530.566 236.048C527.044 250.453 511.881 263.416 503.835 275.766C497.015 286.077 493.002 297.988 492.193 310.324C491.753 317.44 490.677 333.117 498.234 337.006C498.437 337.118 498.663 337.182 498.894 337.195C499.126 337.207 499.357 337.167 499.571 337.078C499.785 336.989 499.976 336.852 500.13 336.679C500.284 336.505 500.397 336.299 500.46 336.076C506.696 317.709 516.944 292.788 541.156 296.701C541.448 296.773 541.754 296.758 542.037 296.658C542.32 296.558 542.568 296.377 542.75 296.138C542.932 295.899 543.04 295.612 543.061 295.312C543.082 295.012 543.015 294.713 542.868 294.451C539.976 288.867 538.404 282.695 538.273 276.408C538.141 270.121 539.454 263.888 542.109 258.188C544.764 252.488 548.691 247.473 553.588 243.529C558.485 239.585 564.222 236.816 570.357 235.437L568.621 233.187C561.33 245.913 556.299 259.806 553.751 274.25C552.626 280.975 553.262 288.924 550.523 295.136C550.082 296.139 548.077 296.359 548.077 297.826C547.808 302.717 554.02 307.438 557.591 309.565C568.009 315.851 582.047 311.595 592.637 307.976L590.901 305.726C583.906 318.101 573.023 319.03 560.159 317.171C555.774 316.168 551.253 315.903 546.781 316.389C543.205 317.032 539.939 318.829 537.483 321.506C535.027 324.183 533.516 327.592 533.183 331.21C530.346 352.731 558.593 372.786 573.928 383.033C574.161 383.165 574.424 383.234 574.691 383.233C574.959 383.232 575.222 383.161 575.454 383.028C575.686 382.895 575.879 382.703 576.014 382.473C576.15 382.242 576.223 381.98 576.227 381.713C578.036 362.001 580.702 340.894 596.942 327.492L594.325 326.416C591.879 347.278 591.879 370.952 611.811 383.253C612.014 383.366 612.24 383.431 612.472 383.445C612.704 383.459 612.936 383.422 613.151 383.335C613.366 383.248 613.56 383.115 613.717 382.944C613.875 382.774 613.992 382.57 614.061 382.349C617.607 361.487 621.398 339.036 613.645 318.614C606.504 299.611 589.189 286.478 584.297 266.35L581.852 267.842C592.645 276.288 603.431 284.734 614.208 293.179C624.455 301.201 635.608 309.468 642.48 320.767C656.445 343.731 647.689 379.952 643.727 404.849C639.362 432.28 632.894 459.336 624.382 485.776C621.618 494.385 619.001 498.175 610.246 501.086C604.333 502.691 598.295 503.796 592.197 504.388C577.221 506.64 562.096 507.76 546.952 507.738C522.74 507.738 486.128 508.276 472.09 484.162C461.892 466.626 467.199 443.979 455.924 426.811C449.883 417.566 439.807 412.577 432.03 405.044C419.973 393.305 415.473 378.851 416.427 362.221C417.918 335.758 432.397 311.595 450.421 292.91C461.172 282.085 472.886 272.262 485.419 263.562C493.27 257.937 506.941 252.459 510.658 242.97C516.675 227.489 511.588 204.499 498.846 194.056C497.329 192.809 495.153 194.961 496.693 196.209V196.135Z" fill="white"/>
<path d="M595.629 194.744C593.664 199.032 592.25 203.552 591.422 208.195C590.297 217.538 595.262 211.277 596.509 235.831C597.463 255.054 597.463 255.054 594.064 263.957C597.224 263.637 600.27 262.601 602.97 260.927C605.669 259.253 607.951 256.985 609.643 254.296C612.992 248.868 614.588 242.541 614.216 236.174C614.197 232.281 613.321 228.439 611.648 224.924C609.08 220.032 604.482 216.339 601.327 211.717C598.206 206.475 596.014 200.733 594.846 194.744" fill="white"/>
<path d="M594.167 194.229C589.985 204.721 589.276 209.368 592.578 219.053C597.029 231.966 597.469 250.553 592.578 263.442C592.113 264.665 593.433 265.496 594.461 265.325C607.374 263.295 614.809 252.51 615.665 239.89C616.291 233.337 614.716 226.763 611.189 221.205C608.743 217.439 605.124 214.577 602.629 210.835C599.614 205.709 597.481 200.112 596.319 194.278C596.188 193.911 595.922 193.608 595.575 193.429C595.229 193.251 594.828 193.21 594.452 193.315C594.077 193.421 593.756 193.664 593.553 193.997C593.35 194.33 593.281 194.728 593.36 195.11C594.596 201.193 596.836 207.028 599.988 212.376C605.173 220.178 612.216 225.803 612.681 236.075C613.039 242.175 611.51 248.238 608.303 253.439C609.159 252.167 598.251 264.762 596.295 262.219C596.295 262.072 598.423 253.757 598.52 252.73C599.618 241.479 598.69 230.123 595.781 219.2C592.822 209.784 593.067 205.382 597.126 195.159C597.836 193.349 594.901 192.542 594.167 194.352V194.229Z" fill="white"/>
<path d="M589.788 267.747C590.032 269.435 591.475 270.193 592.527 271.22C595.977 274.569 599.745 277.575 603.777 280.196C609.067 283.312 614.134 286.794 618.94 290.614C624.272 294.894 629.603 299.223 634.788 303.674C639.242 307.584 643.253 311.972 646.747 316.758C647.333 317.521 647.841 318.34 648.264 319.204C651.523 325.347 654.303 331.733 656.579 338.305C658.019 344.049 658.588 349.976 658.266 355.889C658.167 366.885 656.335 377.796 652.837 388.221C672.231 406.197 679.911 427.792 672.256 453.765C673.894 454.474 674.359 453.3 674.995 452.542C678.125 448.824 681.67 445.476 685.56 442.564C687.759 440.725 690.461 439.591 693.313 439.311C695.183 449.164 695.849 459.208 695.294 469.222C694.641 478.405 693.358 487.532 691.454 496.54C689.84 504.537 685.952 511.605 682.772 518.942C681.574 521.64 680.227 524.269 678.737 526.817C678.249 527.632 677.96 528.55 677.892 529.497C677.824 530.445 677.979 531.395 678.345 532.271C679.239 534.576 680.31 536.808 681.549 538.948C684.973 545.013 688.324 551.176 691.723 557.192C695.909 565.277 699.064 573.855 701.115 582.725C703.739 592.676 704.836 602.967 704.367 613.247C703.878 627.114 698.498 639.024 690.647 650.079C690.172 650.638 689.639 651.147 689.057 651.595H676.829C679.043 649.021 681.047 646.273 682.821 643.378C687.101 635.772 691.552 628.264 695.71 620.584C697.076 618.075 697.909 615.311 698.155 612.465C698.958 602.66 697.811 592.793 694.78 583.434C690.647 570.057 683.383 558.537 675.215 547.385C670.766 541.539 666.884 535.283 663.622 528.7C657.024 514.366 655.48 498.218 659.245 482.893C661.69 471.912 664.527 461.029 666.998 450.072C669.401 441.83 669.789 433.132 668.129 424.709C666.469 416.286 662.81 408.386 657.459 401.672C657.386 403.728 657.71 405.779 658.413 407.713C660.288 415.505 660.559 423.597 659.21 431.497C657.86 439.397 654.918 446.94 650.563 453.667C645.989 460.711 641.342 467.705 637.283 475.091C633.281 482.664 630.931 491 630.386 499.548C629.504 508.996 630.392 518.526 633.003 527.649C633.97 530.581 634.126 533.72 633.454 536.734C632.782 539.748 631.308 542.524 629.187 544.768C627.5 546.77 625.237 548.205 622.706 548.877C619.02 550.147 615.417 551.65 611.921 553.377C610.712 553.855 609.479 554.271 608.228 554.624C603.793 555.558 599.744 557.812 596.614 561.091C593.484 564.369 591.42 568.518 590.693 572.991C590.008 576.097 589.69 579.277 589.225 582.432C588.988 585.159 589.313 587.906 590.179 590.502C591.034 594.069 592.196 597.555 593.652 600.921C596.319 606.856 598.36 613.052 599.742 619.41C601.712 627.755 601.288 636.486 598.519 644.601C597.443 647.853 596.22 651.057 595.144 654.383C594.906 655.21 594.477 655.969 593.89 656.598C593.304 657.227 592.577 657.708 591.769 658.003C590.895 656.248 590.596 654.263 590.913 652.329C591.814 645.718 591.023 638.986 588.614 632.764C584.791 622.684 582.236 612.169 581.008 601.459C580.001 592.265 579.838 582.998 580.519 573.774C580.886 567.412 582.069 561.124 584.04 555.065C584.825 553.466 585.082 551.659 584.774 549.904C583.198 551.552 581.849 553.402 580.763 555.407C574.238 566.734 570.414 579.413 569.586 592.459C569.391 595.1 568.07 597.717 569.269 600.285C568.569 601.469 567.505 602.396 566.236 602.926C563 604.429 560.211 606.747 558.141 609.652C553.787 615.106 549.483 620.609 545.105 626.062C541.743 630.36 539.153 635.21 537.45 640.394C536.949 642.794 535.526 644.901 533.488 646.264C532.739 645.214 532.221 644.017 531.968 642.753C531.715 641.488 531.733 640.184 532.021 638.927C534.467 628.948 537.548 619.166 543.491 610.557C544.215 609.479 544.814 608.322 545.277 607.108C547.298 602.292 550.155 597.871 553.714 594.049C557.433 589.3 560.879 584.343 564.035 579.203C565.84 576.041 566.988 572.548 567.41 568.932C569.03 559.821 568.847 550.482 566.872 541.442C565.355 532.809 564.255 524.127 566.334 515.42C567.316 510.052 569.535 504.986 572.815 500.624C574.845 498.178 576.606 495.488 578.489 492.896C580.212 490.967 582.13 489.222 584.212 487.686C583.584 487.335 582.859 487.196 582.146 487.288C581.432 487.381 580.767 487.7 580.25 488.2C573.451 493.091 566.701 498.178 562.029 505.32C557.568 511.817 555.454 519.642 556.037 527.502C557.002 534.676 556.737 541.963 555.255 549.048C552.062 561.178 545.026 571.946 535.2 579.741C528.062 585.607 520.418 590.829 512.358 595.345C503.512 599.931 495.244 605.555 487.73 612.098C481.321 617.792 476.643 625.173 474.23 633.399C473.377 636.229 472.98 639.176 473.056 642.13C473.349 648.538 474.303 654.848 475.061 661.207C475.315 664.085 475.413 666.975 475.355 669.864C472.755 668.328 470.65 666.079 469.289 663.383C458.26 643.818 458.235 623.47 465.303 602.731C468.626 593.25 473.367 584.328 479.366 576.269C481.811 573.04 484.917 570.472 487.216 567.122C490.2 563.159 492.704 558.858 494.676 554.306C495.042 553.377 496.51 552.961 495.947 551.616C495.067 551.078 494.529 551.739 494.284 552.325C493.235 554.452 491.712 556.309 489.833 557.755C487.086 560.522 484.482 563.428 482.031 566.461C475.795 572.967 468.996 578.861 462.319 584.853C460.825 586.207 459.488 587.725 458.333 589.377C457.812 590.172 457.24 590.931 456.621 591.652C449.626 598.989 445.297 608.062 440.7 617.038C435.564 627.114 435.05 637.63 435.295 648.465C435.286 652.821 435.621 657.172 436.297 661.476C435.026 661.94 434.341 661.158 433.632 660.669C427.034 656.058 420.774 650.982 414.898 645.481C407.939 639.57 401.492 633.083 395.626 626.087C389.429 618.92 384.47 610.77 380.952 601.973C379.545 597.6 378.602 593.091 378.139 588.521C376.99 580.328 375.522 572.111 376.721 563.771C376.996 558.942 377.917 554.171 379.46 549.586C379.788 548.796 380.198 548.041 380.683 547.336C381.057 548.175 381.126 549.118 380.878 550.002C379.9 554.673 380.243 559.442 379.656 564.163C378.751 571.72 380.634 578.983 382.664 586.174C383.832 590.501 385.253 594.755 386.919 598.915C389.769 606.046 393.179 612.94 397.118 619.533C397.705 620.511 398.512 620.486 399.294 620.878C399.784 619.948 399.294 619.361 398.952 618.579C394.843 608.234 390.001 598.157 387.58 587.225C387.198 585.683 387.198 584.072 387.58 582.529C391.982 589.867 395.65 597.766 399.955 605.201C404.391 612.652 409.508 619.677 415.24 626.185C416.121 624.497 415.069 623.739 414.482 623.005C408.335 614.042 403.455 604.273 399.979 593.975C399.727 593.54 399.583 593.05 399.562 592.547C399.541 592.045 399.642 591.544 399.857 591.089C407.39 601.019 414.262 611.168 423.286 619.973C423.396 619.2 423.346 618.413 423.14 617.66C422.934 616.907 422.576 616.204 422.088 615.595C419.814 611.486 417.343 607.5 415.02 603.367C413.682 601.474 412.988 599.202 413.039 596.886C419.96 602.388 425.83 608.454 432.286 614.005C433.314 612.88 432.58 612.195 432.066 611.56C429.575 608.111 427.305 604.509 425.267 600.774C424.446 599.491 423.904 598.05 423.678 596.543C428.447 599.429 431.553 604.247 436.86 606.522C437.251 604.467 435.955 603.538 435.221 602.486C431.002 596.772 426.376 591.369 421.379 586.32C410.951 575.464 404.622 561.319 403.476 546.309C402.459 538.305 403.244 530.174 405.775 522.513C410.437 509.998 416.457 498.033 423.727 486.83C429.841 477.415 429.988 467.534 425.879 457.482C425.242 455.957 424.516 454.47 423.702 453.031C422.954 451.435 421.851 450.03 420.478 448.924C419.105 447.818 417.497 447.039 415.778 446.648C410.727 445.463 405.558 444.856 400.37 444.838C392.76 444.879 385.237 443.207 378.359 439.947C373.811 437.501 367.819 430.458 370.582 423.047C371.59 419.246 374.002 415.968 377.332 413.876C379.679 412.451 381.889 410.814 383.936 408.985C385.574 407.664 387.017 406.099 388.533 404.68C388.02 403.824 387.384 404.093 386.895 404.191C374.993 406.489 363.787 411.52 354.161 418.888C344.536 426.256 336.753 435.759 331.427 446.648C329.271 450.953 328.322 455.761 328.679 460.563C329.037 465.364 330.688 469.979 333.457 473.917C335.275 476.844 337.935 479.154 341.087 480.545C345.159 482.416 349.473 483.708 353.903 484.385C355.564 484.479 357.228 484.238 358.794 483.675C368.563 481.261 378.689 480.639 388.68 481.841C396.017 482.575 403.159 489.79 402.547 496.051C402.18 499.792 401.226 503.388 400.493 507.203C400.297 508.254 399.906 509.257 399.612 510.284C399.039 512.227 397.801 513.907 396.115 515.029C390.676 518.602 385.783 522.943 381.588 527.918C378.677 531.464 375.278 534.619 372.123 537.945C366.384 544.106 361.869 551.302 358.818 559.149C355.846 566.871 353.922 574.957 353.096 583.19C352.415 592.039 352.992 600.94 354.808 609.628C355.19 611.228 355.346 612.875 355.272 614.519C354.979 616.965 356.299 619.117 355.981 621.513C355.712 621.513 355.37 621.514 355.346 621.367C352.533 614.519 348.204 608.282 346.248 601.141C344.407 594.892 343.243 588.464 342.775 581.967C342.53 577.858 341.992 573.75 342.139 569.567C342.359 562.72 343.093 555.896 343.509 549.048C344.145 538.581 345.294 527.991 341.723 517.744C338.481 509.188 333.24 501.533 326.438 495.415C325.851 494.852 325.826 494.901 323.796 494.926C325.6 497.71 327.085 500.687 328.223 503.803C329.312 507.186 330.018 510.681 330.326 514.222C331.109 520.426 331.109 526.703 330.326 532.907C329.483 538.036 328.357 543.114 326.951 548.119C324.056 557.978 322.059 568.079 320.984 578.298C319.883 590.649 321.767 602.755 323.625 614.641C325.143 624.041 329.023 632.902 334.9 640.394C339.589 646.16 344.612 651.648 349.941 656.829C353.145 660.131 355.933 663.799 358.892 667.321C359.173 667.654 359.36 668.057 359.433 668.487C359.506 668.917 359.463 669.359 359.308 669.767C359.088 670.402 358.158 670.72 357.033 670.867C353.983 671.239 350.893 671.107 347.886 670.476C345.196 670.022 342.768 668.595 341.063 666.465C336.911 661.454 333.15 656.131 329.813 650.544C328.419 648.098 327.074 645.848 325.508 643.622C321.854 637.963 318.586 632.064 315.726 625.965C313.476 621.66 312.791 616.524 311.446 611.755C310.487 607.972 309.881 604.107 309.636 600.212C309.318 596.25 308.291 592.312 307.997 588.301C307.412 585.042 307.605 581.69 308.56 578.519C308.87 577.496 309.019 576.432 309 575.364C309.642 567.449 311.438 559.671 314.332 552.277C317.384 543.857 319.748 535.204 321.4 526.401C324.652 512.168 320.642 500.013 311.128 489.374C308.731 486.586 306.141 483.971 303.375 481.548C302.939 481.313 302.58 480.958 302.341 480.524C302.103 480.09 301.995 479.596 302.03 479.102C306.09 478.515 310.027 479.934 314.014 480.325C317.87 480.697 321.679 481.451 325.386 482.575C326.046 482.306 326.12 482.11 325.973 481.841C318.294 469.906 318.269 457.238 322.989 444.422C329.177 427.67 340.721 415.27 355.664 405.854C364.077 400.547 370.338 398.15 383.715 394.653C382.621 391.703 381.051 388.952 379.069 386.509C376.401 382.895 373.084 379.81 369.286 377.411C364.417 374.527 359.788 371.255 355.443 367.628C349.338 362.893 344.491 356.728 341.332 349.677C339.424 344.577 338.143 339.263 337.517 333.854C335.413 320.06 337.761 306.707 341.674 293.549C342.873 289.587 344.267 285.698 345.808 280.954C359.528 308.712 379.313 331.066 400.175 353.126C399.785 348.778 398.849 344.497 397.387 340.384C394.22 330.384 390.455 320.583 386.112 311.036C383.984 306.682 381.759 302.353 379.093 298.22C376.684 294.403 375.024 290.162 374.202 285.723C372.973 278.372 372.156 270.958 371.756 263.516C370.925 253.318 374.397 244.709 380.071 236.614C381.878 234.733 383.218 232.454 383.984 229.962C385.501 234.217 384.816 238.252 385.843 242.19C386.827 246.25 388.698 250.042 391.321 253.293C396.751 259.774 403.256 265.106 409.15 271.073C417.679 279.365 423.487 290.051 425.805 301.718C425.805 302.035 425.805 302.451 426.368 302.5C430.403 298.098 433.534 293.011 437.178 288.315C444.869 278.343 454.631 270.157 465.792 264.323C472.396 260.899 479.04 257.565 485.724 254.32C491.577 251.464 496.935 247.691 501.597 243.144C504.791 240.348 507.009 236.606 507.928 232.462C508.848 228.319 508.42 223.989 506.708 220.106C504.162 213.351 500.22 207.209 495.14 202.081C492.279 199.097 489.368 196.113 486.531 193.105C486.227 192.867 485.977 192.567 485.796 192.226C485.615 191.885 485.507 191.51 485.48 191.124C488.512 190.886 491.563 191.159 494.504 191.931C503.694 194.223 512.519 197.787 520.722 202.521C527.067 206.12 532.051 211.706 534.907 218.418C536.638 222.521 537.383 226.972 537.082 231.415C536.78 235.858 535.441 240.169 533.17 244C529.42 250.319 525.185 256.337 520.502 262C518.056 265.13 515.366 268.236 512.578 271.122C504.852 279.546 499.804 290.076 498.075 301.375C496.832 307.676 496.65 314.14 497.537 320.5C498.882 319.767 498.784 318.226 499.224 317.076C501.581 310.501 505.54 304.616 510.744 299.957C514.383 296.742 518.714 294.409 523.4 293.136C528.087 291.864 533.003 291.687 537.768 292.62C537.768 292.62 537.768 292.448 537.597 292.155C530.823 283.326 530.602 273.666 534.149 263.59C537.258 255.227 542.503 247.824 549.361 242.117C555.233 237.156 561.769 233.041 568.779 229.888C570.915 228.891 573.192 228.231 575.529 227.932C576.63 227.809 577.364 227.932 577.828 228.885C577.882 229.373 577.812 229.867 577.624 230.32C577.435 230.773 577.136 231.172 576.752 231.478C568.577 241.184 563.26 252.97 561.393 265.522C560.293 272.052 559.364 278.606 558.239 285.087C557.607 289.306 557.525 293.589 557.994 297.829C558.305 300.148 558.485 302.484 558.532 304.824C569.22 311.623 586.828 311.353 593.97 297.487C593.823 296.337 592.82 295.75 592.16 295.041C585.625 287.566 579.979 279.359 575.334 270.584C573.166 266.236 571.666 261.586 570.883 256.791C570.516 252.71 570.681 248.6 571.372 244.562C571.372 244.073 571.934 243.633 572.375 242.948C575.711 250.693 580.133 257.923 585.508 264.421C586.731 265.937 587.733 267.698 589.763 268.383L589.788 267.747ZM605.44 314.044C605.631 315.22 605.349 316.424 604.657 317.394C603.043 321.063 601.82 324.878 600.426 328.644C595.828 341.093 597.565 353.101 603.655 364.425C605.021 367.456 606.808 370.28 608.962 372.813C610.021 368.6 610.837 364.329 611.407 360.022C613.538 349.946 613.654 339.548 611.75 329.427C610.38 323.46 609.182 317.443 605.44 312.307C603.268 308.303 600.747 304.497 597.907 300.935C597.394 302.329 597.027 303.381 596.636 304.31C595.268 308.503 592.852 312.276 589.616 315.273C586.38 318.269 582.432 320.388 578.146 321.43C572.002 322.748 565.654 322.806 559.486 321.601C556.117 320.953 552.693 320.634 549.263 320.647C540.507 321.038 536.374 325.832 537.206 334.514C537.829 339.598 539.949 344.382 543.296 348.259C549.724 356.459 557.04 363.923 565.111 370.514C566.273 371.742 567.638 372.76 569.146 373.522C569.146 372.226 569.146 371.077 569.146 370.099C569.085 368.917 569.085 367.734 569.146 366.552C570.228 356.471 573.49 346.745 578.706 338.05C583.921 329.355 590.966 321.898 599.35 316.196C601.065 314.787 603.22 314.025 605.44 314.044ZM492.572 195.233C492.792 195.771 492.841 196.065 492.988 196.162C494.235 197.043 495.434 197.923 496.779 198.755C504.43 203.975 510.937 210.698 515.904 218.516C517.981 221.861 518.893 225.799 518.496 229.717C518.015 236.378 515.448 242.719 511.159 247.839C506.967 252.886 502.017 257.25 496.485 260.777C486.696 267.227 477.296 274.251 468.336 281.81C449.7 297.169 436.542 316.049 430.966 339.748C428.52 349.995 426.808 360.414 428.52 371.028C429.265 378.372 432.244 385.312 437.056 390.911C440.707 394.799 444.595 398.458 448.697 401.868C452.879 405.39 457.477 408.275 461.904 411.455C468.33 415.797 473.178 422.103 475.722 429.43C478.136 436.345 480.153 443.392 481.762 450.537C483.915 460.955 484.991 471.569 487.412 481.939C488.211 484.814 488.253 487.847 487.534 490.743C486.703 493.678 484.355 494.559 482.276 492.407C479.404 489.584 476.239 487.075 472.836 484.923C471.784 484.154 470.825 483.268 469.974 482.281C465.021 476.702 461.533 469.979 459.825 462.716C458.238 457.605 457.878 452.193 458.773 446.917C459.632 443.774 459.905 440.499 459.58 437.257C458.626 437.428 458.553 438.088 458.357 438.602C453.175 451.999 450.778 466.312 451.314 480.667C451.323 487.491 453.71 494.098 458.064 499.352C461.096 502.996 464.08 506.689 467.064 510.333C473.276 517.939 477.629 526.377 477.874 536.404C478.448 542.688 477.227 549.007 474.352 554.624C471.453 559.079 468.047 563.182 464.202 566.853C461.593 569.435 458.491 571.464 455.08 572.82C454.765 569.251 453.652 565.797 451.824 562.716C449.995 559.634 447.497 557.002 444.515 555.016C442.024 553.397 439.892 551.282 438.254 548.804C437.56 547.818 436.738 546.93 435.808 546.162C428.337 539.599 422.265 531.597 417.955 522.635C417.516 523.933 417.415 525.322 417.661 526.67C418.394 531.978 420.654 536.957 424.167 541.002C427.517 544.842 430.868 548.706 433.95 552.766C437.569 557.657 440.895 562.548 441.091 569.054C441.216 570.114 441.462 571.156 441.825 572.16C442.558 575.021 443.072 577.932 443.537 580.842C444.197 584.926 443.83 589.011 444.124 593.731C446.569 589.622 449.993 587.201 452.61 583.948C458.109 577.747 464.167 572.066 470.708 566.975C478.959 560.226 486.692 552.868 493.844 544.964C497.162 541.557 499.414 537.256 500.325 532.589C501.294 527.955 502.882 523.471 505.045 519.26C510.605 507.321 517.98 496.316 526.909 486.635C531.679 481.377 536.35 476.021 541.143 470.787C544.97 466.72 548.101 462.052 550.412 456.969C554.266 448.044 556.494 438.503 556.991 428.795C557.369 424.884 556.936 420.938 555.719 417.202C553.605 411.058 550.894 405.135 547.624 399.52C547.233 398.884 546.817 398.37 547.624 397.588C549.315 398.569 550.709 399.989 551.66 401.697C556.82 409.034 560.904 416.86 565.307 424.564C570.21 433.278 572.796 443.105 572.815 453.105C572.7 462.467 571.174 471.759 568.29 480.667C567.459 483.578 566.456 486.439 565.502 489.325C566.48 489.57 566.798 489.007 567.263 488.689C572.671 484.847 578.527 481.677 584.701 479.249C589.509 477.167 594.806 476.48 599.986 477.268C600.793 477.415 601.282 477.684 601.307 478.613C592.651 485.381 585.3 493.668 579.614 503.07C577.67 506.47 576.377 510.202 575.798 514.075C575.211 517.699 574.892 521.361 574.845 525.032C574.845 534.007 576.752 542.812 577.29 552.056C578.472 551.318 579.428 550.269 580.054 549.024C581.472 546.969 582.842 544.891 584.383 542.959C588.614 537.676 592.747 532.344 596.905 527.037C597.565 526.181 598.25 525.399 599.595 525.79C600.304 527.795 598.812 529.165 597.932 530.535C595.135 535.052 593.133 540.015 592.013 545.209C591.891 545.698 591.818 546.431 592.967 546.505C599.252 537.334 601.282 526.108 606.223 516.301C607.641 516.814 607.592 517.621 607.372 518.477C606.956 520.092 606.492 521.657 606.125 523.369C604.938 530.204 603.104 536.911 600.646 543.399C600.402 543.961 600.157 544.768 601.062 545.209C601.992 545.209 602.383 544.426 602.799 543.692C607.397 535.181 611.261 526.573 610.503 516.472C610.233 512.706 609.964 508.915 609.793 505.148C609.793 504.048 609.329 502.703 610.723 502.018C611.089 502.014 611.445 502.143 611.724 502.382C612.003 502.62 612.186 502.951 612.239 503.314C615.051 515.689 616.666 528.113 613.437 540.66C614.342 541.222 614.782 540.66 615.223 540.122C616.235 538.628 616.988 536.975 617.448 535.23C619.894 527.38 619.038 519.578 617.179 511.776C615.981 506.689 613.657 501.994 612.117 497.102C610.101 490.776 609.078 484.176 609.084 477.537C608.996 476.603 609.15 475.663 609.531 474.806C609.912 473.949 610.508 473.205 611.261 472.646C612.508 477.537 612.337 482.428 613.878 487.075C615.418 491.722 616.445 496.613 620.041 500.477C620.187 500.037 620.334 499.841 620.31 499.621C620.31 498.936 620.163 498.227 620.041 497.518C616.176 474.333 619.6 451.759 626.008 429.479C628.454 420.92 632.611 412.996 635.571 404.631C641.789 388.086 645.147 370.602 645.5 352.93C645.908 340.016 641.857 327.356 634.03 317.076C630.081 312.344 625.637 308.048 620.774 304.261C608.563 294.56 596.934 284.148 585.948 273.079C585.728 272.834 585.312 272.908 584.994 273.079C584.807 273.375 584.708 273.719 584.708 274.069C584.708 274.42 584.807 274.763 584.994 275.06C586.492 276.936 587.834 278.932 589.005 281.027C592.979 286.37 597.495 291.288 602.481 295.701C609.057 301.531 614.403 308.615 618.206 316.538C620.391 321.914 621.935 327.529 622.804 333.267C624.548 342.137 624.697 351.247 623.244 360.169C621.447 369.1 618.944 377.875 615.761 386.411C614.686 388.652 614.039 391.074 613.853 393.552C613.911 394.181 613.74 394.809 613.372 395.322C613.003 395.834 612.462 396.196 611.848 396.341C609.793 395.925 608.962 394.139 608.399 392.354C606.532 386.94 603.606 381.952 599.79 377.68C597.771 375.343 595.884 372.893 594.141 370.343C591.957 367.236 590.426 363.718 589.64 360.002C588.854 356.286 588.829 352.449 589.568 348.723C590.509 343.541 592.001 338.474 594.019 333.609C594.099 333.488 594.154 333.352 594.18 333.209C594.206 333.066 594.203 332.92 594.171 332.778C594.139 332.636 594.079 332.502 593.994 332.385C593.909 332.267 593.801 332.168 593.676 332.093C592.66 332.678 591.816 333.522 591.231 334.538C587.658 340.594 584.763 347.024 582.597 353.713C580.685 359.338 580.065 365.323 580.785 371.221C581.505 377.12 583.546 382.78 586.755 387.781C589.812 392.843 592.82 397.93 595.535 403.213C599.565 411.439 601.161 420.646 600.133 429.748C599.473 438.162 596.195 445.792 593.334 453.545C592.698 455.212 591.685 456.711 590.375 457.923C589.372 458.876 588.296 459.512 586.951 458.485C586.572 456.723 586.665 454.893 587.22 453.178C587.782 451.026 588.614 448.898 589.323 446.77C592.711 436.736 593.345 425.975 591.157 415.612C591.058 413.594 590.181 411.692 588.712 410.305C589.299 414.693 589.365 419.134 588.907 423.536C588.271 427.914 587.269 432.145 583.527 435.153C582.336 433.082 581.944 430.646 582.426 428.305C582.426 424.979 583.16 421.678 583.038 418.376C583.158 414.009 582.323 409.669 580.592 405.659C580.127 420.015 578.953 424.466 574.796 427.67C574.649 426.324 573.842 425.224 574.135 423.805C574.661 420.415 574.931 416.989 574.942 413.558C575.608 407.415 574.55 401.207 571.885 395.631C567.562 387.583 561.84 380.37 554.986 374.33C550.094 369.756 545.863 364.376 540.776 359.949C540.061 359.28 539.531 358.437 539.236 357.503C538.38 355.278 537.01 353.321 535.959 351.218C532.437 344.15 529.967 336.862 530.92 328.742C531.341 325.517 532.738 322.498 534.924 320.089C537.109 317.68 539.979 315.998 543.149 315.267C547.089 314.487 551.162 314.723 554.986 315.951C561.449 317.924 568.322 318.135 574.894 316.563C579.002 315.589 582.792 313.576 585.899 310.718C585.161 310.502 584.386 310.443 583.624 310.544C582.862 310.645 582.129 310.904 581.472 311.305C577.667 313.099 573.503 314.006 569.296 313.955C565.089 313.904 560.948 312.897 557.187 311.011C554.121 309.473 551.171 307.716 548.358 305.753C545.652 303.835 542.835 302.079 539.92 300.495C537.367 299.072 534.47 298.38 531.549 298.497C528.628 298.613 525.796 299.533 523.363 301.155C519.497 303.5 516.258 306.748 513.923 310.62C510.297 316.872 507.758 323.695 506.415 330.797C504.483 339.356 503.969 347.916 507.173 356.329C507.38 356.668 507.502 357.052 507.527 357.448C507.553 357.845 507.482 358.241 507.32 358.604C506.938 358.936 506.538 359.247 506.121 359.533C505.736 359.735 505.335 359.907 504.923 360.047C504.553 359.908 504.2 359.728 503.871 359.509C496.34 353.114 490.587 344.884 487.167 335.615C483.789 327.213 482.939 318.006 484.722 309.128C487.017 296.967 492.351 285.584 500.227 276.038C506.366 268.505 512.187 260.753 518.081 253.049C521.969 248.125 525.2 242.715 527.692 236.956C532.583 225.266 530.725 217.391 521.284 209.809C520.722 209.369 520.159 208.929 519.572 208.537C517.242 207.135 514.989 205.608 512.822 203.964C507.271 199.195 500.154 197.825 493.746 194.94C493.575 194.988 493.184 195.16 492.572 195.233ZM561.956 430.776C561.614 433.735 560.953 436.596 560.611 439.482C559.033 454.53 552.653 468.671 542.415 479.811C538.673 483.92 535.078 488.127 531.41 492.358C522.157 502.697 515.53 515.112 512.089 528.554C510.108 536.673 507.956 544.768 505.779 552.863C505.37 554.329 504.846 555.76 504.214 557.143C501.768 562.646 498.735 567.807 495.874 573.065C495.556 573.627 494.822 574.214 496.143 575.021C499.665 571.426 501.328 566.413 505.192 562.793C502.991 569.347 501.597 576 499.909 582.701C506.977 576.562 511.257 568.027 517.665 560.885C518.521 566.437 516.1 570.937 515.879 575.779C516.307 575.725 516.726 575.618 517.127 575.462C525.369 570.57 532.926 565.067 537.23 556.092C537.792 554.917 538.472 553.803 539.26 552.766C540.914 550.454 542.086 547.835 542.709 545.062C544.501 537.928 544.973 530.526 544.103 523.222C543.76 518.753 544.048 514.258 544.959 509.869C545.619 505.687 548.26 502.311 549.483 498.349C550.433 495.661 551.876 493.172 553.739 491.012C556.983 487.258 559.616 483.016 561.54 478.442C564.872 469.688 566.451 460.364 566.187 451.001C566.116 447.447 565.698 443.909 564.94 440.436C564.157 437.208 564.035 433.735 561.956 430.776ZM343.998 295.506C343.549 299.188 343.59 302.913 344.12 306.584C345.85 317.461 348.744 328.12 352.753 338.378C356.894 349.538 364.162 359.268 373.688 366.406C379.391 370.634 384.733 375.33 389.658 380.444C394.99 386.362 400.15 392.354 402.816 400.009C402.987 400.449 403.159 400.89 404.039 400.572C403.843 397.368 403.721 394.091 403.452 390.789C402.728 379.467 398.204 368.722 390.612 360.291C383.495 352.367 376.109 344.688 368.772 336.984C365.827 333.896 363.167 330.548 360.824 326.981C354.356 317.643 349.158 307.486 345.367 296.777C345.196 296.313 345.245 295.603 343.998 295.506ZM377.944 249.796C377.204 254.002 377.048 258.289 377.479 262.538C378.07 270.218 379.955 277.742 383.055 284.794C385.56 290.685 388.753 296.259 392.569 301.4C401.077 312.971 407.295 326.062 410.887 339.968C411.083 340.677 411.082 341.729 412.256 341.655C413.039 341.386 412.917 340.702 412.966 340.163C413.406 336.397 413.919 332.655 414.189 328.889C414.886 323.359 414.886 317.764 414.189 312.234C413.21 306.878 411.89 301.595 410.789 296.288C410.289 293.563 409.055 291.026 407.218 288.951C405.311 286.823 403.428 284.72 401.422 282.69C397.754 278.997 393.938 275.353 390.294 271.734C385.597 267.018 382.078 261.262 380.022 254.932C379.338 253.244 378.604 251.532 377.944 249.796ZM674.065 516.765C675.063 516.248 675.831 515.375 676.218 514.32C680.191 506.929 683.568 499.233 686.318 491.306C688.807 484.654 689.898 477.561 689.522 470.469C689.209 466.213 689.324 461.936 689.865 457.702C690.048 454.599 690.048 451.488 689.865 448.384C689.473 448.384 689.204 448.384 689.057 448.629C683.879 453.188 680.105 459.125 678.174 465.749C674.881 476.493 673.038 487.63 672.696 498.863C672.612 504.86 673.07 510.851 674.065 516.765ZM566.701 235.513C557.479 241.216 549.636 248.892 543.736 257.989C540.317 263.284 538.531 269.467 538.6 275.769C539.089 283.717 543.491 289 549.948 293.182C550.828 265.253 550.95 264.886 566.701 235.611V235.513ZM353.365 542.029C358.06 534.252 361.582 525.888 366.4 518.208C372.05 509.233 375.547 499.108 381.074 490.034C378.253 490.514 375.629 491.796 373.517 493.727C364.941 500.732 358.585 510.079 355.223 520.63C354.876 522.366 354.309 524.05 353.536 525.643C352.403 527.593 351.955 529.866 352.264 532.1C352.582 535.328 353.022 538.605 353.365 542.029ZM458.969 546.578C458.703 538.741 456.601 531.076 452.83 524.2C449.565 518.156 446.713 511.897 444.295 505.466C443.047 502.14 441.996 498.716 440.822 495.195C440.608 495.54 440.436 495.91 440.308 496.295C438.064 507.751 439.981 519.632 445.713 529.801C449.284 536.013 454.493 540.88 458.969 546.456V546.578ZM404.357 430.58C422.284 435.202 433.705 446.33 438.792 464.673C439.839 459.574 439.503 454.288 437.817 449.364C436.131 444.44 433.157 440.056 429.205 436.67C421.868 430.066 413.455 429.064 404.357 430.458V430.58ZM588.932 409.743L588.785 409.596V409.865L588.932 409.743Z" fill="#171213"/>
<path d="M502.46 759.69C502.262 760.688 501.83 761.624 501.201 762.423C500.572 763.222 499.763 763.861 498.841 764.288C494.655 766.722 490.219 768.699 485.61 770.182C482.21 771.478 478.737 772.628 475.289 773.851C468.883 775.939 462.8 778.91 457.215 782.68C451.541 786.617 444.865 788.451 438.751 791.484C435.475 793.086 432.111 794.498 428.674 795.715C421.575 798.4 415.13 802.569 409.769 807.943C407.946 809.276 406.302 810.837 404.878 812.59C404.267 813.544 403.239 813.373 402.432 812.737C401.674 811.661 402.09 810.462 402.065 809.313C402.121 798.892 400.469 788.531 397.174 778.644C394.329 771.76 390.435 765.358 385.631 759.666C381.131 753.87 376.459 748.22 371.837 742.546C370.816 741.404 370.042 740.063 369.562 738.609C371.25 737.581 372.546 738.78 373.818 739.44C378.65 742.187 383.226 745.363 387.489 748.929C392.66 752.737 397.624 756.819 402.359 761.158C400.671 752.476 396.514 744.625 395.022 736.016C396.122 734.965 396.783 735.747 397.468 736.334C401.56 739.933 405.378 743.832 408.889 748C411.335 750.641 413.511 753.356 416.079 756.34C416.138 753.997 415.635 751.674 414.612 749.565C412.288 743.5 410.87 737.141 408.131 731.247C407.852 730.729 407.691 730.156 407.657 729.569C407.623 728.982 407.718 728.394 407.935 727.848C412.264 729.511 419.748 737.117 428.577 748.758C429.338 744.812 429.077 740.738 427.818 736.921C426.009 731.052 424.028 725.28 422.12 719.459C421.851 718.676 421.435 717.918 422.267 717.013C431.219 725.033 438.443 734.795 443.495 745.701C443.495 734.891 441.587 724.399 440.462 713.761C448.02 719.679 452.055 727.97 456.897 736.065C456.882 733.728 456.743 731.393 456.482 729.07C456.066 726.625 456.017 723.91 455.503 721.342C454.99 718.774 454.501 716.451 454.06 714.005C453.295 711.64 453.069 709.132 453.4 706.668C455.259 705.812 455.846 707.353 456.775 708.356C461.448 714.011 465.498 720.152 468.857 726.674C469.395 727.676 469.566 728.948 470.911 729.682C470.177 721.147 470.324 712.562 467.878 704.32C468.71 704.32 469.175 704.32 469.37 704.32C472.704 706.972 475.694 710.028 478.273 713.418C481.55 718.31 482.088 722.81 484.46 727.774C484.949 728.777 488.006 734.793 488.006 734.793C488.48 736.874 489.444 738.811 490.819 740.443C496.126 749.565 496.126 749.565 500.846 757.416L502.46 759.69Z" fill="#110A0C"/>
<path d="M272.784 754.8C274.643 755.68 275.621 754.091 276.673 753.235C279.895 750.433 282.732 747.218 285.11 743.672C293.582 731.464 300.645 718.337 306.167 704.541C308.493 698.904 310.39 693.1 311.841 687.177C311.872 686.816 311.982 686.467 312.164 686.154C312.346 685.841 312.595 685.572 312.893 685.367C314.067 686.199 313.945 687.495 314.067 688.693C314.283 694.02 313.681 699.348 312.282 704.492C310.886 710.25 310.067 716.132 309.836 722.052C313.093 717.177 315.924 712.03 318.298 706.669C321.139 701.169 323.519 695.442 325.415 689.549C326.857 691.622 327.427 694.177 327.005 696.666C326.596 701.02 325.942 705.348 325.048 709.628C324.363 713.957 323.581 718.31 323.116 722.786C325.219 721.074 325.757 718.408 327.005 716.183C328.252 713.957 329.621 711.414 330.844 708.992C332.067 706.571 333.119 704.101 334.366 701.655C335.613 699.21 336.812 696.96 338.279 694.465C340.847 696.495 340.407 699.038 340.089 701.411C339.453 705.96 338.695 710.501 337.814 715.033C337.721 717.403 337.335 719.752 336.665 722.028C339.111 721.074 341.287 717.601 346.863 706.229C349.983 700.741 352.776 695.073 355.228 689.256C356.915 689.72 356.67 690.723 356.524 691.432C356.053 693.988 355.897 696.592 356.059 699.185C356.059 705.006 355.399 710.753 354.934 716.525C354.934 717.21 354.543 717.944 355.252 718.482C355.032 718.31 354.836 718.31 354.787 718.482C354.738 718.653 354.787 718.726 354.959 718.873L355.203 718.335C356.671 717.944 356.793 716.452 357.453 715.424C362.33 708.467 366.154 700.827 368.801 692.753C368.923 692.386 369.168 692.191 369.999 692.142C371.124 699.283 369.681 706.498 370.293 714.495C374.646 706.522 380.32 700.041 381.91 691.359C384.355 692.998 384.355 692.998 384.355 707.476C385.627 707.109 386.141 705.984 386.801 705.03C389.247 702.071 391.521 699.136 393.698 696.055C395.875 692.973 398.051 690.772 398.149 687.03C401.524 689.329 401.622 689.672 402.233 702.952C406.523 698.012 410.293 692.644 413.483 686.932C417.494 692.557 416.907 698.06 416.149 703.783L404.899 708.332L352.488 729.12C351.706 729.438 350.679 729.512 350.287 730.49V730.368C346.227 730.832 345.103 731.737 344.271 735.259C343.636 739.343 343.439 743.483 343.684 747.61C343.916 750.163 343.965 752.729 343.831 755.289C342.908 756.358 341.742 757.189 340.431 757.712C339.12 758.236 337.703 758.436 336.298 758.297C318.934 758.639 301.57 759.178 284.205 759.618C281.246 759.618 278.287 759.618 275.327 759.618C274.788 759.706 274.236 759.678 273.709 759.534C273.181 759.391 272.691 759.136 272.27 758.786C271.341 757.857 272.075 756.707 271.341 755.974H271.219C271.977 756.218 272.246 755.974 272.026 755.191C272.784 755.436 273.053 755.191 272.833 754.408L272.784 754.8ZM309.64 723.006L309.469 722.761C309.469 722.761 309.273 722.957 309.298 722.982C309.36 723.08 309.444 723.164 309.542 723.226L309.64 723.006Z" fill="#130D0E"/>
<path d="M628.257 722.738C630.385 720.292 632.562 718.066 634.616 715.67C635.643 714.249 637.051 713.147 638.676 712.49C638.972 717.627 638.857 722.779 638.334 727.898C642.98 723.007 645.132 717.162 649.926 713.42C650.122 713.273 650.586 713.42 651.198 713.566C651.785 719.191 651.491 724.841 651.687 731.2C655.331 724.719 657.948 718.335 662.864 713.395C664.673 713.909 664.307 715.352 664.356 716.575C664.401 722.135 664.164 727.693 663.646 733.23C663.646 733.914 663.646 734.599 663.646 736.091C669.394 728.607 674.603 721.417 681.989 716.746C684.092 717.846 683.309 719.191 682.698 720.194C679.67 725.797 677.447 731.799 676.095 738.023C672.322 753.099 672.163 768.853 675.63 784.002C675.846 784.803 675.846 785.646 675.63 786.447C675.383 786.787 675.066 787.07 674.702 787.278C674.337 787.487 673.933 787.616 673.515 787.658C673.097 787.699 672.675 787.652 672.277 787.519C671.879 787.387 671.513 787.171 671.203 786.888C665.627 782.51 658.804 781.311 652.298 779.233C649.608 778.377 646.942 777.472 644.228 776.787C640.559 775.735 637.844 773.094 634.151 771.431C640.437 762.969 644.448 754.067 644.521 743.746C643.637 742.975 642.605 742.393 641.488 742.034C630.929 736.76 621.07 730.187 612.14 722.469C608.423 719.314 605.317 715.694 601.82 712.392C599.643 710.363 598.078 707.648 595.461 706.229C596.545 701.411 598.592 696.86 601.477 692.852C603.336 692.852 603.385 694.148 603.336 695.493C603.092 698.831 603.092 702.182 603.336 705.52C605.097 702.659 606.002 699.21 609.915 699.186C611.407 703.246 610.306 707.477 611.064 711.952C613.51 708.626 614.977 704.884 618.255 701.729C619.698 707.379 617.643 712.344 618.255 717.651C621.41 713.542 623.146 708.7 627.866 706.376C628.353 706.883 628.678 707.524 628.8 708.216C628.922 708.909 628.835 709.622 628.551 710.265C627.719 714.129 628.16 718.066 627.67 721.931C627.67 722.2 627.988 722.493 628.16 722.787C627.695 722.346 627.67 722.787 627.597 723.08L628.257 722.738Z" fill="#140E0F"/>
<path d="M661.603 684.268C662.679 683.975 662.704 682.899 663.095 682.141C666.355 675.995 670.319 670.25 674.908 665.021C675.641 664.189 676.155 662.942 677.989 663.04C676.595 670.377 674.076 677.445 674.541 685.051C679.652 677.225 684.617 669.374 691.856 663.309C691.856 663.309 692.247 663.48 692.81 663.7C690.178 670.629 688.085 677.751 686.549 685.002C690.631 678.649 695.569 672.888 701.223 667.882C699.364 674.535 697.872 681.138 696.112 687.79C697.848 687.937 698.117 686.543 698.728 685.662C702.236 680.5 706.11 675.596 710.321 670.988C711.519 669.643 711.568 669.692 713.476 669.766C711.324 675.586 711.373 681.725 710.517 687.815C711.764 687.815 711.886 687.007 712.302 686.396C717.758 677.777 724.338 669.923 731.867 663.04C734.9 660.423 735.365 660.154 737.835 659.738C738.74 660.888 737.835 662.013 737.615 663.04C735.903 668.518 734.093 673.972 732.308 679.45C729.934 686.969 728.08 694.642 726.756 702.415C726.466 704.768 726.384 707.141 726.511 709.508C726.511 716.478 726.511 723.472 727.049 730.443C727.343 735.016 725.264 736.581 721.082 735.212C720.772 734.071 720.731 732.874 720.96 731.714C721.375 726.138 720.153 720.635 720.079 715.084C719.942 714.164 719.523 713.31 718.881 712.638C716.937 710.095 714.677 707.81 712.155 705.839C710.301 704.477 708.731 702.766 707.533 700.801C700.832 700.801 694.082 700.605 687.356 700.239C680.523 699.961 673.737 698.978 667.106 697.304C661.04 695.851 654.901 694.725 648.714 693.929C643.609 693.088 638.555 691.961 633.576 690.554C632.231 690.162 630.714 690.554 629.32 689.502C630.361 683.825 632.752 678.482 636.29 673.923C638.541 677.103 637.807 680.673 639.25 683.877C642.942 676.51 647.446 669.579 652.676 663.211C653.728 663.823 653.679 664.287 653.532 665.143C652.619 669.411 651.974 673.732 651.6 678.081C651.5 678.533 651.579 679.006 651.821 679.401C650.989 679.695 651.331 680.209 651.625 680.991L651.918 679.499C654.682 676.173 656.321 672.162 658.913 668.689C659.744 667.54 660.527 666.366 661.359 665.241C661.48 665.038 661.644 664.864 661.839 664.732C662.035 664.599 662.257 664.511 662.49 664.474C662.723 664.437 662.962 664.451 663.189 664.516C663.416 664.581 663.626 664.695 663.804 664.85C663.628 666.909 663.259 668.948 662.704 670.939C661.994 675.244 661.652 679.597 661.359 683.95C661.359 684.122 661.628 684.317 661.774 684.513C660.845 684.513 661.334 685.051 661.432 685.785L661.603 684.268Z" fill="#150F10"/>
<path d="M563.428 806.161C563.428 805.501 563.256 804.938 563.428 804.571C567.17 797.919 569.615 790.655 573.528 784.077C581.77 770.259 591.577 757.786 604.882 748.443C609.975 744.587 615.88 741.944 622.148 740.715C624.937 740.185 627.808 740.268 630.561 740.959C633.25 741.607 635.583 743.27 637.074 745.599C638.565 747.929 639.097 750.744 638.559 753.457C637.385 759.507 634.758 765.181 630.904 769.989C618.89 786.105 602.46 798.39 583.604 805.354C579.306 807.023 574.739 807.893 570.129 807.922C567.775 807.972 565.453 807.362 563.428 806.161Z" fill="#10090B"/>
<path d="M350.297 730.491C353.786 731.151 357.075 732.608 359.909 734.747C363.897 737.272 367.366 740.534 370.132 744.358C372.211 747.22 374.51 749.935 376.564 752.82C380.673 758.568 384.855 764.266 388.792 770.209C390.585 772.848 391.886 775.789 392.632 778.891C393.2 781.051 394.021 783.136 395.078 785.103C396.995 789.305 398.003 793.863 398.037 798.481C398.208 803.788 397.817 809.12 398.404 814.427C398.462 814.882 398.406 815.344 398.239 815.771C398.072 816.199 397.801 816.577 397.45 816.873C396.852 817.165 396.182 817.276 395.522 817.194C394.862 817.111 394.24 816.838 393.733 816.408C388.377 812.935 382.483 810.44 377.004 807.212C375.061 806.061 373.503 804.359 372.529 802.321C371.047 798.977 369.262 795.777 367.197 792.758C365.852 790.924 365.803 788.503 364.433 786.669C361.205 782.315 359.126 777.277 356.094 772.802C354.039 769.842 352.865 766.418 350.591 763.459C348.316 760.5 348.316 756.122 347.558 752.307C346.316 745.419 347.019 738.322 349.588 731.812C349.836 731.294 350.122 730.796 350.444 730.32L350.297 730.491Z" fill="#110A0C"/>
<path d="M554.552 770.527C558.343 766.638 562.134 762.725 566.242 759.179C567.901 757.51 570.038 756.398 572.357 756C569.176 762.469 566.715 769.268 565.02 776.274C569.591 770.704 574.694 765.593 580.256 761.013C581.479 759.937 582.702 758.299 585.294 759.424C576.312 772.438 568.528 786.239 562.036 800.657L560.935 801.293C560.359 801.628 559.678 801.733 559.028 801.587C557.854 801.244 557.218 800.046 556.411 799.141C549.269 790.166 542.055 781.263 535.378 771.921C535.036 771.456 534.742 770.845 534.253 770.6C529.209 767.678 525.323 763.11 523.248 757.663C518.997 748.799 516.934 739.045 517.231 729.219C517.157 722.13 518.635 715.11 521.56 708.651C521.776 707.972 522.216 707.386 522.807 706.988C525.816 707.502 525.889 707.526 528.628 710.388C528.746 711.033 528.658 711.698 528.377 712.291C528.096 712.883 527.637 713.372 527.063 713.689C525.213 715.325 523.57 717.182 522.171 719.217C521.594 719.825 521.182 720.573 520.976 721.386C520.771 722.2 520.778 723.053 520.998 723.863C524.69 722.078 527.185 718.018 532.297 718.165C532.297 723.815 528.652 728.535 528.261 734.16C530.829 733.94 532.321 731.714 534.424 730.662C535.472 729.978 536.644 729.507 537.873 729.276C539.103 729.045 540.366 729.059 541.59 729.317C540.123 735.603 537.066 741.203 535.525 747.782C537.97 747.097 538.46 745.043 539.756 743.918C541.052 742.793 542.202 741.472 543.498 740.127C544.794 738.782 546.261 737.559 547.655 736.287C549.636 736.972 549.392 738.268 548.927 739.711C547.646 743.629 546.689 747.645 546.066 751.72C545.772 753.774 545.65 755.853 545.405 758.665C550.297 753.236 554.259 747.953 560.348 744.872C558.221 753.358 555.604 761.6 553.818 770.062C553.598 770.576 553.403 771.065 553.965 771.554L554.552 770.527Z" fill="#140E0F"/>
<path d="M701.917 704.713C707.519 707.171 712.099 711.492 714.879 716.941C713.993 718.833 713.736 720.958 714.145 723.006C714.537 731.738 714.83 740.517 714.708 749.249C714.361 753.249 713.335 757.161 711.675 760.817C709.401 766.906 706.368 772.654 704.338 778.841C703.776 780.519 702.654 781.953 701.159 782.901C698.713 784.662 696.268 786.643 693.822 788.355C690.943 790.279 687.485 791.143 684.039 790.801C681.398 790.605 680.126 789.358 680.224 786.716C680.542 777.129 680.86 767.567 681.422 758.004C682.317 747.899 683.754 737.849 685.727 727.898C686.092 725.348 687.207 722.964 688.931 721.05C692.599 716.721 695.95 712.123 699.447 707.648C700.107 706.816 700.963 705.887 701.917 704.713Z" fill="#110A0C"/>
<path d="M271.475 756.022C269.567 757.123 267.879 759.446 265.336 757C265.163 756.724 265.046 756.417 264.994 756.095C264.994 750.079 264.871 744.063 264.773 738.022C264.819 733.996 265.798 730.036 267.635 726.454C269.567 722.394 271.45 718.334 273.505 714.348C276.139 709.605 278.263 704.596 279.839 699.405C280.843 696.226 282.746 693.406 285.317 691.285C289.767 687.217 294.517 683.489 299.526 680.133C301.943 678.653 304.234 676.976 306.374 675.119C306.986 674.557 307.597 673.97 308.82 674.41C308.628 679.864 307.707 685.268 306.081 690.478C302.461 704.884 296.899 718.731 289.548 731.639C285.09 738.889 280.043 745.76 274.458 752.182C273.847 752.916 272.697 753.43 272.918 754.628C272.208 754.457 271.964 754.75 272.11 755.411C271.377 755.215 271.254 755.631 271.303 756.193L271.475 756.022Z" fill="#120C0D"/>
<path d="M627.753 571.133C633.354 565.679 637.536 559.125 644.359 555.016C643.395 558.132 641.995 561.097 640.202 563.821C635.357 571.24 631.454 579.234 628.585 587.617C626.716 593.507 626.614 599.816 628.291 605.764C629.729 611.256 630.55 616.892 630.737 622.566C631.4 631.958 629.062 641.319 624.06 649.297C621.614 652.965 619.585 656.805 617.31 660.523C616.748 661.452 616.43 662.822 614.864 662.724C614.057 661.77 614.546 660.889 614.864 660.033C616.87 655.754 618.093 651.156 620.367 646.974C621.579 644.147 622.362 641.154 622.691 638.096C624.291 632.359 623.991 626.259 621.835 620.707C619.365 614.95 616.342 609.446 612.81 604.272C609.076 599.511 606.557 593.912 605.473 587.96C604.509 582.113 605.607 576.113 608.579 570.987C612.624 564.325 617.923 558.511 624.182 553.867C624.594 553.402 625.098 553.03 625.663 552.773C626.227 552.516 626.839 552.38 627.46 552.375C627.566 554.916 627.019 557.443 625.87 559.712C626.995 560.544 627.606 559.712 628.316 559.101C629.93 557.364 631.544 555.628 633.207 553.965C633.99 553.207 634.772 552.13 636.655 552.815C634.454 559.15 629.49 564.408 627.753 571.133Z" fill="#1A1516"/>
<path d="M736.854 735.528C735.684 735.49 734.576 734.995 733.767 734.149C732.957 733.304 732.512 732.174 732.525 731.004C731.739 724.078 731.356 717.113 731.376 710.142C731.532 706.129 732.031 702.136 732.868 698.208C734.824 688.669 736.316 678.96 739.936 669.887C742.069 664.144 745.035 658.746 748.74 653.867C749.048 653.357 749.522 652.967 750.083 652.762C750.643 652.558 751.257 652.551 751.822 652.743C752.524 652.877 753.17 653.219 753.676 653.725C754.182 654.231 754.524 654.877 754.659 655.579C755.128 657.998 755.382 660.453 755.417 662.916C755.197 671.061 755.123 679.205 754.732 687.373C754.468 691.124 753.986 694.855 753.289 698.55C752.506 703.05 751.479 707.526 750.697 712.05C749.364 717.764 747.412 723.316 744.876 728.607C744.027 730.434 742.635 731.955 740.889 732.961C739.544 733.865 738.248 734.648 736.854 735.528Z" fill="#130D0E"/>
<path d="M589.864 267.821C589.106 263.713 591.674 260.484 592.995 257.085C596.295 248.777 596.759 239.612 594.315 231.014C593.499 228.802 592.458 226.679 591.209 224.68C589.03 220.921 587.858 216.663 587.806 212.319C587.755 207.974 588.826 203.69 590.916 199.881C591.214 199.375 591.444 198.832 591.601 198.266C592.393 194.969 594.303 192.048 597.006 190C597.209 190.278 597.339 190.604 597.381 190.947C597.424 191.289 597.379 191.637 597.25 191.957C596.734 194.145 596.654 196.415 597.015 198.635C597.375 200.854 598.17 202.982 599.353 204.894C600.733 207.533 602.425 209.996 604.391 212.231C607.752 215.891 610.811 219.817 613.538 223.97C621.585 236.981 619.237 251.019 607.375 260.655C604.851 262.713 602.112 264.492 599.207 265.963C596.443 267.381 593.679 268.751 590.451 267.357C590.451 267.357 590.109 267.601 589.913 267.748L589.864 267.821ZM599.818 258.552C602.153 257.708 604.216 256.246 605.786 254.321C613.881 245.15 614.15 237.201 609.943 229.302C608.523 226.43 606.766 223.737 604.709 221.28C602.833 218.975 601.149 216.522 599.671 213.943C597.372 210.121 595.596 206.008 594.389 201.715C592.798 205.542 592.389 209.759 593.215 213.821C594.272 217.703 595.922 221.398 598.106 224.777C599.876 227.713 601.009 230.987 601.432 234.389C602.369 241.562 601.887 248.85 600.014 255.837C599.818 256.669 599.109 257.549 599.843 258.503C599.622 258.234 599.476 258.259 599.378 258.503C599.28 258.748 599.5 258.503 599.549 258.503C600.038 258.943 599.402 258.821 599.818 258.552Z" fill="#252020"/>
<path d="M642.792 643.036C642.792 639.538 641.887 636.139 642.621 632.764C643.893 627.139 642.45 621.71 641.423 616.256C639.79 607.385 639.427 598.326 640.347 589.353C640.951 585.425 642.724 581.769 645.434 578.861C646.559 579.008 646.559 579.791 646.73 580.451C648.638 587.788 650.643 595.272 652.428 602.731C653.84 607.671 653.78 612.915 652.257 617.821C650.472 622.957 649.64 628.313 648.051 633.473C647.104 637.042 645.299 640.325 642.792 643.036Z" fill="#1D1819"/>
<path d="M506.083 466.212C505.239 463.733 505.154 461.06 505.839 458.532C506.07 457.614 506.373 456.714 506.744 455.842C512.466 441.388 509.189 428.255 500.849 415.904C494.958 407.87 488.109 400.586 480.453 394.211C472.742 387.736 465.644 380.564 459.249 372.787C453.217 365.417 449.145 356.643 447.412 347.279C446.609 342.949 446.419 338.528 446.849 334.146C447.436 328.839 447.656 323.531 447.778 318.2C448.236 313.418 449.518 308.751 451.569 304.406C453.159 304.993 452.547 306.118 452.621 306.852C452.638 310.123 452.858 313.391 453.281 316.635C454.797 324.705 459.493 330.893 464.702 336.738C467.036 339.498 469.744 341.919 472.749 343.928C477.029 346.692 480.893 350.018 485.246 352.659C488.469 354.638 491.506 356.906 494.319 359.434C495.564 360.527 496.871 361.548 498.233 362.491C507.325 368.753 515.323 376.471 521.907 385.334C525.342 389.666 527.71 394.746 528.819 400.163C529.928 405.58 529.747 411.182 528.29 416.516C527.385 419.94 526.7 423.437 525.6 426.812C521.763 438.773 516.766 450.331 510.681 461.321C509.658 463.365 508.06 465.065 506.083 466.212ZM519.363 426.837C519.822 423.106 520.641 419.428 521.809 415.856C524.964 405.584 522.298 396.461 516.282 388.097C508.945 377.776 498.575 370.415 488.743 362.687C480.673 356.352 471.795 351.119 463.92 344.466C460.155 341.72 457.02 338.201 454.724 334.146C454.406 333.461 453.868 332.629 452.841 333.29C452.735 333.436 452.679 333.611 452.679 333.791C452.679 333.971 452.735 334.146 452.841 334.292C454.742 338.323 457.036 342.157 459.689 345.738C468.029 357.159 478.985 366.208 487.741 377.238C487.836 377.313 487.926 377.395 488.01 377.483C492.306 381.865 496.333 386.504 500.067 391.374C504.151 396.73 508.089 402.184 511.953 407.687C515.808 412.524 518.072 418.436 518.434 424.611C518.336 425.369 518.116 426.299 519.363 426.885V426.837Z" fill="#1C1617"/>
</svg>
