<?xml version="1.0" encoding="UTF-8"?>
<svg style="strokeWidth: 2" stroke="1" width="8em" height="8em" version="1.1" viewBox="0 0 752 752" xmlns="http://www.w3.org/2000/svg" xmlns:xlink="http://www.w3.org/1999/xlink">
 <g>
  <path d="m439.24 146.7 35 52.078c1.3086 2.0547 1.3984 4.0156 0.28516 5.8789-1.3086 1.8633-2.9844 2.8008-5.0391 2.8008l-22.688-0.83984-2.8008 16.238c-0.37109 2.9844-2.1445 4.4805-5.3125 4.4805l-16.801 0.55859-1.3984 12.32c0 2.6094-1.5 4.2969-4.4844 5.0391l-19.312 3.3594-2.8008 15.68c-0.37109 1.4961-1.1133 2.7031-2.2383 3.6406-1.3008 0.74609-2.6992 1.0312-4.1992 0.83984l-11.762-1.9609-5.8867 17.078c-0.92969 2.8008-2.8906 4.0156-5.875 3.6406l-16.527-1.9609-6.7148 20.16c-0.37109 1.4961-1.2148 2.6133-2.5156 3.3594-1.3086 0.55859-2.7109 0.65625-4.1992 0.28125l-12.324-3.3594-4.1992 16.801c-0.92969 3.168-3.0742 4.5703-6.4414 4.1992l-13.43-2.2383-0.83984 12.879c0 1.8633-0.74609 3.2656-2.2383 4.1992-1.5 1.1211-3.0859 1.3984-4.7617 0.83984l-23.801-7c-0.55859 1.3047-1.2148 2.1445-1.9609 2.5195l-7.8398 10.359c-4.8555 6.9062-8.125 12.414-9.8008 16.52-1.6875 5.4141-6.0703 9.8008-13.16 13.16-10.641 5.0391-17.27 8.3984-19.887 10.078l-0.55859 0.28125c-1.8711 1.3047-5.5117 5.0352-10.926 11.199l-9.2305 10.359-1.3984 1.1211c-3.3711 1.4961-6.3555 2.2383-8.9727 2.2383h-1.3984c-5.2188-0.56641-8.8594-3.0859-10.914-7.5664-3.9141-7.6484-8.1133-20.625-12.602-38.922l-5.3125-25.48v-0.28125c-2.2383-2.2383-5.7852-4.2969-10.641-6.1602-8.7695-3.7344-14-7-15.688-9.8008l-0.27344-0.28125c-1.6875-4.2969-0.46875-8.6797 3.6289-13.16l-24.359-7.8398c-2.6133-0.93359-3.9141-2.7031-3.9141-5.3203l0.55859-21.84c0.37109-3.1758 1.9609-5.0391 4.7617-5.6016l3.3594-0.55859h0.28516l25.762-5.8789-28.559-9.2383c-2.6133-0.93359-3.9141-2.7031-3.9141-5.3203l0.55859-22.121c0.37109-2.9844 1.8594-4.7617 4.4727-5.3203l3.6406-0.83984 0.55859-0.28125 7.2852-1.1211 149.24-40.879c1.1133-0.37109 2.1445-0.37109 3.0742 0l64.973 19.32 95.762-53.199c2.2188-1.2852 4.4492-1.0078 6.6953 0.86328zm-48.445 91.559 19.039-3.3594 1.3984-12.879c0.37109-2.9922 2.1445-4.6641 5.3242-5.0391l17.359-0.55859 2.8008-16.52c0.55859-3.1758 2.4297-4.7617 5.6016-4.7617l16.516 0.83984-25.473-38.078-168.57 94.359 1.9727 2.5195 0.27344 1.1211c0.74609 1.4961 0.28516 5.6953-1.3984 12.602l-0.55859 2.2383v1.3984l-2.2383 7.8398c-1.6758 6.5352-2.4297 12.137-2.2383 16.801 0.37891 4.2969 1.3086 7.7461 2.8008 10.359 2.6133 5.9766 4.1992 10.922 4.7695 14.84l0.27344 2.8008 17.641 5.3203 0.83984-12.039c0-1.6797 0.65625-2.9844 1.9609-3.9219 1.3008-1.3047 2.8008-1.7695 4.4844-1.3984l14.559 2.5195 4.1992-17.641c0.18359-1.1211 1.0312-2.2383 2.5156-3.3594 1.5-0.93359 2.9844-1.1211 4.4844-0.55859l12.602 3.6406 6.4414-19.602c0.92969-2.9844 2.9844-4.2969 6.1602-3.9219l16.516 1.9609 5.8867-17.078c0.92969-2.9844 2.9844-4.2969 6.1602-3.9219l10.914 1.9609 2.5273-13.719c0.35547-2.4336 1.8398-4.0195 4.457-4.7656zm49.844 1.6797c-0.74609-1.4961-0.92969-2.9844-0.55859-4.4805 0.37109-1.4961 1.3008-2.5195 2.8008-3.0781 1.3008-0.74609 2.6992-0.93359 4.1992-0.55859l147.84 43.961c1.4883 0.375 2.6133 1.1211 3.3594 2.2383 0.92969 1.1211 1.2148 2.3359 0.83984 3.6406l-2.2383 18.762c0 2.2383-1.0312 3.7344-3.0859 4.4805l-26.875 12.039 26.312 7.8398c3.168 0.93359 4.4844 2.9922 3.9258 6.1602l-2.8008 18.762c-0.37891 2.2383-1.3984 3.6406-3.0859 4.1992l-132.44 59.078c-0.74609 0.375-1.7695 0.56641-3.0742 0.56641-1.3086 0.92969-2.6133 1.3984-3.9258 1.3984l-1.6758-0.28516-182.57-58.52c-1.4883-0.37109-2.5156-1.2148-3.0742-2.5195-0.74609-1.4961-0.94141-2.9922-0.55859-4.4805 1.3008-3.3594 3.7305-4.5703 7.2734-3.6406l179.76 57.68v-17.359l-137.2-41.719c-1.4883-0.375-2.6133-1.2148-3.3594-2.5195-0.74609-1.4961-0.92969-2.9844-0.55859-4.4805 0.55859-1.4961 1.5-2.5195 2.8008-3.0781 1.5-0.74609 2.9023-0.93359 4.1992-0.55859l137.48 41.719 1.1133-0.28125 114.8-45.359-19.039-5.8789-90.441 40.039c-0.55859 0.375-1.3984 0.55859-2.5156 0.55859-1.6875 2.0547-3.7305 2.6133-6.1602 1.6797l-118.73-37.801c-1.4883-0.37109-2.5156-1.2148-3.0742-2.5195-0.74609-1.4961-0.94141-2.9922-0.55859-4.4805 1.3008-3.3594 3.7305-4.5703 7.2734-3.6406l115.93 36.961v-17.359l-96.039-29.121c-1.5-0.37109-2.6133-1.2109-3.3594-2.5195-0.75781-1.4961-0.94141-2.9844-0.57031-4.4805 0.57031-1.4961 1.5-2.5195 2.8008-3.0781 1.5-0.74609 2.9023-0.93359 4.1992-0.55859l96.324 28.84h0.83984l114.8-45.359-127.97-38.359c-1.4648-0.37891-2.5977-1.2227-3.3359-2.5273zm-170.52-49-135.53 37.238 87.641 26.879 22.688-13.16c2.0547-1.3047 4.0977-1.3984 6.1602-0.28125l4.4844 3.0781 67.473-38.078zm-17.641 64.961c-1.3008-0.375-2.2383-1.0234-2.8008-1.9609l-1.3984-0.83984-43.961 25.48c-2.6133 1.4961-4.1094 2.3359-4.4844 2.5195l-2.5156 1.6797h-0.28516l-26.875 15.68-0.57031 0.28125-26.027 15.68c-3.1797 2.0547-5.5117 4.1055-7 6.1602l8.9609 4.1992c7.0898 2.8008 12.129 5.9766 15.113 9.5195 0.94141 0.74609 1.5859 2.0547 1.9609 3.9219 0.75781 2.8008 2.6133 11.57 5.6016 26.32 4.3008 17.543 8.2148 29.773 11.77 36.68 0.37109 0.75 1.0195 1.1211 1.9609 1.1211 0.74609 0.18359 1.7695 0 3.0742-0.56641l8.3984-9.2344c5.7852-6.9102 10.371-11.391 13.727-13.441 2.9844-2.0547 10.074-5.6953 21.273-10.922 4.3008-2.0547 6.7266-4.2969 7.2852-6.7188 2.0547-5.2305 5.7852-11.664 11.199-19.32l8.6875-11.199c0.74609-0.74609 1.3008-1.6797 1.6758-2.8008v-0.28125c0.37109-1.1211 0.37109-2.5195 0-4.1992-0.55859-3.7344-1.8594-7.4648-3.9141-11.199-2.4297-4.4805-3.6406-9.5195-3.6406-15.121-0.55859-5.9688 0.18359-12.695 2.2383-20.16l1.9609-6.1602 2.2383-11.762zm-138.04-9.5195 79.527 25.199 15.113-8.6797-94.359-29.121zm64.68 65.242-0.83984 0.55859 2.2383 7c5.9688 18.855 10.543 31.543 13.715 38.078 1.8711 3.9219 3.0859 5.9688 3.6406 6.1602l1.1133 1.1211c2.6133-1.3047 4.4844-2.5195 5.6016-3.6406l0.28516-0.83984c0.55859-2.0547 0.18359-6.4414-1.1133-13.16l-3.9258-15.121c-2.9844-10.266-5.0391-16.801-6.1602-19.602-1.5-2.6094-2.9023-3.9219-4.1992-3.9219-2.2344 0.003907-5.6953 1.125-10.355 3.3672zm10.359-14.562c5.9688 0 10.73 3.457 14.285 10.359 1.1133 2.2383 3.4453 9.4258 7 21.559l3.9141 15.398c1.8711 8.9609 2.1445 15.305 0.83984 19.039-0.94141 4.1055-4.8555 7.7461-11.762 10.922-1.8711 0.93359-3.5547 1.3984-5.0391 1.3984-3.543 0-6.7266-1.6797-9.5273-5.0391-1.3008-1.6797-2.9844-4.4805-5.0273-8.3984-3.9258-8.0234-8.6875-21.281-14.285-39.762l-3.3594-10.641c-0.55859-1.4961-0.28516-3.1758 0.83984-5.0391 1.8594-2.2383 4.1992-4.0156 7-5.3203 6.1641-2.9844 11.207-4.4766 15.121-4.4766zm-8.3984-17.641-26.039-8.3984-22.961 6.1602 34.441 10.359zm-68.602 3.3594-0.28516 12.039 27.441 8.6797 13.441-8.1211zm436.24 29.961 37.516-16.801 1.125-9.2383-123.2 48.719v14.559l84.273-37.238zm36.398 22.68-122.93 49v14.836l121.53-54.32z" fill="#fff" fill-rule="evenodd"/>
  <use x="70" y="644" xlink:href="#w"/>
  <use x="90.550781" y="644" xlink:href="#c"/>
  <use x="104.359375" y="644" xlink:href="#a"/>
  <use x="123.347656" y="644" xlink:href="#f"/>
  <use x="142.242188" y="644" xlink:href="#b"/>
  <use x="155.628906" y="644" xlink:href="#a"/>
  <use x="174.617188" y="644" xlink:href="#m"/>
  <use x="204.410156" y="644" xlink:href="#l"/>
  <use x="224.453125" y="644" xlink:href="#k"/>
  <use x="252.453125" y="644" xlink:href="#j"/>
  <use x="272.617188" y="644" xlink:href="#f"/>
  <use x="291.511719" y="644" xlink:href="#a"/>
  <use x="310.5" y="644" xlink:href="#i"/>
  <use x="322.683594" y="644" xlink:href="#e"/>
  <use x="342.617188" y="644" xlink:href="#h"/>
  <use x="361.960938" y="644" xlink:href="#v"/>
  <use x="389.828125" y="644" xlink:href="#e"/>
  <use x="409.757812" y="644" xlink:href="#u"/>
  <use x="426.425781" y="644" xlink:href="#h"/>
  <use x="436.023438" y="644" xlink:href="#t"/>
  <use x="445.621094" y="644" xlink:href="#g"/>
  <use x="70" y="672" xlink:href="#i"/>
  <use x="82.183594" y="672" xlink:href="#c"/>
  <use x="95.992188" y="672" xlink:href="#d"/>
  <use x="115.226562" y="672" xlink:href="#g"/>
  <use x="154.152344" y="672" xlink:href="#b"/>
  <use x="167.535156" y="672" xlink:href="#s"/>
  <use x="187.46875" y="672" xlink:href="#a"/>
  <use x="216.207031" y="672" xlink:href="#r"/>
  <use x="239.640625" y="672" xlink:href="#d"/>
  <use x="258.878906" y="672" xlink:href="#e"/>
  <use x="278.8125" y="672" xlink:href="#q"/>
  <use x="308.492188" y="672" xlink:href="#p"/>
  <use x="329.015625" y="672" xlink:href="#c"/>
  <use x="342.820312" y="672" xlink:href="#d"/>
  <use x="362.058594" y="672" xlink:href="#o"/>
  <use x="371.65625" y="672" xlink:href="#a"/>
  <use x="390.648438" y="672" xlink:href="#n"/>
  <use x="407.242188" y="672" xlink:href="#b"/>
 </g>
</svg>
