<?xml version="1.0" encoding="utf-8"?>
<!-- Generator: Adobe Illustrator 24.0.2, SVG Export Plug-In . SVG Version: 6.00 Build 0)  -->
<svg version="1.1" id="Layer_1" xmlns="http://www.w3.org/2000/svg" xmlns:xlink="http://www.w3.org/1999/xlink" x="0px" y="0px"
	 viewBox="0 0 142 88.9" style="enable-background:new 0 0 142 88.9;" xml:space="preserve">
<style type="text/css">
	.st0{fill:#ff4233;}
</style>
<path id="Path_242" class="st0" d="M0,12.2h15.2v4.1H5v3.6h8.8v3.9H5v4.3h10.4v4.2H0V12.2z M17,27.3v-9.4h4.5v8.5
	c0,1.6,0.7,2.4,2.2,2.4c1.6,0,2.5-1.2,2.5-2.9v-8h4.6v14.4h-4.4v-1.8h-0.1c-1,1.4-2.6,2.3-4.3,2.2C18.7,32.7,17,30.5,17,27.3z
	 M32.9,17.9h4.4v2.2h0.1c0.7-1.5,2.2-2.5,3.9-2.5c0.3,0,0.6,0,0.9,0.1v3.9h-0.1c-2.8-0.4-4.6,1-4.6,4.1v6.5h-4.6V17.9z M42.7,25.1
	c0-4.2,3.4-7.7,7.6-7.7c4.2,0,7.7,3.4,7.7,7.6c0,4.2-3.4,7.7-7.6,7.7c0,0,0,0-0.1,0c-4.1,0.2-7.5-3-7.7-7
	C42.7,25.5,42.7,25.3,42.7,25.1L42.7,25.1z M53.4,25.1c0-2.6-1.1-4.4-3.1-4.4s-3,1.8-3,4.4s1,4.3,3,4.3S53.4,27.7,53.4,25.1
	L53.4,25.1z M59.5,17.9h4.4v1.7H64c1-1.4,2.6-2.2,4.4-2.2c3.8,0,6.1,3.3,6.1,7.6c0,4.7-2.5,7.6-6.3,7.6c-1.6,0.1-3.1-0.7-4.1-1.9
	h-0.1V37h-4.6L59.5,17.9z M69.9,25.3c0-2.5-0.9-4.1-2.9-4.1c-2,0-3,1.8-3,4.1s1.1,3.9,3.1,3.9C68.8,29.2,69.9,27.7,69.9,25.3
	L69.9,25.3z M75.9,25.1c-0.2-4,2.9-7.4,6.9-7.6c0.2,0,0.3,0,0.5,0c1.8-0.1,3.6,0.6,4.9,1.8c1.7,1.6,2.6,4.1,2.5,7H80.4
	c0.3,1.9,1.3,3.1,3.2,3.1c1,0.1,2-0.5,2.4-1.4h4.5c-0.4,1.4-1.2,2.6-2.4,3.4c-1.3,0.9-2.9,1.4-4.5,1.3c-4,0.2-7.4-2.8-7.7-6.9
	C75.9,25.6,75.9,25.3,75.9,25.1L75.9,25.1z M86.1,23.5c0-1.5-1.2-2.8-2.7-2.8c-1.7,0-2.6,1.1-2.9,2.8H86.1z M92,28.3
	c0-3.2,2.5-4.1,5.5-4.5c2.7-0.3,3.7-0.6,3.7-1.6c0-0.9-0.6-1.5-2-1.5c-1.5,0-2.2,0.6-2.3,1.9h-4.2c0.1-2.7,2.2-4.9,6.5-4.9
	c1.6-0.1,3.3,0.3,4.7,1.2c1.3,1,1.9,2.5,1.8,4.1V30c0,1.2,0.1,1.8,0.5,2.1v0.2h-4.4c-0.3-0.5-0.4-1-0.5-1.6h-0.1
	c-1,1.4-2.6,2.1-4.3,2C94,32.6,92,31.1,92,28.3L92,28.3z M101.2,27.1v-1.7c-0.8,0.3-1.5,0.6-2.4,0.8c-1.8,0.4-2.5,0.8-2.5,1.9
	c0,1.2,0.8,1.6,2,1.6c1.4,0.2,2.7-0.9,2.9-2.3C101.2,27.3,101.2,27.2,101.2,27.1L101.2,27.1z M107.8,17.9h4.4v2h0.1
	c0.9-1.5,2.6-2.4,4.4-2.4c3.1,0,5,2.2,5,5.4v9.4h-4.6v-8.4c0-1.5-0.8-2.6-2.2-2.6c-1.5,0-2.5,1.3-2.5,3v7.9h-4.6L107.8,17.9z
	 M0,50.4c0-6,3.9-10.5,9.9-10.5c2.1-0.1,4.1,0.6,5.7,1.8c1.7,1.3,2.8,3.4,3,5.5h-5c-0.2-1.9-1.9-3.3-3.8-3.2c-3.3,0-4.8,2.7-4.8,6.4
	c0,3.7,1.9,6.3,4.8,6.3c2,0.1,3.7-1.4,3.9-3.3h5c-0.1,2-1,3.8-2.4,5.1c-1.7,1.6-4.1,2.4-6.4,2.3C4,60.8,0,56.4,0,50.4z M20.7,55.4
	V46h4.5v8.5c0,1.6,0.7,2.4,2.2,2.4c1.6,0,2.5-1.2,2.5-2.9v-8h4.6v14.4h-4.4v-1.8H30c-1,1.4-2.6,2.3-4.3,2.2
	C22.4,60.8,20.7,58.6,20.7,55.4L20.7,55.4z M36.7,40.3h4.6v20.1h-4.6V40.3z M44.9,56.6v-7.7H43V46h1.9v-4.6h4.5V46H52v2.9h-2.6v6.7
	c0,1.1,0.6,1.4,1.6,1.4c0.4,0,0.8,0,1,0v3.3c-0.8,0.2-1.7,0.2-2.5,0.2C46.8,60.5,44.9,59.7,44.9,56.6L44.9,56.6z M53.8,55.4V46h4.5
	v8.5c0,1.6,0.7,2.4,2.2,2.4c1.6,0,2.5-1.2,2.5-2.9v-8h4.6v14.4h-4.4v-1.8h-0.1c-1,1.4-2.6,2.3-4.3,2.2
	C55.6,60.8,53.8,58.6,53.8,55.4L53.8,55.4z M69.8,46h4.4v2.2h0.1c0.7-1.5,2.2-2.5,3.9-2.5c0.3,0,0.6,0,0.9,0.1v3.9H79
	c-2.8-0.4-4.6,1-4.6,4.1v6.5h-4.6L69.8,46z M79.5,56.3c0-3.2,2.5-4.1,5.5-4.5c2.7-0.3,3.6-0.6,3.6-1.6c0-0.9-0.6-1.5-2-1.5
	c-1.5,0-2.2,0.6-2.3,1.9h-4.2c0.1-2.7,2.2-4.9,6.5-4.9c1.6-0.1,3.3,0.3,4.7,1.2c1.3,1,1.9,2.5,1.8,4.1v7.2c0,1.2,0.1,1.8,0.5,2.1
	v0.2h-4.4c-0.3-0.5-0.4-1-0.5-1.6h-0.1c-1,1.4-2.6,2.1-4.3,2C81.5,60.7,79.5,59.2,79.5,56.3L79.5,56.3z M88.8,55.2v-1.7
	c-0.8,0.3-1.5,0.6-2.4,0.8c-1.8,0.4-2.5,0.8-2.5,1.9c0,1.2,0.8,1.6,2,1.6c1.4,0.2,2.7-0.9,2.9-2.3C88.7,55.4,88.8,55.3,88.8,55.2
	L88.8,55.2z M95.3,40.3h4.6v20.1h-4.6V40.3z M0,68.4h14.9v4.2H5v4.1h8.3v4H5v7.8H0V68.4z M15,81.3c0-4.2,3.4-7.7,7.6-7.7
	c4.2,0,7.7,3.4,7.7,7.6c0,4.2-3.4,7.7-7.6,7.7c0,0,0,0-0.1,0c-4.1,0.2-7.5-3-7.7-7C15,81.7,15,81.5,15,81.3L15,81.3z M25.7,81.3
	c0-2.6-1.1-4.4-3.1-4.4s-3,1.8-3,4.4s1,4.4,3,4.4S25.7,83.9,25.7,81.3L25.7,81.3z M31.7,83.5v-9.4h4.5v8.5c0,1.6,0.7,2.4,2.2,2.4
	c1.6,0,2.5-1.2,2.5-2.9v-8h4.6v14.4h-4.4v-1.8H41c-1,1.4-2.6,2.3-4.3,2.2C33.4,88.9,31.7,86.7,31.7,83.5L31.7,83.5z M47.7,74.1h4.4
	v2h0.1c0.9-1.5,2.6-2.4,4.4-2.4c3.1,0,5,2.2,5,5.4v9.3H57V80c0-1.5-0.8-2.6-2.2-2.6c-1.5,0-2.5,1.3-2.5,3v7.9h-4.6L47.7,74.1z
	 M63,81.2c0-4.5,2.6-7.6,6.3-7.6c1.6-0.1,3.1,0.7,4,2.1h0.1v-7.3H78v20.1h-4.4v-1.9h-0.1c-0.9,1.5-2.5,2.4-4.2,2.4
	C65.6,88.9,63,86,63,81.2L63,81.2z M73.5,81.2c0-2.4-1-4.2-3-4.2c-1.8,0-2.9,1.7-2.9,4.1c0,2.5,1.1,4.1,2.8,4.1
	C72.4,85.3,73.5,83.6,73.5,81.2z M79.4,84.4c0-3.2,2.5-4.1,5.5-4.5c2.7-0.3,3.6-0.6,3.6-1.6c0-0.9-0.6-1.5-2-1.5
	c-1.5,0-2.2,0.6-2.3,1.9h-4.2c0.1-2.7,2.2-4.9,6.5-4.9c1.6-0.1,3.3,0.3,4.7,1.2c1.3,1,1.9,2.5,1.8,4.1v7.2c0,1.2,0.1,1.8,0.5,2.1
	v0.2h-4.4c-0.3-0.5-0.4-1-0.5-1.6h-0.1c-1,1.4-2.6,2.1-4.3,2C81.5,88.8,79.4,87.3,79.4,84.4L79.4,84.4z M88.7,83.3v-1.7
	c-0.8,0.3-1.5,0.6-2.4,0.8c-1.8,0.4-2.5,0.8-2.5,1.9c0,1.2,0.8,1.6,2,1.6c1.4,0.2,2.7-0.9,2.9-2.3C88.7,83.5,88.7,83.4,88.7,83.3
	L88.7,83.3z M95.9,84.6v-7.7H94v-2.9h1.9v-4.5h4.5v4.5h2.6v2.9h-2.6v6.7c0,1.1,0.6,1.4,1.6,1.4c0.4,0,0.8,0,1,0v3.3
	c-0.8,0.2-1.7,0.2-2.5,0.2C97.8,88.6,95.9,87.7,95.9,84.6L95.9,84.6z M105.2,68.4h4.6v3.7h-4.6V68.4z M105.2,74.1h4.6v14.4h-4.6
	V74.1z M111.2,81.3c0-4.2,3.4-7.7,7.6-7.7c4.2,0,7.7,3.4,7.7,7.6s-3.4,7.7-7.6,7.7c0,0,0,0-0.1,0c-4.1,0.2-7.5-3-7.7-7
	C111.2,81.7,111.2,81.5,111.2,81.3L111.2,81.3z M121.9,81.3c0-2.6-1.1-4.4-3.1-4.4s-3,1.8-3,4.4s1,4.4,3,4.4S121.9,83.9,121.9,81.3
	L121.9,81.3z M128.1,74.1h4.4v2h0.1c0.9-1.5,2.6-2.4,4.4-2.4c3.1,0,5,2.2,5,5.4v9.3h-4.6V80c0-1.5-0.8-2.6-2.2-2.6
	c-1.5,0-2.5,1.3-2.5,3v7.9h-4.6L128.1,74.1z M0,4.2h142V0H0V4.2z"/>
</svg>
