<svg xmlns="http://www.w3.org/2000/svg" width="8em" height="8em" version="1.1" viewBox="0 0 752 752">
 <path d="m577.27 333.02c0 15.945-5.6055 29.52-16.816 40.727l-4.7344 4.5c0.79688 0.94531 1.7383 2.5234 2.8516 4.7344 2.2109 4.1055 3.3086 8.3672 3.3086 12.785 0 6.9492-1.0273 12.711-3.0781 17.285 11.367 12.941 19.184 31.727 23.445 56.352 2.0469 9.9453 3.5508 23.207 4.4961 39.781 0.3125 1.2578-0.085938 2.4453-1.1836 3.5508-0.94141 0.94141-2.125 1.4219-3.5508 1.4219l-124.79 0.003906c-1.2695 0-2.3672-0.47656-3.3203-1.4219-1.0977-1.1094-1.4961-2.293-1.1836-3.5508 1.8945-26.836 6.2422-52.887 13.023-78.141 4.8906-14.52 11.926-25.418 21.078-32.676-6.1602-4.2578-13.336-8.207-21.551-11.84-14.836-6.4688-27.785-9.707-38.828-9.707l-7.1055 0.47266c2.8398 5.6836 5.125 12.629 6.8633 20.836 6.793 33.309 11.055 70.328 12.793 111.05 0.15625 1.4219-0.24219 2.6055-1.1836 3.5508-0.95313 0.94141-2.1367 1.4219-3.5508 1.4219h-112.71c-1.4258 0-2.6094-0.47656-3.5508-1.4219-0.78516-1.1094-1.1836-2.2109-1.1836-3.3164 0-42.777 4.5781-81.301 13.734-115.55 2.3672-7.1055 5.3672-13.574 8.9961-19.418-4.2617-0.47266-8.2109-0.71094-11.84-0.71094-13.578 0-25.262 1.5-35.047 4.5l-7.5781 3.3164c8.832 8.207 15.07 20.285 18.703 36.23 6.6289 30.781 10.742 61.25 12.312 91.402 0.3125 1.2578-0.074219 2.4453-1.1836 3.5508-0.94141 0.94141-2.125 1.4219-3.5508 1.4219h-141.36c-1.4258 0-2.6094-0.47656-3.5508-1.4219-1.0977-1.1094-1.4961-2.3672-1.1836-3.793l0.94141-12.547c1.2695-16.262 3.3945-31.176 6.4023-44.754 4.4141-21.312 11.84-38.672 22.254-52.094-0.94141-4.2578-0.55469-9.3906 1.1836-15.391 2.3672-7.418 5.1328-12.867 8.2891-16.34 2.3672-2.3672 6.3945-5.4414 12.082-9.2305l-4.2617-3.793c-11.527-11.523-17.285-25.258-17.285-41.195 0-15.473 5.6797-29.051 17.051-40.734 11.367-11.359 25.02-17.051 40.965-17.051 15.945 0 29.598 5.6836 40.965 17.051 11.043 11.367 16.574 24.945 16.574 40.734 0 6.4688-0.87109 12.781-2.6094 18.941l6.6289-0.47656c8.9961 0 18.941 1.8203 29.84 5.4453l-0.95312-0.94531c-11.211-11.367-16.809-25.02-16.809-40.965 0-15.629 5.5977-29.199 16.809-40.727 11.367-11.367 25.02-17.051 40.965-17.051 16.262 0 29.91 5.6797 40.965 17.051 11.367 11.684 17.051 25.258 17.051 40.727 0 15.945-5.6797 29.598-17.051 40.965-2.5234 2.5234-4.9766 4.6562-7.3438 6.3945 10.266-2.207 20.211-3.3086 29.84-3.3086 5.3672 0 10.184 0.39453 14.441 1.1836l-0.47266-7.8125c0-15.629 5.6875-29.285 17.051-40.965 11.211-11.203 24.789-16.812 40.738-16.812 16.094 0 29.754 5.6055 40.957 16.812 11.203 11.52 16.809 25.176 16.809 40.961zm-23.68-34.336c-8.9961-9.3164-20.367-13.969-34.094-13.969-13.422 0-24.707 4.6562-33.859 13.969-9.6289 9.6289-14.449 21.074-14.449 34.336 0 4.4219 0.62891 8.9219 1.8945 13.496 1.0977 4.1055 2.9219 8.1328 5.4453 12.082v0.23828c1.8945 2.8398 4.1836 5.6055 6.8633 8.2891 8.6836 8.3672 18.711 13.023 30.074 13.969h4.0352c3.4648 0 6.0742-0.15625 7.8047-0.47656l1.8945-0.23828c1.1094 0 2.1367-0.23828 3.0781-0.71094 5.2109-1.4219 9.8711-3.3906 13.965-5.918 2.5234-1.8906 4.9766-4.1016 7.3438-6.625 9.4727-9.3164 14.207-20.68 14.207-34.098s-4.7305-24.871-14.203-34.344zm-115.09 50.91c8.5273 0.15625 17.527 1.4219 27 3.7891l-0.95312-2.1328c-3.1523-1.4219-8.7617-2.125-16.809-2.125-2.0469-0.003906-5.1289 0.15234-9.2383 0.46875zm32.922 15.629c-11.996-4.2578-24.707-6.3945-38.129-6.3945-7.7344 0-15.305 0.87109-22.727 2.6055l-2.6094 0.47266c2.2109 1.8945 4.2617 4.1875 6.1602 6.8672 4.5781-0.94531 8.6758-1.4219 12.312-1.4219 12.469 0 26.758 3.5508 42.855 10.656 10.898 4.8906 19.582 9.8633 26.047 14.918 2.8516-1.4258 6.3164-2.6836 10.422-3.793-10.102-2.3672-19.098-7.4961-27-15.391-3.1523-3.1523-5.5898-5.9961-7.332-8.5195zm25.578 37.414c-9.6289 5.8398-17.059 16.262-22.262 31.258-5.9961 22.574-10.102 46.176-12.312 70.801h99.453c-2.0547-24.156-5.2891-46.648-9.7148-67.484-0.94141-4.5781-2.125-8.918-3.5508-13.023-4.5781 2.5234-10.172 3.7891-16.809 3.7891-9.7852 0-15.477-2.918-17.051-8.7617-1.4258-4.5781-0.95312-9.4727 1.4141-14.688l3.3203-6.625-4.2617-0.47656c-6.4727 0.16016-12.469 1.8945-18 5.2148zm35.273-13.023c-0.47266 2.3672-1.0977 4.6562-1.8945 6.8672v0.23828l-0.94141 2.1328-0.24219 0.70703-4.2617 9.2344c-1.5742 3.0039-1.8867 5.6055-0.94141 7.8125 0 1.2656 2.6094 1.8906 7.8125 1.8906 6.9492 0 12.07-1.6562 15.391-4.9727l1.8945-2.3672c2.2109-3.3164 3.3086-8.4453 3.3086-15.391 0-2.6797-0.78516-5.5273-2.3672-8.5234l-1.8945-3.5508c-4.4219 2.2109-8.7617 3.8633-13.023 4.9727zm29.129 45.695c4.7344 22.582 8.0469 45.699 9.9453 69.379h5.6797c-0.94141-12.473-2.2812-23.68-4.0273-33.629-2.5234-14.992-6.5508-27.625-12.07-37.883zm-177.12-188.01c-13.266 0-24.621 4.7344-34.094 14.207-9.4727 9.7852-14.207 21.156-14.207 34.094 0 13.422 4.7344 24.863 14.207 34.336 9.3164 9.3164 20.672 13.969 34.094 13.969 13.734 0 25.105-4.6562 34.094-13.969 9.6289-9.6289 14.449-21.07 14.449-34.336 0-13.105-4.8203-24.465-14.449-34.094-9.4727-9.4688-20.828-14.207-34.094-14.207zm-36.23 101.82c-12.152-5.0547-23.367-7.582-33.625-7.582-3.1523 0-6.9492 0.39844-11.367 1.1836l-4.0273 6.1562c7.8906-1.4219 16.262-2.125 25.105-2.125 7.1094 0 15.07 0.78516 23.914 2.3672zm-52.094-12.785c3.3203-6.793 4.9766-14.363 4.9766-22.73 0-13.105-4.6602-24.469-13.977-34.098-9.4727-9.4727-20.828-14.207-34.094-14.207s-24.621 4.7344-34.094 14.207c-9.6289 9.6289-14.449 21-14.449 34.098 0 13.574 4.8203 25.02 14.449 34.336 2.3672 2.3672 5.2109 4.6562 8.5195 6.8633 2.2109 1.582 4.4219 2.7656 6.6289 3.5508 1.8945 0.78906 5.0469 1.8203 9.4727 3.0781 7.7344 1.2656 15.234 0.94531 22.496-0.94531 5.0469-1.5781 9.6289-3.707 13.734-6.3945l7.5781-6.1562c3.1523-3.1602 6.0742-7.0234 8.7578-11.602zm-6.3906 32.914c10.258-3.3164 22.969-4.9766 38.129-4.9766 4.8906 0 10.102 0.31641 15.625 0.94531l2.8398 0.47656c2.3672-2.3672 4.7344-4.4219 7.1055-6.1602-12.312-2.207-22.012-3.3086-29.117-3.3086-15.16 0-28.34 1.9688-39.555 5.918h-0.23828c-5.0469 3.3086-10.184 5.7617-15.391 7.3398l-2.8398 1.4219c3.6289 1.1016 7.0195 2.5234 10.172 4.2617 6.793-3.1562 11.211-5.1328 13.27-5.918zm-36.461 8.9961-6.875 0.47266c0 11.047-0.47266 17.84-1.4141 20.363-3.3203 9.7852-12.082 14.68-26.289 14.68-3.4648 0-6.6289-0.47266-9.4727-1.4219l-1.4258 3.7891c-8.3633 29.363-13.254 58.887-14.68 88.559h113.43c-1.8945-28.258-5.8438-56.594-11.84-85.008-3.6367-16.574-10.578-28.258-20.836-35.039-5.3672-3.4727-11.926-5.6055-19.652-6.3984zm-16.109-8.7617-12.082-4.9727c-7.7344 4.8906-12.312 8.207-13.734 9.9453-2.2109 2.2109-4.1836 6.3945-5.918 12.551-1.5742 5.2109-1.8867 8.7617-0.94141 10.656 0.62891 1.1016 1.582 2.125 2.8398 3.0742l2.3672 1.4219c2.3672 1.4258 5.3672 2.1328 8.9961 2.1328 9.7852 0 15.633-2.7617 17.52-8.2891 0.48438-2.6797 0.71094-9.6289 0.71094-20.832zm158.41-4.7344-0.23047-0.23828c-1.7383-1.1016-3.9492-2.0547-6.6289-2.8477-2.5234-0.62891-5.4453-1.1016-8.7617-1.4219-2.6914 0-4.9766 0.3125-6.8711 0.94531h-0.23047l-4.2617 0.94531c-6.4727 2.2109-11.996 6.0742-16.574 11.598-4.7344 5.3711-8.8398 13.023-12.312 22.973-8.5273 32.203-12.949 68.191-13.266 107.98h103.25c-1.8945-37.887-6.0742-72.77-12.551-104.66-1.7383-9.1602-4.6602-16.973-8.7617-23.441-3.6406-5.3594-7.9062-9.3047-12.797-11.828zm-194.64 42.859c-8.6836 11.996-14.992 27.312-18.941 45.938-2.5234 11.527-4.6523 26.047-6.3945 43.566l-0.47266 7.582 8.5234-0.003907c1.4258-30.309 6.4727-60.773 15.16-91.402l2.125-5.4414z" fill="#fff" fill-rule="evenodd"/>
</svg>