<svg xmlns="http://www.w3.org/2000/svg" viewBox="0 0 1190.55 311.81"><defs><style>.cls-1{fill:#fff;}.cls-2{fill:#171213;}.cls-3{fill:#110a0c;}.cls-4{fill:#130d0e;}.cls-5{fill:#140e0f;}.cls-6{fill:#150f10;}.cls-7{fill:#10090b;}.cls-8{fill:#120c0d;}.cls-9{fill:#1a1516;}.cls-10{fill:#252020;}.cls-11{fill:#1d1819;}.cls-12{fill:#1c1617;}</style></defs><title>Risorsa 15</title><g id="Livello_2" data-name="Livello 2"><g id="Livello_1-2" data-name="Livello 1"><rect class="cls-1" width="1189.86" height="311.81"/><path d="M0,290.68V17.39H1190.55V290.68H0ZM741.29,134.89c.63-.37,1.25-.75,1.89-1.14.53,5.89.39,13.28-.23,15.28a11.85,11.85,0,0,0,5.7,2.74c2.12.52,4.17,1.3,6.3,2,.36-2.87.36-2.87,1.57-4.17.13,3.09-.19,6.1,1.05,8.91.13.31-.12.77-.14,1.17,0,.8-.32,1.75,0,2.39.85,1.67.55,3.39.56,5.09,0,11.47,0,22.94,0,34.41a23.16,23.16,0,0,0,.1,4.17,45.09,45.09,0,0,1,0,14.34,7,7,0,0,1-4.29,5.94c-1.72.82-3.36,1.82-5.12,2.57a14,14,0,0,0-5.45,4.47c-.95,1.16-1.61,2.2-1.19,3.5.75,2.37.44,4.78.67,7.16a13.45,13.45,0,0,0,.46,1.95c.3,1.2.6,2.4.89,3.6.5,2.14,1,4.27,3.55,4.93a7.57,7.57,0,0,0,2.36.29c3-.16,5.92-.61,8.88-.59,4.35,0,8.7.39,13.05.62,1.82.1,3.66-.27,5.44.58a3,3,0,0,0,2.38,0c1.35-.71,2.72-.46,4.07-.47,5.79-.07,11.59-.07,17.38-.1a13.53,13.53,0,0,0,2.78-.08,67.82,67.82,0,0,1,10.81-1.26,6.67,6.67,0,0,0,3.84-1.2c.91-.67,1.79-1.37,2.73-2a14.14,14.14,0,0,0,5.45-16.28c-1.13-3-2.87-5.84-6.12-6.88a51.37,51.37,0,0,1-6.4-2.91,9.84,9.84,0,0,1-4.17-4.16c-1.8-3.06-2.14-6.36-2.14-9.83q.06-38.58,0-77.17a25.2,25.2,0,0,0-.89-6.69c-1.56-5.67-5.25-10-9.6-13.75a9.75,9.75,0,0,0-4.82-2.3c-3.26-.39-6.41-.17-9.41,2a79,79,0,0,1-14.42,8.55c-4.4,1.92-9,3.17-13.32,5.35-3.17,1.61-6.79,2.17-9.81,4.15-1.9,1.25-3.82,2.47-4.37,4.91a5.76,5.76,0,0,0-1.4,4.55c.08,2-.53,4.07,1.36,6Zm277.43-11.78c-2.45,0-4.35,1.33-6.18,2.76l-1.46.72c-1.6,0-2.08,1.78-3.58,2.17a10.35,10.35,0,0,0-3.76,2.17c-3.37,2.76-7.73,4.26-10.29,8.07-.23.35-.75.49-1.09.78a40.37,40.37,0,0,0-3.78,3.49c-1.63,1.87-2.91,4-4.59,5.86a23.08,23.08,0,0,0-5.26,8.53c-1.58,4.64-4,9-4.7,14a52.21,52.21,0,0,0-1.08,6.95c-.07,4.68-.26,9.35.53,14.05.51,3,1.31,5.85,2,8.8.37-1.93.15-3.87.55-5.76.51,2.61.77,5.21,1.12,7.8a32.73,32.73,0,0,0,1,5.68,37.54,37.54,0,0,0,7.31,13c1.85,2.29,3.65,4.62,5.52,6.89a19.13,19.13,0,0,0,2.21,2.2c1.2,1,2.46,2,3.68,3a20.13,20.13,0,0,0,1.53,1.4q6.25,4.27,12.56,8.49a12.15,12.15,0,0,0,1.56.71V235.6l2.94-1.88c-.38,4.34-.73,8.28-1.08,12.3a10.4,10.4,0,0,0,1.28.71,62.56,62.56,0,0,0,13,4.37l-.1-.09c.21.24.38.65.63.7,3.4.62,6.72,1.58,10.09,2.3a83.29,83.29,0,0,0,14.7,1.87c6.15.18,12.3.19,18.36-1.32,3.35-.84,6.79-1.3,10-2.81,2.53-1.2,5.16-2.17,7.73-3.28a18.8,18.8,0,0,0,2.71-1.31,67.8,67.8,0,0,0,13-10.34c1.91-2,3.93-3.94,5.89-5.91a13.19,13.19,0,0,0,1.66-1.77q4.07-6,8-12c2.36-3.56,2.58-9.42.35-12.85a18,18,0,0,0-2.83-3c-4.7-4.48-10.69-4.37-15.75-2.35a3.27,3.27,0,0,0-1.15.69c-1.48,1.51-3.3,2.52-4.59,4.41-3.06,4.47-6.58,8.63-10,12.85a16.94,16.94,0,0,1-3.46,3.41,38.88,38.88,0,0,1-18.12,6.4,20.51,20.51,0,0,1-8.83-.62c-3.16-1.06-6.5-1.66-9.14-4-1.71-1.49-3.43-3-5.24-4.36a30.2,30.2,0,0,1-7.84-8.67,34.65,34.65,0,0,1-3.62-10.37,14.87,14.87,0,0,1,2.61-12.71,12.06,12.06,0,0,1,10.21-5.18c6.72.18,13.44-.07,20.16.08s13.33-.68,20,.64c2.2.44,4.51.36,6.7.86a31.36,31.36,0,0,0,8.64,1.22c1.45-.06,2.88-.64,4.31-.62,4.36,0,8.07-1.87,11.67-3.88a15.46,15.46,0,0,0,7.18-8.32,14.19,14.19,0,0,0,1.27-5.22c-.06-3.89.25-7.76-.65-11.64-.55-2.37-1.89-4.3-2.86-6.43-2-4.37-5.21-7.93-8.38-11.43a43,43,0,0,0-6.62-5.32,148.6,148.6,0,0,0-14.83-9.3c-4.5-2.55-9.63-3.61-14.21-6a19.6,19.6,0,0,1-3-1.51,14.71,14.71,0,0,0-7.16-2.61c-5.37-.66-10.69.29-15.86,1.61-6.35,1.62-12.58,3.71-18.57,5.5,1,7.4-.79,14.63-.68,21.93-.82-2.4-1.25-4.85-2-7.21a12.85,12.85,0,0,1-.12-6.74c.47-2.41.69-4.86,1.06-7.53a16,16,0,0,0-2.63.31c-1.81.56-3.6,1.18-5.35,1.9a9.53,9.53,0,0,0-1.8,1.3ZM271.24,216.28l.66.66a2,2,0,0,0,0,.69,45,45,0,0,0,8,12.41,68,68,0,0,0,9.71,9.24C295,243.35,300.67,247,307,249.41c2.38.89,4.63,2.38,7.33,2.35l0,0c0,.11.06.3.12.31,3.45.8,6.83,1.86,10.29,2.65,4.79,1.11,9.64,1.79,14.47,2.53,3.45.53,7,.27,10.54.67a35.35,35.35,0,0,0,9.82-.67,62.26,62.26,0,0,0,6.17-1.35,55.83,55.83,0,0,0,6.24-2.35,7.69,7.69,0,0,0,1.53-1.12l-.1.1c1.67-.62,3.4-1.11,5-1.89,2.81-1.38,5.55-2.91,8.3-4.43,6.07-3.35,11.41-7.73,16.62-12.24a56.37,56.37,0,0,0,11.5-13.53,73.68,73.68,0,0,0,6.36-12.6,62,62,0,0,0,3.72-21.14c0-6.79.19-13.59-.6-20.38A39.63,39.63,0,0,0,423,159.7a38.15,38.15,0,0,0-5.61-11.41c-2.82-4-5.22-8.32-9.07-11.5-1.93-1.6-4-3-5.92-4.61-2.9-2.5-5.6-5.23-8.81-7.34-2.53-1.67-5-3.39-7.7-4.82-2.84-1.53-5.84-2.77-8.8-4.09-6.19-2.75-12.54-4.82-19.45-4.68-4.17.08-8.34,0-12.51,0-.76,0-1.52.14-2,.19-.37,6.33-.72,12.4-1.08,18.47h-.32c-.33-5.91-.67-11.82-1-18.06-2.24-.21-4.35-.49-6.47-.58-2.32-.1-4.64,0-7,0a7.48,7.48,0,0,0-2.07.06c-5.33,1.63-10.86,2.76-15.51,6.13a10.66,10.66,0,0,1-2.31,1.39c-4.14,1.62-5.3,2.42-8.1,5.63a8.81,8.81,0,0,1-1.66,1.19c-.1,4.39.16,8.81-.3,13.23-.67-3.83.23-7.8-1.34-11.63-1.2,1.14-2.32,2.29-3.52,3.33s-2.66,2.12-3.87,3.07c.09,4.55.14,8.77.55,13a123.91,123.91,0,0,1,.13,14.93c-.06,2.64-.56,5.26-.86,7.88a70.22,70.22,0,0,1-1.12-10.95c-.13-6.6-.07-13.21-.09-19.81,0-1,0-2,0-3.45-3.22,3.19-5.21,6.21-5,10.56.52,9.1-.25,18.22.65,27.34.52,5.28.14,10.65.15,16a9.61,9.61,0,0,1-.18,1.28c-.75-4.33-.71-8.69-1-13-.67-9-.63-18-.87-27,0-1.27,0-2.54,0-3.82,0-.85-.1-1.69-.17-2.73-1,1.45-1.8,2.64-2.59,3.86a57.77,57.77,0,0,0-7,14.13c-1.24,4-2.65,7.79-2.94,12.06-.25,3.69-1.22,7.35-1.24,11.12,0,2,.6,4.14-.61,6.08-.18.28.08.86.18,1.3a6.69,6.69,0,0,1,.44,1.94c-.61,5,1,9.72,1.6,14.56A15.61,15.61,0,0,0,271.24,216.28Zm329.57,16,.06.06a7.53,7.53,0,0,0-4-3.37c-.21.42-.37.73-.52,1a51.1,51.1,0,0,1-.4-7.67,19.68,19.68,0,0,0,0-2.43c-.39-3.15-1.13-6.29-1.21-9.45-.17-7-.18-14-.8-21-.15-1.7.1-3.4-.56-5.1a15.62,15.62,0,0,1-.77-4.33,22.6,22.6,0,0,1,.55-5.36c.55-3.58.56-7.25.79-10.89,0-.34-.13-.79,0-1,1.15-1.68.46-3.57.67-5.35a48.42,48.42,0,0,0,.64-5.71c0-3.18.26-6.34-.52-9.55-.47-1.91-.69-3.95-1.27-5.87-1.39-4.56-4.06-8.48-6.34-12.61-1.23-2.22-3.14-3.47-5.16-4.72-1.53-.94-3-2-4.56-2.88-5.37-3.18-11.06-5.32-17.41-5.43a54,54,0,0,0-12.46,1.32,120.7,120.7,0,0,0-14.15,3.86c-3.26,1.13-6.38,2.64-9.82,3.36-1.37.29-3.17.43-4.11,2l.09-.08c-2.62.6-4.44-1.38-6.65-2.1-.74-.25-1.23-1.2-1.88-1.77-1.63-1.46-3.33-2.83-4.9-4.34a3,3,0,0,0-2.89-.72c-2.77.6-5.49,1.41-8.37,1.39-3.86,1.91-8.14,2.44-12.19,3.75-3.86,1.24-7.71,2.51-11.59,3.7a30.11,30.11,0,0,1-5.9,1.46A20.49,20.49,0,0,0,451,129.41c-3.36,3.87-4.59,9.48-1.67,13.79a21,21,0,0,0,4.35,4.22,50.07,50.07,0,0,0,4.41,3c.31,7.27.62,14.18.9,21.08.26,6.21,0,12.41.54,18.65.74,8.13.1,16.36.83,24.54.21,2.42-1,4.56-1.94,6.68-1.8,3.91-5.5,5.86-9.12,7.24s-5,3.86-6.32,6.92c-1,2.34-.62,4.74-.62,7.11a9.78,9.78,0,0,0,7,9.12c5.08,1.73,5.46,1.74,11.54.75a2.64,2.64,0,0,1,1.61.38,8.11,8.11,0,0,0,5,1c4.24-.23,8.48-.57,12.72-.7s8.35.09,12.51,0,7.82.84,11.65,1.79a12.46,12.46,0,0,0,5.69-.12c3.67-.76,6.57-2.86,9.48-4.86a9.18,9.18,0,0,0,3.56-6.36,22.62,22.62,0,0,0,0-5.87c-.31-3.29-2.42-5.47-4-8-.31-.52-1.32-.62-2.11-1-.72,3.14.24,6.24-1,9.63-1-1.54-.59-2.7-.65-3.77-.06-1.28-.06-2.55,0-3.83,0-1.08.2-2.16.36-3.84l-5.27-4.72V217.1c0-2.09,0-4.18,0-6.26s.05-4-.07-5.91.06-4,0-6c-.08-2.16-.45-4.31-.51-6.47-.11-3.82-.08-7.65-.11-11.47a16.19,16.19,0,0,0-.09-3.12,72,72,0,0,1-1.27-16.76,4.91,4.91,0,0,1,.83-2.86c2.28-2.71,4.65-5.43,8.17-6.6,2.78-.92,5.58-1.8,8.61-1.44a25.24,25.24,0,0,0,4.17,0,17.38,17.38,0,0,1,8.78,2.08c1.6.81,3.29,1.44,4.94,2.15l-.1-.09c.17.28.28.67.53.83,2.14,1.41,2.22,3.87,2.88,5.94a5.87,5.87,0,0,1-.5,4.33,11.89,11.89,0,0,0-.8,5.33c0,13.32,0,26.65,0,40,0,3.13,0,6.25,0,9.38a7.23,7.23,0,0,1-2.32,5.78c-1,.85-1.78,1.83-2.71,2.69a33.56,33.56,0,0,0-6.09,7.45,8.62,8.62,0,0,0-1.39,4.49c0,1.51.07,3,0,4.52a12.76,12.76,0,0,0,3.4,10.13c3.56-.06,7.17-.12,10.83-.54,5.69-.64,11.48.12,17.23-.72,2.95-.43,6-.11,9-.1a9.46,9.46,0,0,1,2.38.19,26.89,26.89,0,0,0,8,1.22c3-.11,5.89-.25,8.84-.6a19,19,0,0,0,8.84-3.8c1.73-1.24,2-3.6,2.66-5.65.61-1.85,0-3.23-.17-4.87A15,15,0,0,0,600.81,232.24Zm-447-117.4c-.32-.42-.71-.86-1-1.35s-.53-1-.82-1.46c-2.76-4.55-3.08-9.76-3.81-14.82-.45-3.13-.13-6.32-.61-9.53-.6-3.93-.23-8-.72-12-.64-5.34.45-10.77-.74-16.13-.46-2.06-.33-4.25-.65-6.4a37.71,37.71,0,0,0-4.06-13,11,11,0,0,0-5.55-4.65c-2.76-1.25-5.76-1-8.46-.54a48.43,48.43,0,0,0-13.28,4.34,147.09,147.09,0,0,0-15.84,9.53,41.09,41.09,0,0,0-8.1,6.77,7.86,7.86,0,0,0-1.79,2.82c-.86,3,1.06,7.81,3.75,9.68,1.84,1.27,3.8,2.38,5.59,3.71,2.27,1.68,3.83,3.82,3.82,6.84,0,7.88.1,15.76,0,23.63s.7,15.88-.66,23.78c-.32,1.88-.31,3.84-.79,5.67a30.18,30.18,0,0,0-1.31,7.94,7.61,7.61,0,0,1-.19,1.33,38.14,38.14,0,0,0-1.14,5.9q-.25,7.29,0,14.59c.15,4.8-.16,9.57.5,14.41.73,5.4.18,11,.76,16.46a45.63,45.63,0,0,1-.47,10.92c-.71,5.19.42,10.54-.83,15.76.36,6.76-.51,13.53.62,20.31.83,5,3,9.49,7,12a15.43,15.43,0,0,0,10.33,2.39,27.93,27.93,0,0,0,9.14-3c2.7-1.38,5.43-2.69,8.15-4,.39-.19.87-.53,1.21-.43,3.08.9,6.19,1.76,9.18,2.9,2.71,1,5.28,2.4,7.92,3.63,6.62,3.07,13.7,4.12,20.87,4.43a58.19,58.19,0,0,0,13.36-.51,47.43,47.43,0,0,0,9.63-2.64,48.29,48.29,0,0,0,19.84-15.54,81,81,0,0,0,11.81-21.74,121.62,121.62,0,0,0,4.36-14.31c1-4.34,1.47-8.83,2.11-13.26a106.53,106.53,0,0,0,.74-11.59c.11-3-.11-6,.05-9a29.71,29.71,0,0,0-1.91-10.9,75.83,75.83,0,0,0-9.49-19.17c-3.47-5.13-7.33-10-10.76-15.14a20.52,20.52,0,0,0-9.31-7.64,67.62,67.62,0,0,0-14.59-4.65,65,65,0,0,0-10-1.27,41.07,41.07,0,0,0-7.09.72,37,37,0,0,0-6.19,1.35C161.06,113,157.71,113.77,153.83,114.84ZM687.59,63.55c0,2.37-.15,4.72-.33,7.11-.41,5.3-.2,10.65-.21,16a4.18,4.18,0,0,0,2.15,3.6c2.16,1.48,4.43,2.71,6.72,4,4.64,2.55,9.18,1.93,13.79.24,2.27-.83,4.07-2.45,6.08-3.72,4.15-2.62,5.8-6.49,6-11.14.12-2.31-.1-4.64,0-7,.24-3.8-.8-7.36-1.89-10.9a31,31,0,0,0-8.17-13.09,24.87,24.87,0,0,0-15-6.77,46.17,46.17,0,0,0-12.67.35,77.82,77.82,0,0,0-10.1,2.3c-9.28,2.83-15.75,9-20.33,17.35-1.94,3.56-2.74,7.52-4.11,11.28-.46,1.24-.39,2.66-.77,3.94-.54,1.88-.31,3.89-.79,5.69a13.34,13.34,0,0,0-.46,5.06c.21,1.7-1,3.25-.28,4.93-1,1.44.21,2.82.17,4.26-.16,6.78.17,13.58-1,20.52-4.39,3.62-9.75,5.83-15,8.29-1.4.66-2.93,1.09-4.29,1.84a4.81,4.81,0,0,0-2.75,4.56c.07,4.06,0,8.11,0,12.17a8.39,8.39,0,0,0,.55,2.6c.43,1.26,1,2.46,1.47,3.72a2.61,2.61,0,0,0,2.76,2c1.47,3.61,5.14,2.57,7.79,3.71.95-.88,2-.14,2.8.1,3.38,1,3.36,1,3.36,4.73q0,26.94.08,53.89a8.86,8.86,0,0,0,0,2.42c1.07,3.4.31,6.84.59,10-1.92,2.54-4.4,3.37-7.12,4-1.85.45-3.84.46-5.51,2a12.61,12.61,0,0,0-4.19,6.63c-.56,2.56-1.45,5-.64,7.79,1.13,3.92,5.34,8.57,9.2,9.16a80.69,80.69,0,0,0,8.52.74,49.28,49.28,0,0,0,7.84-.59c3.86-.43,7.77-.13,11.68-.68,4.76-.67,9.62-.61,14.44-.87.35,0,.7,0,1.05,0a130.5,130.5,0,0,1,14.66-1.36A20.22,20.22,0,0,0,699,254a51.84,51.84,0,0,1,6.76-.89c.78-.11,1.51-.51,2.29-.58,1.43-.15,2-.91,2.07-2.27a8.2,8.2,0,0,1,.59-3c1.52-3.09,1.5-6.36,1.4-9.66a6.35,6.35,0,0,0-1.54-4.33c-1.48-1.54-2.7-3.41-5.37-3.46a19.43,19.43,0,0,1-6.47-1.62,5.65,5.65,0,0,1-3.37-3.42c-1.79-4.07-.86-8.5-2-12.61,0-8.35-.12-16.69,0-25s-.67-16.81.62-25.18c.59-3.79,1.79-6.35,5.89-7.25a78.18,78.18,0,0,1,8.17-1.35,15.48,15.48,0,0,0,11.77-7.46c2.55-4,2-8.29,1.94-12.59a4.92,4.92,0,0,0-1-2.46c-2.88-4.21-6.37-7.66-11.46-9.11-2.24-.64-4.44-1.46-6.7-2a100.6,100.6,0,0,1-10.31-2.78c-4.23-1.56-7.39-4.13-7.94-8.7-.37-3-.15-6.14-.79-9.17-.23-1.1-.45-2.21-.58-3.32-.36-3-.66-6.06-1-9.22l3.21-.42C684.2,78.28,685.53,70.88,687.59,63.55ZM849.7,132.33c-3,2.68-3.2,6.31-4,9.64a13.18,13.18,0,0,0,.28,5.43c.85,4.21,3.77,6.52,7.72,7.67,3.37,1,5.63,3.4,7.75,5.93a7.15,7.15,0,0,1,1.48,3.35,48,48,0,0,1,.66,7.84c-.11,7.37.13,14.73-.43,22.12-.63,8.29-.18,16.67-.2,25,0,1,0,2,0,3-2.08.6-3.93,1-5.69,1.69a8.43,8.43,0,0,0-2.55,1.64c-2.93,2.63-5,9.57-4,13.44.16.65.34,1.31.45,2,.48,2.91.88,5.84,1.43,8.73a5.77,5.77,0,0,0,5.38,4.74c3,.14,6,0,9.19,0,0-2.41,0-4.58,0-6.76s-.17-4.18.44-6.23q.52,6.45,1.06,12.85h31.66c.3-2.52.69-4.88.83-7.25a51.26,51.26,0,0,1,.53-7.09c.37,4.77.74,9.54,1.12,14.48,3.48,0,6.83.14,10.16-.05a8.26,8.26,0,0,0,5.24-2c3.59-3.34,6.94-6.87,7.83-12a14.7,14.7,0,0,0-1.41-10.19c-1.18-2.07-6.07-6.2-8.09-7.09a57.28,57.28,0,0,1-5.65-2.83,2.63,2.63,0,0,1-1.17-1.85c-.34-6.21-.53-12.42-.83-18.62-.11-2.39.54-4.85-.57-7.17a1.52,1.52,0,0,1,0-1c.88-2.7.37-5.34,0-8.08-.56-4.54-.56-9.15-.85-13.73-.08-1.36-.37-2.7-.52-4.05a68.85,68.85,0,0,1-.78-7.81c0-3.29.39-6.58.64-9.87,0-.48.22-1,.43-1.91a14.34,14.34,0,0,1,2.22,2.22c2,3.31,5.1,5.62,7.81,8.24a15.56,15.56,0,0,0,5.51,3.16c4,1.45,8.16,2.62,12.55,2.16a10,10,0,0,1,1.73,0,11.23,11.23,0,0,0,5.53-1.26,20.23,20.23,0,0,0,7.66-6.37,35.81,35.81,0,0,0,7.21-15.36,21.68,21.68,0,0,0-4.71-17.47,28.44,28.44,0,0,0-12.35-9.31c-5.36-2-12.51-1.94-17.92-.5-5.7,1.52-10.45,4.63-14.94,8.22a3.77,3.77,0,0,1-3.29.92,11.33,11.33,0,0,0-1.31-3.29c-3-3.74-6.67-6.44-11.83-6.38a44.29,44.29,0,0,0-7.34,1,13.78,13.78,0,0,0-5.58,2.23c-3.39,2.31-6.84,4.53-10.24,6.81a28.83,28.83,0,0,0-2.74,2.06,24.9,24.9,0,0,1-8,5.08c-1.1.37-1.67,1.37-2.69,1.58-3.29.69-3.73,1.07-4,3.89-.05.55-.1,1.09-.16,1.64H850Zm-99.29-61.2.42,0c.07.5.11,1,.21,1.5.66,3.31,1.33,6.63,2,9.94-.93,1.51-.29,2.78.7,3.92a80.63,80.63,0,0,0,5.72,6.37c4,3.73,8.62,6.06,14.26,5.92,2.72-.07,5.41-.25,8.13-.59a39.17,39.17,0,0,0,12-3.84,26.8,26.8,0,0,0,7.49-5.86,23.34,23.34,0,0,0,6.54-15.82,24.48,24.48,0,0,0-1.82-9.86c-1-2.66-2-5.24-4-7.3a64.72,64.72,0,0,0-5-4.84,40.81,40.81,0,0,0-6.44-4.7,29.94,29.94,0,0,0-14.88-3.56,21.22,21.22,0,0,0-14.29,5.91c-5.3,4.77-8.86,10.76-11.58,17.25a32.36,32.36,0,0,0-1.64,6.79c-.25,1.4.57,3.77,2.11,7.17Z"/><path d="M271.24,216.28c-.86-8.95-.74-17.93-.78-26.9a24.32,24.32,0,0,1,.53-6.22c.07.75.15,1.5.19,2.25.27,5.16.33,10.34.86,15.46s1.24,10,1.27,15c0,.55,0,1.1,0,1.78l-1.42-.7Z"/><path d="M1012.54,125.87l1.19.12v18.47c-.88-6-2.77-11.78-2.65-17.87Z"/><path d="M1020.18,122.39l1.2.12c-.5,4.82-1,9.63-1.54,14.44,0,.25-.48.45-.76.69-.33-3.9-.71-7.76-.94-11.63a11.22,11.22,0,0,1,.58-2.9Z"/><path d="M165.83,255.37a6.43,6.43,0,0,1-.34-1.32q-.35-12.26-.64-24.53c0-1.73,0-3.47,0-5.32-1.82-.74-3.77-.25-5.66-.85-4.41-1.4-6.77-2.65-9.16-6.23a17.59,17.59,0,0,1-3.21-9.74,55.89,55.89,0,0,1,1.11-8,7.1,7.1,0,0,0,.2-1c0-4.29.43-8.63-.14-12.84-.4-3-.41-5.89-.55-8.84a28,28,0,0,1,.64-6.75c.43-2.2.28-4.48.58-6.75a41.53,41.53,0,0,1,2.34-9.39c1.1-2.89,2.21-6,5.34-7.45,1.45-6.25.59-12.6,1.22-18.9.26,2.87.25,5.75.25,8.62s0,6,0,9.27c.88-.16,1.49-.3,2.12-.37a12.38,12.38,0,0,1,3.7-.32c4.08.81,7.9,2.14,11.05,5.21a40.72,40.72,0,0,1,9.65,13.81c.33.8.69,1.58,1.25,2.87.11-1.59.2-2.68.28-3.78h.46c0,1.13,0,2.26,0,3.39a25.14,25.14,0,0,0,1.31,8.65,4.66,4.66,0,0,1,.13,1.35c0,4,.39,8.15-.08,12.15-.66,5.51-1.4,11.1-3.43,16.31s-4.19,10.21-8.35,14.13a16.3,16.3,0,0,1-8.51,4.44c-1.55.26-1.95.66-1.87,2.26.19,4-.25,8,.52,12,.57,3,.13,6.24.2,9.36,0,2.17-.25,4.37.58,6.48C167,253.93,166.71,254.43,165.83,255.37Z"/><path d="M112.9,249.59h-2.75c-1.06-7.69-1-15.29-1-22.88,0-2.9.09-5.8,0-8.69-.82-21.39-.38-42.8-.78-64.19-.09-4.35-.43-8.72-.49-13.09a12.15,12.15,0,0,1,.32-3.47c.33,1.62.79,3.24,1,4.88.35,3.42.67,6.85.76,10.28.13,5,0,10,.06,14.95.21,14.45.18,28.9.84,43.32.28,6.11,0,12.24.66,18.29.45,4.26.36,8.5.61,12.74C112.18,244.23,112.58,246.72,112.9,249.59Z"/><path d="M114.85,77.19c.26.22.38.27.38.33.31,4.45.63,8.9.9,13.35.42,6.77.48,13.57.91,20.33.3,4.59.06,9.19.58,13.75.59,5.27.08,10.61.78,15.81.73,5.42.23,10.76.3,16.15-.59-.92-.36-2-.51-3s-.46-2-.6-3c-.28-2-.54-4.06-.71-6.1-.29-3.65-.24-7.35-.83-11-.55-3.37-.16-6.84-1.21-10.15a5.79,5.79,0,0,1-.06-1.72q0-21.53,0-43C114.76,78.45,114.82,77.89,114.85,77.19Z"/><path d="M191.72,167.38c-.23-2.56-.7-5,.09-7.54.46-1.48.07-3.21.12-4.83.24-7.59.23-15.21.88-22.76.33-3.79.32-7.56.59-11.33.14-1.92.5-3.82.79-5.92,1.76.27,2.69,1.73,4.14,2.94-.33,2.49-.63,5.07-1,7.64s-.8,4.91-1.22,7.36-.92,4.89-1.29,7.35c-.32,2.14-.53,4.29-.76,6.44-.37,3.5-.71,7-1.31,10.48S192,164,191.72,167.38Z"/><path d="M129.51,113.11a6.71,6.71,0,0,1-.13-1c-.24-10.48-.59-21-.9-31.45-.25-8.28-.07-16.59-.71-24.84-.42-5.3-.29-10.57-.53-15.85a2.79,2.79,0,0,1,.4-1.62c.32,1.85.74,3.69.94,5.56.33,3.07.57,6.15.74,9.23.29,5,.53,10.09.69,15.13.05,1.46.43,3-.52,4.39a.88.88,0,0,0-.09.66c1.2,3.83.09,7.83.79,11.64.78,4.26.49,8.49.44,12.72-.06,5.15-.52,10.29-.81,15.43Z"/><path d="M214.06,237.78l-2.57,2.6c-.06-1.31-.12-2.09-.12-2.87,0-5.9-.3-11.84.19-17.7.56-6.67.24-13.35.7-20,.18-2.61.38-5.23.58-7.85a8.07,8.07,0,0,1,1.22-3.35Z"/><path d="M204.3,246.14l-2.94,2.49c-.15-.92-.42-1.47-.29-1.9.8-2.58.52-5.22.57-7.84.06-2.89.06-5.77.06-8.66a35,35,0,0,1,2.6-13Z"/><path d="M100.69,204.32c.3,4.29.37,8.29.91,12.23.61,4.46.23,9,.81,13.37a71.63,71.63,0,0,1,.37,10.14,12.42,12.42,0,0,1-1.94-6.75c-.16-4.58-.47-9.15-.77-13.72-.11-1.69-.53-3.37-.58-5.06C99.4,211.23,99.15,207.89,100.69,204.32Z"/><path d="M184.2,224.16v31.11a7.66,7.66,0,0,1-2.2-.72c-.26-.18-.14-1-.11-1.49.05-.91.23-1.81.24-2.71.06-3.93,0-7.86.12-11.78.12-3.77.39-7.53.7-11.29a19,19,0,0,1,.88-3.24Z"/><path d="M133.74,61.12c-.06-.44-.14-.88-.17-1.32a95.75,95.75,0,0,0-2.76-20.13c-.53-2,.62-3.11,2.64-2.77a1.46,1.46,0,0,1,1.42,1.62c-.23,3.52.49,7.08-.5,10.59a12.21,12.21,0,0,0-.12,3.09l-.09,8.91Z"/><path d="M107.84,47.54A137.64,137.64,0,0,1,110.16,82c-.33-2.81-.64-5.61-1-8.42-.2-1.68-.45-3.37-.66-5.05s.37-3.46-.62-5.07c-.15-.26,0-.68,0-1Z"/><path d="M174.1,140.92c-.32-3.87-.67-7.73-.93-11.6a12.12,12.12,0,0,1,.61-4.36c1.11-3.66,1.91-7.42,2.87-11.13a2.56,2.56,0,0,1,1.29-1.64c-.27,2.39-.51,4.78-.84,7.16s-.82,4.68-1.12,7-.48,5-.75,7.48-.58,4.73-.87,7.09Z"/><path d="M118.8,41.41l2.82-.9a43.5,43.5,0,0,1,.69,5.06c.1,4.92,0,9.84-.19,14.79-.12-3.25-2.05-6-2.33-9.19S119.13,44.67,118.8,41.41Z"/><path d="M115.62,210.61c.22.3.34.38.34.47.3,4.56.38,9.15.92,13.67.78,6.43.39,12.87.78,19.29a42,42,0,0,1,.3,6.74,19.52,19.52,0,0,1-1.14-6.35c-.16-7.47-.25-15-.83-22.39-.24-3.19-.48-6.37-.5-9.57C115.48,211.92,115.56,211.36,115.62,210.61Z"/><path d="M158.42,252.31H156c.77-8.35,1.52-16.57,2.28-24.78h.13Z"/><path d="M151,115.44c.76.89,1.24,1.19,1.23,1.48-.05,2.16.5,4.36-.42,6.47a2.76,2.76,0,0,0-.15,1c-.26,4.22-.46,8.45-.79,12.66-.23,2.93-.64,5.84-1,8.76-.08-2.37-.7-4.74.29-7.12a5.57,5.57,0,0,0,.08-2.05c0-3.57,0-7.15.11-10.72.05-1.69.43-3.37.55-5.06S150.85,117.72,151,115.44Z"/><path d="M134.29,219.17a149.34,149.34,0,0,1,1.25,26.52c-.65-.79-1.31-1.23-1.31-1.67C134.2,235.74,134.25,227.45,134.29,219.17Z"/><path d="M99.31,52.83V63l-.46.08c-.27-1.18-.58-2.36-.8-3.55-.27-1.54-.52-3.09-.7-4.65C97.21,53.64,98,53.09,99.31,52.83Z"/><path d="M122.52,235.93c1.57,13.12,1.57,13.12,0,13.63Z"/><path d="M209.53,125.12l1.7,2.79-1.19,6.9-.51,0Z"/><path d="M564.46,251c-.14-.27-.39-.53-.41-.8-.19-3.09-.32-6.17-.61-9.26-.6-6.41-.37-12.9-1-19.31-.43-4.59-.19-9.22-.75-13.76-.43-3.45-.35-6.87-.57-10.3-.09-1.35-.38-2.69-.56-4a2.66,2.66,0,0,1,0-.69q.46-5.64,1-11.27c0-.44.26-.87.29-1.32.27-4.24.47-8.48.8-12.71a50.75,50.75,0,0,1,1.28-8.12c0,2.13.09,4.26,0,6.39s.44,4.35-.48,6.49a6.49,6.49,0,0,0-.06,2.42c0,4.75-.29,9.52.06,14.24.9,12.12,0,24.27.73,36.37.29,5.17.16,10.36.66,15.5.27,2.86.54,5.69.55,8.56a12,12,0,0,1-.22,1.58Z"/><path d="M479.06,248.05c-2.35,0-2.52-.11-2.66-1.72-.27-3.18-.4-6.39-.8-9.56-.72-5.68-1-11.37-1.46-17.07-.4-5.23-1-10.44-1.39-15.68-.19-2.49-.54-5-.55-7.5a3.09,3.09,0,0,1,.39-1.66c.57,3.53,1,7.09,1.73,10.59.89,4.22.95,8.55,1.91,12.76.46,2,.28,4,.7,6.1.59,2.89.27,6,.94,8.84s.27,5.88,1.1,8.78C479.48,243.75,479.06,245.84,479.06,248.05Z"/><path d="M497.87,248.22h-4.09c0-1.7.24-3.48-.23-5a7.09,7.09,0,0,1,.08-4.64,6.77,6.77,0,0,0,.06-2.07c0-3.47-.05-6.94.08-10.41.23-6.2.58-12.38.92-19.39a10.61,10.61,0,0,1,1,2.48c.12,1.61,0,3.24.09,4.86.24,6.32.4,12.64.79,19,.24,4,.85,7.92,1.24,11.88C498,245.85,497.87,246.89,497.87,248.22Z"/><path d="M577.86,165.23c0-4.39.08-8.79,0-13.17-.18-7.72-.21-15.46-.82-23.15-.29-3.67-.39-7.31-.59-11.44l4.28,3c-.26,2.88.07,5.59-.56,8.36-.51,2.2-.1,4.61-.19,6.93-.22,5.75-.13,11.54-.87,17.22C578.55,157.1,578.9,161.22,577.86,165.23Z"/><path d="M583.67,248.63l-2.39,1c-.23-.22-.52-.36-.52-.51,0-1.62-.08-3.24-.08-4.86,0-13.19,0-26.38.08-39.58a88.89,88.89,0,0,1,1.15-11.91c0,.67.11,1.34.12,2,0,3.12,0,6.25.06,9.37.23,11.3.44,22.6.75,33.89C582.94,241.54,583.38,245.06,583.67,248.63Z"/><path d="M475,123.77c.25,3.86.31,7.52.78,11.13.62,4.7.24,9.44.81,14.09.42,3.34.19,6.65.57,9.95a138.19,138.19,0,0,1,.67,15.49,10.58,10.58,0,0,1-.38,3.42c-.32-1.8-.73-3.59-1-5.39-.32-2.49-.44-5-.78-7.49-.65-4.76-.31-9.6-1.32-14.31a5.46,5.46,0,0,1,0-.7c-.26-7.71-.53-15.42-.76-23.13C473.51,125.21,473.56,125.21,475,123.77Z"/><path d="M488.87,159.84c-.22-2-.47-4-.66-6-.95-10.47-.72-21-.68-31.48,0-.46,0-.92,0-1.39.07-2.57.07-2.57,3.37-2.61,0,1.68.38,3.35-.38,5a3.64,3.64,0,0,0-.21,1.33c-.27,6.56-.6,13.11-.76,19.67-.12,5.08,0,10.17,0,15.26Z"/><path d="M503.38,248c-.22-3.52-.26-7.06-.68-10.55-1-8.32-1.17-16.67-1.47-25-.11-3.28-.47-6.59-.49-9.9a1.87,1.87,0,0,1,.39-1.36,5.62,5.62,0,0,1,.19,1.06,106.52,106.52,0,0,0,1.35,14.25c.34,2.35.23,4.75.74,7.13.72,3.32.67,6.75,1.33,10.11a30.29,30.29,0,0,1,.12,5.88c0,2.54,0,5.08-.06,7.62,0,.4-.46.79-.7,1.19Z"/><path d="M502.83,184.65c-1-5.69-3.34-11.17-3.66-17.12a151.47,151.47,0,0,1-.2-17.83c.34,2,.72,4.06,1,6.1.66,4.81,1.71,9.54,2.59,14.3.53,2.92,1.47,5.91.37,9.08C502.37,180.81,502.83,182.81,502.83,184.65Z"/><path d="M545.31,253.1c1.39-11.06,2.74-21.83,4.1-32.61a11.28,11.28,0,0,1,.52,6.48c-.71,3-.42,5.93-.57,8.9-.24,5-.43,10.08-.67,15.12C548.61,252.77,548.34,252.93,545.31,253.1Z"/><path d="M573,161.57c0,1.14,0,2.28,0,3.43,0,10.19-.29,20.4.17,30.57.6,13.51.46,27,.54,40.51a8.29,8.29,0,0,1-.59,3.74v-2.35c0-4.86,0-9.73-.07-14.59-.18-9.33-.53-18.66-.64-28s0-18.76,0-28.14v-5.17Z"/><path d="M591.09,248.19l-1.64.1c-.17-.23-.41-.4-.41-.59q-.37-11.91-.7-23.82a41.06,41.06,0,0,1,.18-5.19c1,3.24,2.07,6.43,1.91,9.91a56.18,56.18,0,0,0,.12,9.71,73.16,73.16,0,0,1,.54,8.21Z"/><path d="M506.08,171.17v33.06C504.71,193.22,504.17,182.2,506.08,171.17Z"/><path d="M590.17,191.89c1.19,10.06.89,19.82.92,29.77A3.44,3.44,0,0,1,589.7,219q.07-13.33.1-26.66C589.8,192.26,589.94,192.17,590.17,191.89Z"/><path d="M522.32,148l-2.66.12v-14a6.35,6.35,0,0,1,2.67,5.3C522.27,142.21,522.32,145,522.32,148Z"/><path d="M534.3,117.65c1.84,10.34,1,20.67.09,31C534,138.32,534.07,128,534.3,117.65Z"/><path d="M466.64,223c.38.45.49.53.5.61.3,4.33.58,8.66.91,13,.29,4,.63,8,.94,11.8-1,.72-1.6.77-1.65-.28-.26-5.27-.51-10.54-.68-15.82C466.57,229.29,466.64,226.31,466.64,223Z"/><path d="M543.86,154.43c0-5.43,0-10.86.07-16.29a18.64,18.64,0,0,1,.94-4.48c.74,7.08-.3,14.21,1,21.22l-2.09-.54Z"/><path d="M600.81,232.24a43.52,43.52,0,0,1,.73,10.56,20.25,20.25,0,0,1-.74,4c-.26,1.15-1,1-2,.5,0-1.07-.33-2.34.07-3.3.63-1.47.39-2.92.56-4.38.26-2.36.54-4.71.85-7.07,0-.09.37-.15.56-.22Z"/><path d="M451.17,229.87l2.29-1.09c-.34,6.37,1.23,12.46.36,19.08C452.89,241.56,452,235.69,451.17,229.87Z"/><path d="M501.09,133.32c-1.24-5.56-2.48-11.12-3.78-16.92.48-.07,1.19-.38,1.44-.16A3.73,3.73,0,0,1,500,118.1a26.35,26.35,0,0,1,.64,4.68c.14,2.83,0,5.67.71,8.46a8.51,8.51,0,0,1,0,2Z"/><path d="M515.1,150.23c-.89-2.44-.37-5-.38-7.52s.43-5,.54-7.5a57.61,57.61,0,0,1,.57-7.86v22.76Z"/><path d="M459.73,151.18c.93,1,1.48,1.55,1.85,1.93V169.6h-.34a15.48,15.48,0,0,1-.14-1.66,51.91,51.91,0,0,0-1.32-11.51C459.48,155,459.73,153.45,459.73,151.18Z"/><path d="M557.85,111.49c-.37,3.63-.73,7.23-1.14,10.83,0,.25-.48.46-1.1,1,0-2.51,0-4.68,0-6.86a21,21,0,0,0-.28-3.06C555,111.67,555.18,111.5,557.85,111.49Z"/><path d="M505.66,131.38c0-1.91,0-3.84-.15-5.74s-.5-3.76-.78-5.83h1.87C507.2,123,507.06,129.24,505.66,131.38Z"/><ellipse cx="539.31" cy="130.05" rx="0.25" ry="19.51"/><path d="M505.25,159.1c-.6-5.68-2.19-11.25-2.26-17C504,147.74,505.94,153.25,505.25,159.1Z"/><path d="M519.43,121h2.78v6.38l-2.69-2.59V121Z"/><path d="M346.12,136.71c.11,1.64.2,2.88.28,4.16,1.71,1.72,3.38,3.49,5.14,5.16,4.35,4.12,7.39,9.17,10.18,14.38a36.22,36.22,0,0,1,1.81,4.72c2.07,5.74,4.23,11.45,6.16,17.23a128,128,0,0,1,3.82,14.86c1.17,5.74.27,11.47.58,17.19a3.84,3.84,0,0,1-.76,2.19,36.85,36.85,0,0,1-11.07,10.5c-2.64,1.63-5.21.72-7.52-.75-1.94-1.23-3.68-2.79-5.48-4.19l-.4.84c-.13-.1-.38-.22-.36-.3.19-1.1-.56-1.68-1.21-2.33-3.21-3.18-6.32-6.48-9.66-9.51-2.48-2.24-4.16-5.1-6.43-7.49-1.6-1.68-3-3.61-4.57-5.32a36.83,36.83,0,0,1-3.88-5.14c-.93-1.39-1.63-2.92-2.7-4.9-.13,2.67-.46,4.79.29,6.89a3.84,3.84,0,0,1,.19,1c.27,3.9.5,7.79.79,11.68.16,2.28.42,4.54.62,6.82a2.27,2.27,0,0,1-.44,1.71c-.54-3.39-1.06-6.78-1.62-10.16-.89-5.36-2-10.7-2.64-16.1-.4-3.28-.82-6.54-1.5-9.77a38.25,38.25,0,0,0-1.51-5.82c-2.29-5.9-2.22-12-1.87-18.16.11-2,1.33-4,2.35-5.86a11.74,11.74,0,0,0,1.72-7.13,9.88,9.88,0,0,1,.07-3.12,23.1,23.1,0,0,1,2-5.6v10.06l5.06-3.7v-12h.4V140.3c.72,0,1.35.29,1.78.1,3.35-1.52,6.93-1.76,10.51-2a16.41,16.41,0,0,1,8.56,1.93Z"/><path d="M388.65,151.08c.23,6.18.92,12.4.55,18.55a116.17,116.17,0,0,0-.3,13.44c.38,6.91.52,13.81.46,20.73a6.67,6.67,0,0,1-.43,2.58c-.31-3.52-.24-7.13-1-10.53-.74-3.16,0-6.42-1.12-9.5a7.43,7.43,0,0,1-.06-2.41c0-3.71-.26-7.45.08-11.12.42-4.6.4-9.19.64-13.78.13-2.61.6-5.2.93-7.8Z"/><path d="M297,204.78c3.92,13.11,3.57,26.83,4.8,40.45-2.52-.69-2.66-.83-2.77-2.74-.25-4.23-.22-8.5-.79-12.69-.73-5.39-.44-10.78-.67-16.17-.06-1.47-.45-2.92-.54-4.38S297,206.27,297,204.78Z"/><path d="M290.74,196.22c.2,2.7.48,5.4.57,8.1.12,3.69-.12,7.4.15,11.08.39,5.15.47,10.31.78,15.45.15,2.48.5,4.94.49,8l-2.48-1.68a5.38,5.38,0,0,1-.25-.89c0-1.73,0-3.46-.05-5.19-.2-5.39-.53-10.77-.65-16.15C289.16,208.72,289,202.53,290.74,196.22Z"/><path d="M383.05,148.6c-.9-9.35-1.81-18.69-2.73-28.23l5.36,2.37-2.16,25.83Z"/><path d="M309.76,144.39c-1.13-8-2.18-15.38-3.25-22.88l4.34-2.24c.24,3.57.85,6.77.57,9.88-.36,4-.47,8-.62,12A14.66,14.66,0,0,1,309.76,144.39Z"/><path d="M347.55,112.07h3.54a55.88,55.88,0,0,1,.1,6.47c0,2.2,0,4.39,0,6.59s.1,4.4-.06,6.59-.57,4.26-1,7A176.06,176.06,0,0,1,347.55,112.07Z"/><path d="M373.49,252.39h-3.86c-1.95-2.94-.78-6.15-.24-9.18.69-3.86,1.93-7.63,3-11.82.85,3.76.15,7.25.8,10.71s.16,6.92.17,10.39Z"/><path d="M340.37,230.39c1.39,8.3,2.69,16,4,24h-3.64C341,246.53,339.36,238.79,340.37,230.39Z"/><path d="M409.69,141.83a3.28,3.28,0,0,1,2,3.08c-.07,7.94,0,15.87-.53,23.9a23.08,23.08,0,0,1-.85-2.88c-1.19-7.41-.6-14.88-.74-22.33C409.57,143.05,409.65,142.5,409.69,141.83Z"/><path d="M307.8,205.34c.71,11.32,1.15,21.89.89,32.47,0,.21-.17.41-.38.87C306.68,227.67,306,216.9,307.8,205.34Z"/><path d="M369,154.53c.51,3.22,1.23,6.43,1.49,9.67s.05,6.66.05,10.08a2.57,2.57,0,0,1-2-2.66c0-5.64,0-11.27,0-16.9Z"/><path d="M314.35,251.76c-.13-.9-1.48-.74-1.44-2,.14-5.52.06-11,.42-16.57.82,6.08,1.63,12.17,2.47,18.44l-1.49.13Z"/><path d="M401.94,184.71c-.75-9-1.7-18.08-1.35-27.18a1.19,1.19,0,0,1,.63-1c.24,3,.64,6.06.69,9.09C402,172,401.94,178.35,401.94,184.71Z"/><path d="M336.19,237c-.33-3.63-.73-7.26-.95-10.9-.16-2.54-.05-5.1-.09-7.65,0-1.64-.1-3.28-.16-5a2.41,2.41,0,0,1,1.48,2.48c.07,7,0,14.06,0,21.09Z"/><path d="M305.55,198.35c-.69-4.49,0-8.52.87-12.53C306.84,189.88,307.05,193.94,305.55,198.35Z"/><path d="M1054.37,159.47a4.52,4.52,0,0,1,.48,1.1c.46,5.45.9,10.91,1.35,16.58l-1.49.15c-.19-.29-.4-.47-.4-.66-.06-1.74,0-3.48-.11-5.21-.23-4-.53-8-.81-12.18-3.73,0-7.43-.24-11.09.07-2.81.24-4.74-1.22-6.81-2.53s-2.68-3.33-3.24-5.4a2.78,2.78,0,0,1,1.45-3.12c3.54-2.11,6.86-4.62,10.93-5.78,1.82-.51,3.5-1.51,5.28-2.21a24.34,24.34,0,0,1,11.8-1.07,16.14,16.14,0,0,1,7.56,3.43c1.17.89,2.8,1.64,3.3,2.84.81,1.94,2.33,3.31,3.26,5.1.52,1,1.15,1.93,1.61,2.95,1,2.11.41,3.46-1.74,4.32a18.18,18.18,0,0,1-7.59,1.45c-4.28-.19-8.57-.05-12.86,0A4.47,4.47,0,0,0,1054.37,159.47Z"/><path d="M985.09,217.3c-.8-4.91-1.65-9.82-2.38-14.75-.37-2.48-.46-5-.8-7.49-.45-3.27-.41-6.59-1.25-9.81a3.82,3.82,0,0,1-.06-.68c-.26-3.78-.5-7.55-.77-11.32-.21-2.74-.57-5.47-.64-8.2a8.63,8.63,0,0,1,1.13-4.28c.77,4.07,1.29,8.2,2.38,12.18,1,3.76,1,7.64,1.92,11.39a8.91,8.91,0,0,1,0,2.07c0,3.94.05,7.88.06,11.82a131.1,131.1,0,0,0,.61,15.85,30,30,0,0,1,0,3.42Z"/><path d="M1110.55,138.56c0,3.45,0,6.91,0,10.36,0,5.32,0,10.64.1,16,.09,4.24.4,8.47.6,12.71,0,.78,0,1.56,0,2.46h-3.39c0-5-.44-9.83.12-14.59s.25-9.42.53-14.11c.23-3.77.45-7.54.75-11.31,0-.55.56-1.06.86-1.59Z"/><path d="M1042.36,252.9c-2.41,0-2.58-.12-2.69-1.68-.05-.69,0-1.39,0-2.08l0-26.06v-3.59c.71.73,1.31,1,1.36,1.45a56.09,56.09,0,0,1,.65,6.46c.11,5.21,0,10.43.15,15.63,0,2.05.42,4.08.56,6.12C1042.43,250.4,1042.36,251.66,1042.36,252.9Z"/><path d="M1082,119.13a8.32,8.32,0,0,1,1.42,2.11,5.6,5.6,0,0,1,0,2.76c-.93,3-.42,6.17-.63,9.26-.31,4.45-.66,8.89-1.17,13.36-.29-2.81-.58-5.61-.89-8.42a45.23,45.23,0,0,1-.63-5.77c.08-3.77.4-7.55.73-11.32C1080.81,120.55,1081.4,120,1082,119.13Z"/><path d="M1090.74,128.22c.87,5.28,1.84,9.82,2.3,14.41.31,3.05.59,6.19-.32,9.25a10,10,0,0,0-.16,2.74,153.47,153.47,0,0,1-.56,15.58c-.06-.82-.12-1.64-.19-2.46-.89-10.22-.58-20.48-.81-30.72C1090.94,134.31,1090.12,131.63,1090.74,128.22Z"/><path d="M1086.55,246.54l-2.79,1.64a3.27,3.27,0,0,1-.29-.93c0-3.23-.31-6.51.11-9.69.66-5.14.44-10.3,1-15.45.06.66.14,1.32.18,2,.27,4.8.47,9.61.81,14.41C1085.79,241.12,1086.21,243.72,1086.55,246.54Z"/><path d="M1107.46,199.54c1.46-1.52,2.49.05,3.78.36-.14,2.77.15,5.46-.52,8.2s-.58,5.37-1.14,8C1108.89,210.69,1108.19,205.24,1107.46,199.54Z"/><path d="M1008.81,160.05c-2-2.84-.78-5.87-1.52-8.64a41.16,41.16,0,0,1-.94-8.47,72.61,72.61,0,0,1,.16-8.6C1008.56,142.69,1009.74,151.1,1008.81,160.05Z"/><path d="M993.67,229.66c-2.17-.75-2.79-1.91-2.67-3.62.19-2.62-.4-5.28.57-7.86a7.92,7.92,0,0,0,.08-2.08,53.3,53.3,0,0,1,1.39-9.48c0,2.06-.08,4.12,0,6.18.18,4.13-.38,8.28.57,12.39A21.1,21.1,0,0,1,993.67,229.66Z"/><path d="M1028.57,251.1c-1.24-6.26-.79-12.59-.66-18.89.1-5,.6-10,1.1-15.05.06.82.16,1.65.16,2.47,0,9.69.09,19.38.07,29.08,0,.78.6,1.91-.77,2.3Z"/><path d="M1005.15,175.2c.63,3.76,1.22,7.22,1.76,10.69A13.11,13.11,0,0,1,1007,188c0,5.42,0,10.84-.11,16.26C1005.43,199,1004.49,182.21,1005.15,175.2Z"/><path d="M1023.54,195.6a7.22,7.22,0,0,0,.18,1.33,31.54,31.54,0,0,0,1.37,3.82c.7,1.47-.19,2.83-.1,4.27a7.45,7.45,0,0,1-.48,4.06c-.38.75-.13,1.82-.16,2.74,0,1.24-.11,2.48-.2,4.42-.67-.85-1.07-1.13-1.1-1.44a73.55,73.55,0,0,0-.63-7.52c-.31-1.6.39-3.37.47-5.06.1-2.18,0-4.37,0-6.56Z"/><path d="M1061.37,253.64c0-8.14,0-16.29,0-24.45,0-.1.35-.2.66-.37.17.21.5.44.5.67q0,11.59,0,23.19C1062.59,253.47,1062.42,254.06,1061.37,253.64Z"/><path d="M1025.65,160.92v26.56l-.38.07c-.51-2.08-1.06-4.14-1.53-6.23a3,3,0,0,1,0-1.71c.88-2.22.43-4.54.6-6.81.29-4,.6-8,.9-11.93Z"/><path d="M1072,118.38a27.71,27.71,0,0,1,1,10c-.29,4.19-.61,8.38-.92,12.53C1071.43,139,1071.33,123.38,1072,118.38Z"/><path d="M1014.92,188.59c.35,6.42,2.48,12.71,1.49,19.82A57.61,57.61,0,0,1,1014.92,188.59Z"/><path d="M1090.21,215.27c.13,1,.2,1.35.2,1.69,0,5.51-.13,11,.62,16.52a7,7,0,0,1-.41,3.45,24,24,0,0,0-.17-2.41c-.61-3.7-.55-7.46-1.28-11.16a27,27,0,0,1-.09-6.23C1089.1,216.65,1089.63,216.19,1090.21,215.27Z"/><path d="M1063.75,117.14c.84,6.21-1,11.82-.59,17.52C1061.48,127.89,1061.48,127.89,1063.75,117.14Z"/><path d="M1029.68,174.32c-1-8.6-.75-14.87.7-18C1031.25,162.57,1029.37,168.41,1029.68,174.32Z"/><path d="M1036.25,143.47a40.56,40.56,0,0,1,1.67-12.38c1,4-.54,7.49-.46,11C1037.47,142.42,1036.89,142.76,1036.25,143.47Z"/><path d="M1035.79,162.78c.11,3,.61,5.7-.21,8.45-.51,1.7-.12,3.67-.12,5.53a17.17,17.17,0,0,1-.29,3.77,43.64,43.64,0,0,1-.3-9C1035,168.61,1035.47,165.7,1035.79,162.78Z"/><path d="M653.68,230.45c-.38-.46-.5-.54-.5-.62-.3-4.69-.52-9.37-.91-14.05s-.38-9.42-.85-14.07c-.41-4-.31-8-.56-12-.13-2-.52-4.07-.59-6.11-.15-4.69.7-9.31,1.22-13.95a76.15,76.15,0,0,0,0-8.16c1.61,1.15,1.41,2.58,1.41,3.93,0,10.18-.35,20.38.22,30.53s.29,20.28.5,30.41C653.7,227.58,653.68,228.83,653.68,230.45Z"/><path d="M690.65,181.37q0-31,0-62c0-.14.3-.27.7-.6.19.39.49.71.5,1,.28,7.93.6,15.86.76,23.79.11,5.55,0,11.1,0,16.64a42.42,42.42,0,0,1-1.25,9.78,2.26,2.26,0,0,0-.08,1.35C692.91,174.8,690.3,178,690.65,181.37Z"/><path d="M651.73,121.48c-.29-3.4-.46-6.82-.9-10.2-.5-3.83-1.45-7.6-1.3-11.5-1.41-2.26-.14-5-1.29-7.32a3.5,3.5,0,0,1,.2-2,114.55,114.55,0,0,1,3.17-11.09v3.39c0,8.09,0,16.19.06,24.29.05,4,.38,8,.57,12,0,.79,0,1.58,0,2.38Z"/><path d="M685.07,151.51c-.26-3.5-.6-7-.76-10.52-.31-6.79-.35-13.59-.85-20.36a79,79,0,0,1-.5-8.1c1.85,1.41,2.78,2.89,2.76,5-.07,11-.08,22-.13,33a4.69,4.69,0,0,1-.2,1Z"/><path d="M642.53,256.18c4.93-.85,9.63-1.67,14.26-2.88a23.43,23.43,0,0,1,5.64-.82c7.16-.08,14.33,0,21.49,0a9.38,9.38,0,0,1,1.5.34c-1,.13-1.4.22-1.83.24-4.58.27-9.2.21-13.71.87-4.71.68-9.46.88-14.15,1.77-4.13.79-8.43.63-12.66.87C643,256.6,642.9,256.46,642.53,256.18Z"/><path d="M707.11,49.27,710,50.91c.06,11.76.09,23.46-.08,35.63-.37-.57-.49-.66-.49-.76-.29-6.42-.36-12.87-.92-19.27-.41-4.58-.52-9.15-.67-13.74A24.18,24.18,0,0,0,707.11,49.27Z"/><path d="M636.39,127.28c1.14,1.36.39,3.12.66,4.67a34.07,34.07,0,0,0,.74,4.68,21.26,21.26,0,0,1,.64,5.06c.14,1.57.43,3.13.65,4.7s.46,3.29.69,5c-2.44-.05-2.63-.14-2.73-1.72-.28-4.22-.49-8.44-.77-12.66-.17-2.61-.45-5.21-.66-7.82,0-.55,0-1.11,0-1.66Z"/><path d="M666.28,177.63c0,3.22-.21,6.47.06,9.67s-.26,6.07-.13,9.12c.14,3.23.11,6.48-.06,9.71-.17,3.06-.61,6.11-1,9.5-.63-1.72-.28-3.23-.35-4.7s0-3.23,0-4.85,0-3.24,0-4.86,0-3.24,0-4.86,0-3,0-4.51,0-3.24,0-4.86.15-3.2.28-4.79.35-3.14.52-4.7Z"/><path d="M681.46,45.23c0,5.15.12,10.1,0,15a102.13,102.13,0,0,1-1.32,13.34c0-2.4.07-4.8,0-7.2-.2-6.21-.46-12.42-.72-18.62C679.33,46.52,679.44,45.46,681.46,45.23Z"/><path d="M666.74,89.27c.3,4.45.32,8.93,1,13.32,1.18,8.17.38,16.34.53,24.5a1.44,1.44,0,0,1-.55,1.35c0-1.5,0-3-.07-4.51-.25-7.13-.2-14.28-.87-21.36A74.78,74.78,0,0,1,666.74,89.27Z"/><path d="M703.07,141c0-2.52,0-5-.08-7.55a32.05,32.05,0,0,0-.4-4.75c-.36-1.92.24-4,.46-6.37l2.85,1c-.81,5.93-1.61,11.81-2.41,17.7Z"/><path d="M681.9,193.78c.35,4.71.73,9,1,13.37a50.37,50.37,0,0,0,.63,8.21,21.41,21.41,0,0,1,0,4.34,15.53,15.53,0,0,1-2-6.62c0-6,0-12.05,0-18.07A6.82,6.82,0,0,1,681.9,193.78Z"/><path d="M664.26,250.26c-.3-5.39-.39-10.69,1.94-15.83,0,2.06,0,4.12,0,6.18,0,2.55,0,5.1,0,7.65C666.28,249.51,665.78,250.2,664.26,250.26Z"/><path d="M682.71,232.65c2.78,5,2.13,10.64,3,16.19l-1.92.17C683.41,243.51,683.06,238.08,682.71,232.65Z"/><path d="M703.57,73.8A95.71,95.71,0,0,1,701.71,49c0-.78.09-1.56.15-2.59.23.35.34.44.35.54.29,5.38.56,10.75.88,16.13.17,2.84.42,5.68.6,8.52A17.86,17.86,0,0,1,703.57,73.8Z"/><path d="M697.2,251c-.57-2.4-.67-16.77.13-21.92q.2,3.6.4,7.19c.15,2.62.41,5.24.45,7.86C698.27,250.22,698.23,250.22,697.2,251Z"/><path d="M645.63,158.32c2.94,1.49,3.36,4.12,3.84,6.59s-.31,4.92-1,7.65C647.54,167.76,646.63,163.25,645.63,158.32Z"/><path d="M641.41,125.3l1.64-1c.54,6.21,1.27,12.08.53,18C642.86,136.74,642.15,131.12,641.41,125.3Z"/><path d="M703.78,250.17a12.63,12.63,0,0,1,0-2.91,43.2,43.2,0,0,1,2.71-7.85c0,3.06.05,6.13,0,9.19C706.47,250.06,705.5,250.51,703.78,250.17Z"/><path d="M690.83,243.94c-.33-8-.32-16.07.09-24.11.3,1.9,1.13,3.88.82,5.67C690.67,231.63,691.87,237.83,690.83,243.94Z"/><path d="M694.74,68.72c0-1.68,0-3.36,0-5a81.75,81.75,0,0,0-.62-12.7,34,34,0,0,1,0-4.83A63.91,63.91,0,0,1,694.74,68.72Z"/><path d="M649.59,253.71l-1.9.14a9.11,9.11,0,0,1-.86-2.23c-.29-3.16-.45-6.32-.44-9.48C647.44,245.91,648.48,249.69,649.59,253.71Z"/><path d="M675.82,94.18v22.43A126.34,126.34,0,0,1,675.82,94.18Z"/><path d="M673.53,199.48c-1.3-4.92-1.14-9.91-1-15.46A44.62,44.62,0,0,1,673.53,199.48Z"/><path d="M684.28,44.65a10.94,10.94,0,0,1,1.26-.14,3.76,3.76,0,0,1,.92.35c-.32,2.54-.64,5.16-1,8.06C684,50.21,684.34,47.53,684.28,44.65Z"/><path d="M671.46,235.16c.2,4.56,1.43,9.06.81,13.65C671.75,244.28,670.6,239.77,671.46,235.16Z"/><path d="M901.23,139.23v4.45c0,6.94-.37,13.91.21,20.8.71,8.41.24,16.8.52,25.19a10,10,0,0,1-.36,3.42c-.32-2.14-.74-4.27-1-6.42-.33-3.18-.51-6.38-.8-9.56-.17-1.92-.45-3.84-.65-5.76s-.37-3.87-.49-5.77c-.26-4.08-.86-8.26.37-12.34a8.13,8.13,0,0,0,.09-1.72c.25-3.07.44-6.15.78-9.22a18.48,18.48,0,0,1,.92-3.09Z"/><path d="M889.39,180.42v3.09c0,18.41.08,36.82,0,55.22a38.94,38.94,0,0,1-1.26,9.41c-.27-3-.71-6.11-.76-9.17-.11-6.48-.39-13,.09-19.44.52-7,.09-14.07.74-21.05.51-5.53.27-11,.55-16.54,0-.55,0-1.11,0-1.67Z"/><path d="M920.94,122.18c2.55,11.3,3,22.32,3.35,33.94l-4.21-2.55C920.36,143.27,920.64,133,920.94,122.18Z"/><path d="M895.86,238.45c-.05-.67-.12-1.34-.13-2,0-2.89,0-5.79-.07-8.68-.19-8.87-.5-17.73-.57-26.6a43.78,43.78,0,0,1,1.19-9.86c.28,2.69.35,5.43.88,8.07,1.16,5.73.81,11.51.46,17.22-.27,4.47-.41,8.94-.62,13.4-.13,2.83-.63,5.63-1,8.45Z"/><path d="M869.63,188.32a140.69,140.69,0,0,1,1.9,17.86c.21,6.2.17,12.42.69,18.59.28,3.31.36,6.61.49,9.91,0,.55-.06,1.1-.11,1.87-.25-.31-.36-.39-.37-.48-.3-4.68-.43-9.37-.93-14s-.62-9.28-1.88-13.81a32.91,32.91,0,0,1-1.47-7.62,54.15,54.15,0,0,1,.85-8.47C869,190.93,869.32,189.74,869.63,188.32Z"/><path d="M935.3,159.82h-1.72c-.12-.29-.28-.49-.27-.69.22-7.48.19-15,.79-22.44.32-3.9.35-7.79.61-11.68.21-3.17.64-6.32,1.16-9.49,0,.79.1,1.57.1,2.36,0,9,.28,18.08-.13,27.09C935.61,149.88,935.56,154.8,935.3,159.82Z"/><path d="M888,112.92c.24,3.06.89,6.15.58,9.14-.25,2.39-.41,4.77-.45,7.16a117.37,117.37,0,0,1-1.36,15.67c-.05.34,0,.69,0,1q-.39,6.67-.81,13.36c0,.18-.19.35-.59,1.05,0-2.68,0-4.86,0-7,.22-7.46.22-14.95.82-22.38.27-3.43.38-6.85.61-10.27.18-2.59.59-5.17.9-7.75Z"/><path d="M855.21,135v17.66c-2,.33-2.44.12-2.57-1.37a5,5,0,0,1,0-1.72c1-3.49.48-7.06.62-10.6A4.53,4.53,0,0,1,855.21,135Z"/><path d="M929.75,139.5c0-4.62.07-9.24,0-13.86-.06-3-.41-5.94-.57-8.91-.07-1.25,0-2.51,0-4l1.91-.1c.76,9.11-1.12,18-.61,26.94Z"/><path d="M896.56,114.2a21.49,21.49,0,0,1,2.63,2.46,3.06,3.06,0,0,1,.59,2.16c-.7,4-1.54,7.87-2.46,11.8C897.16,125.16,895.9,119.76,896.56,114.2Z"/><path d="M870.53,147.17c-3.13-7-2.86-14.44-2.35-21.85A197.94,197.94,0,0,1,870.53,147.17Z"/><path d="M919.69,246.05c.14-6.13.27-12.25.41-18.67,2.49,1.83,2.15,4.24,1.89,6.5s-.83,4.65-1.24,7c-.3,1.74-.56,3.49-.84,5.24Z"/><path d="M881.08,133.35c-1.55-5.2-1.46-10.32-1.36-15.43l2.16-1.17c-.31,2.73.15,5.18-.63,7.68-.47,1.48-.15,3.21-.17,4.82C881.07,130.62,881.08,132,881.08,133.35Z"/><path d="M856.56,242.41c-.7-3.07-1.31-5.58-1.84-8.11-.72-3.45-.6-3.82,1.84-6.93Z"/><path d="M867.88,171.58c-1.8-5.21-1.23-10.37-1-15.57a14.56,14.56,0,0,1,.94,2.47,14.16,14.16,0,0,1,.1,2.77C867.89,164.69,867.88,168.14,867.88,171.58Z"/><path d="M955.06,130.1a50.29,50.29,0,0,1,0,13,14.06,14.06,0,0,1-.84-2.6C953.77,137.4,954.12,131.86,955.06,130.1Z"/><path d="M763.86,177.3a18.65,18.65,0,0,1-.24-2.21c0-7.51-.38-15,.12-22.5.35-5.13.34-10.27,1-15.42.06.82.14,1.65.17,2.47.27,6.88.5,13.76.8,20.64.09,1.81.44,3.6.6,5.41a24.46,24.46,0,0,1-1.12,8.4c-.27,1-.36,2.15-.54,3.22Z"/><path d="M765.54,207.62c4.58,13.07,4.53,16.37,1.5,30.81,0-2.4.07-4.81,0-7.22-.21-6.08-.44-12.17-.75-18.25C766.19,211.17,765.8,209.4,765.54,207.62Z"/><path d="M755.28,250c-.28-3.52-.55-6.57-.76-9.63-.27-3.78-.55-7.55-.71-11.33-.08-1.92,0-1.93,2.79-2.26-.05,7.29.13,14.54-.16,21.8C756.43,248.94,755.9,249.27,755.28,250Z"/><path d="M782.27,217a9.33,9.33,0,0,1,.7,2.11c.34,4.3.66,8.59,1.38,12.86a18.87,18.87,0,0,1-.89,8.42c-.08.3-.45.51-.89,1-.07-.93-.16-1.65-.17-2.37,0-4.38,0-8.77-.1-13.15,0-1.8.21-3.61-.5-5.42-.39-1-.07-2.21-.07-3.33Z"/><path d="M797.73,180.6c-.26-4.56-.6-9.12-.75-13.68-.25-7.12-1.1-14.22-.72-21.36a10.44,10.44,0,0,1,.48-3.46c0,.79.14,1.59.17,2.39.26,7.81.21,15.65.88,23.43A61.78,61.78,0,0,1,797.73,180.6Z"/><path d="M791.06,169.46c.4.82.92,1.39.92,2q.09,8.76-.07,17.53C789.81,178.94,789.09,180.67,791.06,169.46Z"/><path d="M822.74,246.78c-.33-5.74-.65-11.33-1-16.91l.48-.08a21.37,21.37,0,0,0,1.37,3.66c.92,1.56.36,3.16.45,4.73s0,3,0,4.52S824.18,245.56,822.74,246.78Z"/><path d="M799,225.73a50.42,50.42,0,0,1-1.93-18.36c1.2,1.83,1,3.83,1.37,5.69a31.43,31.43,0,0,1,.55,6.47C799,221.59,799,223.66,799,225.73Z"/><path d="M790.47,140.57c.13,3.26.69,6.52-.19,9.77-.44,1.6-.41,3.25-1.52,4.78-.66.92-.24,2.64-.43,4C786.77,152.68,789.51,146.74,790.47,140.57Z"/><path d="M786.51,125.68c0-3.68,0-7.36,0-11,0-1.17.07-1.17,2-1.84-1,3.09-.45,6.18-.69,9.22a32.15,32.15,0,0,1-.73,3.72Z"/><path d="M768.19,189.66c.37,4.49.69,8.44,1,12.4C766.57,196.18,766.39,193.65,768.19,189.66Z"/><path d="M801.49,235.37c.86,4.26,1.63,8,2.54,12.51-1-.66-1.88-.92-1.93-1.28C801.64,243,800.46,239.51,801.49,235.37Z"/><path d="M791.1,236.69c-.79-5.36-.58-8.95.83-13.15a81.42,81.42,0,0,1-.15,12.07C791.74,235.92,791.42,236.19,791.1,236.69Z"/><path d="M770.79,141.72a33.08,33.08,0,0,1-.75-11.91c.66,3.14,1.34,5.86,1.78,8.62C772,139.56,772.35,141,770.79,141.72Z"/><path d="M800,85.53c-.56-4.49-1.29-8.64-1.54-12.82a23.48,23.48,0,0,1,.38-7.86c.53-1.92.1-4.1.1-6.38a3.68,3.68,0,0,1,2.25,3.27c1.08,6.3.38,12.62.45,18.93A6.15,6.15,0,0,1,800,85.53Z"/><path d="M760.52,53a68.68,68.68,0,0,1,.84,6.91,34.64,34.64,0,0,1-.63,6.07c-.52,3.22-1.16,6.41-1.84,10.1a22,22,0,0,1-.8-3.78c-.08-4.72,0-9.44-.06-14.16A5.63,5.63,0,0,1,760.52,53Z"/><path d="M783.59,45.94c3,1.49,4.13,3,3.48,5.37-.57,2.06-.37,4.08-.49,6.11-.3,4.9-.58,9.79-1.28,14.71,0-.94-.11-1.87-.15-2.8-.26-5.95-.48-11.91-.8-17.86C784.26,49.7,783.87,47.94,783.59,45.94Z"/><path d="M766.45,66.16c-.25-4.76-.54-9.29-.69-13.82a7.89,7.89,0,0,1,.65-3.62c.42-.86,1.52-1.39,3-2.64C768,53.21,769.35,59.8,766.45,66.16Z"/><path d="M789.9,81.42c.54,4,1.09,8,1.65,12.11l-3.68,1.33c.6-4.81,1.14-9.11,1.68-13.42Z"/><path d="M773.84,56.89c-1.71-9.89-1.71-10.37,0-12.4Z"/><rect width="1189.86" height="30.91"/><rect y="270.48" width="1189.86" height="41.33"/><rect x="257.3" y="89.27" width="178" height="187.73"/><path class="cls-1" d="M265.11,222.33c-5,0-9.92-1.73-14.94-1.7-9.42.05-18,6.62-22.24,15.06s-4.48,18.4-2.62,27.64l35.62,2.44c1.65,4.65,3.34,9.38,6.23,13.37s7.22,7.24,12.14,7.67,9.65-2,14-4.3l29.36-15.61c3.08-1.63,6.59-3.31,9.89-2.23,4.68,1.52,6,7.34,8.95,11.28,4.05,5.43,11.66,7.28,18.32,6s12.53-5.1,17.86-9.29a7.22,7.22,0,0,1,3.35-1.79,6.93,6.93,0,0,1,3.82,1c4.55,2.21,9.31,4.43,14.38,4.49a17.5,17.5,0,0,0,17.11-21.92c3.88.81,7.94-1.23,10.48-4.28s3.8-6.94,4.71-10.81a76.74,76.74,0,0,0,1.9-21.79,6,6,0,0,0-.64-2.81c-1.12-1.85-3.69-2-5.84-2A441.29,441.29,0,0,0,368.91,218c-17.48,2.73-35.1,6.52-52.69,4.65-5.66-.6-11.25-1.78-16.91-2.34A156,156,0,0,0,280,220l-18.93.52"/><path class="cls-1" d="M265.11,219.83c-7.25-.28-14.19-2.87-21.41-.76a28.94,28.94,0,0,0-13.85,9.24c-8.38,9.94-9.24,23.39-6.95,35.68a2.53,2.53,0,0,0,2.41,1.84l35.62,2.44-2.41-1.83c3.89,10.9,10.7,24.9,24.7,22.68,7.42-1.17,14.36-6,20.87-9.5l11.23-6c3.72-2,8.71-5.86,12.9-6.47,7.79-1.13,8.71,8.21,13.34,12.52,3.95,3.68,9.59,5.29,14.9,5.13,6.71-.21,13-3.21,18.41-6.95,1.11-.76,2.19-1.57,3.26-2.39,2.73-2.06,4.87-1.67,7.78-.33a38.32,38.32,0,0,0,10.18,3.43c14.52,2.19,25.64-10.76,22.69-24.78L416.37,257c14.34,1.71,18.07-16,19.24-26.59.53-4.86,2.39-14.56-1.86-18.29s-13.42-1.61-18.43-1.36a449.4,449.4,0,0,0-48,5c-16.56,2.62-33.31,6.16-50.15,4.51-9.24-.9-18.19-2.82-27.51-2.87-9.53-.05-19.08.42-28.61.68-3.21.09-3.23,5.09,0,5,8.88-.24,17.78-.63,26.67-.68,9-.05,17.7,1.47,26.62,2.56,16.65,2,33.23-.93,49.62-3.62a458.43,458.43,0,0,1,53.31-5.67c3.39-.15,11.76-2,13.7,2,1.34,2.74,0,9.85-.35,12.79-.92,8.06-3.15,22.92-14.24,21.59-1.72-.21-2.71,1.75-2.41,3.16,2.12,10.11-5.51,19.59-16,18.63-4.78-.43-8.62-2.95-13-4.58-2.19-.81-4.12-1.12-6.32-.1-3.28,1.52-6,4.46-9.1,6.33a28.29,28.29,0,0,1-12.34,4.39,17.26,17.26,0,0,1-10.44-2.43c-3.1-2-4.45-5.07-6.22-8.15-2.61-4.55-6.28-8.08-11.92-7.24-3.79.57-7.27,2.83-10.59,4.59L305.89,273l-12.09,6.42c-4,2.12-8.22,4.77-12.86,4.92-10.35.35-14.78-11.34-17.6-19.24a2.6,2.6,0,0,0-2.41-1.84l-35.62-2.44,2.41,1.83c-2-11-1.26-23.35,6.65-31.94a22.89,22.89,0,0,1,13.2-7.36c5.83-.87,11.7,1.24,17.54,1.47,3.22.12,3.21-4.88,0-5Z"/><path class="cls-1" d="M266.07,226.87a56.33,56.33,0,0,1-13.76-47.53c1.8-9.87,6.09-20.82.63-29.24l5.13.08a22.56,22.56,0,0,1,14.42-32.87c7.22-1.75,14.75.14,22.05,1.52a159.37,159.37,0,0,0,39.55,2.43c13.28-.84,26.8-3.34,39.75-.27,3.54.83,8.6,1.25,9.48-2.27.37-1.45-.28-2.94-.39-4.43s.83-3.36,2.31-3.14a2.85,2.85,0,0,1,1.63,1.09c7.38,8.13,6.08,20.64,4.32,31.48l9.29-10.35a46.68,46.68,0,0,1-5,26c-.86,1.65-1.84,3.33-1.92,5.19a11,11,0,0,0,1.36,4.91c3.24,7.06,6.88,14.06,8.4,21.68s.6,16.17-4.48,22c-4.31,5-11,7.36-17.5,8.33s-13.18.74-19.73,1.61c-8.21,1.09-16.09,3.88-24.18,5.67-21.67,4.79-44.21,2.3-66.2-.59-2.56-.34-5.25-.74-7.24-2.38s-2.81-5-1-6.79"/><path class="cls-1" d="M267.84,225.1A54.35,54.35,0,0,1,254,186.28c.61-12.46,8-25.56,1.08-37.44l-2.16,3.76,5.13.08a2.53,2.53,0,0,0,2.16-3.76c-4.09-8.06-2.92-17.87,3.77-24.19,7.35-7,17-5.94,26.21-4.2a181.82,181.82,0,0,0,50.53,2.7c8.51-.75,17.1-1.74,25.64-.94,5,.46,12.61,3.81,17.22.26a6.19,6.19,0,0,0,2.31-5.29c0-.25-.43-3.33-.8-3.26,1.08-.2,3.39,5.73,3.62,6.41,2.36,7.24,1.21,15.3,0,22.64-.35,2.23,2.34,4.48,4.18,2.43l9.28-10.34L398,133.37c.75,9.39-1.29,17.57-5.34,26-3.45,7.17.93,12.93,3.86,19.54,3.7,8.34,6.87,18,3.66,27-3.5,9.86-13.88,12.83-23.32,13.63-8.65.73-17,1-25.48,3.11-9.33,2.32-18.38,4.94-28,5.81a170,170,0,0,1-28.45-.1c-4.76-.37-9.52-.87-14.26-1.44-2.21-.26-19.27-1.11-15.53-6.59,1.82-2.67-2.51-5.17-4.31-2.53-3.22,4.72,0,10,4.86,11.78,3.18,1.2,6.91,1.33,10.25,1.76,4.73.6,9.48,1.16,14.23,1.61,17.84,1.69,35.66,1.53,53.09-3,8.81-2.28,17.27-4.48,26.41-5,7.38-.41,14.91-.68,21.8-3.63,13.89-6,17.22-20.74,13.41-34.33a84.82,84.82,0,0,0-4.78-12.28c-1-2.15-2.24-4.3-3-6.52-1.53-4.31-.32-5.63,1.32-9.08A50.37,50.37,0,0,0,403,133.37c-.17-2-2.71-3.5-4.27-1.77L389.42,142l4.18,2.43c1.62-10.23,4.14-27.22-5.7-34.61-3.39-2.54-7.14,0-7.42,3.94-.1,1.42.48,2.55-.13,3.94-.85,2-2.7,1.49-4.74,1.16-3.73-.6-7.32-1.42-11.11-1.67-16.76-1.07-33.43,2.67-50.26,1.64-8.95-.55-17.58-2.28-26.39-3.76-6.79-1.13-13.7-1.52-20.13,1.32-13.64,6-18.38,22.14-11.81,35.1l2.16-3.76-5.13-.08a2.52,2.52,0,0,0-2.15,3.76c4.1,7.08,1.75,15.11.1,22.57a64.78,64.78,0,0,0-1.71,20.1,59.85,59.85,0,0,0,15.13,34.61c2.15,2.4,5.67-1.15,3.53-3.54Z"/><path class="cls-1" d="M262,66.45a35.86,35.86,0,0,0,1.54,24.18,16.24,16.24,0,0,0,3.94,5.89c2.24,2,5.3,3,7.18,5.29,1,1.19,1.56,2.66,2.43,3.93,2.52,3.66,7.53,6.08,7.7,10.52a25.07,25.07,0,0,0-3-22.5,64.74,64.74,0,0,0-6.37-7.18A100.83,100.83,0,0,1,261.48,68"/><path class="cls-1" d="M261.43,66.28c-2.42,9.14-2,20.54,3.7,28.5A15,15,0,0,0,269,98.39a23,23,0,0,1,7.17,7c2.47,3.83,7.37,6.24,8,11,.09.66,1,.53,1.2,0a26,26,0,0,0-3.57-23.62c-2.66-3.6-6.06-6.6-9-10A104.5,104.5,0,0,1,262,67.72a.63.63,0,0,0-1.08.63,113.4,113.4,0,0,0,15.7,20.4c7.37,7.71,11,16.79,7.58,27.34h1.2c-.43-3.11-2.31-5-4.47-7.14-2.87-2.82-4.44-6.71-7.56-9.19-2.09-1.66-4.61-2.69-6.44-4.69-2.16-2.35-3.4-5.76-4.27-8.76a36.41,36.41,0,0,1-.05-19.7.62.62,0,0,0-1.2-.33Z"/><path class="cls-1" d="M275.11,48.56Q281.17,57.43,288,65.7a17.18,17.18,0,0,1,2.67,3.86,13.64,13.64,0,0,1,.94,5.49,37.23,37.23,0,0,1-5,18.8,53.75,53.75,0,0,0-1.25-6.41c-2.94-10.53-12.06-19.08-12.61-30a13.13,13.13,0,0,1,2.7-9.21"/><path class="cls-1" d="M274.57,48.88C279,55.23,284.13,61,288.49,67.33c5.24,7.58,1.7,18.78-2.36,26.21l1.14.15c-1.18-7.59-4-13.5-7.76-20.1-4.2-7.39-9.32-17.11-3.46-25,.48-.65-.61-1.27-1.08-.63-4.37,5.91-2.9,13.43-.05,19.68C279,76.65,284.49,83.94,286.07,94c.08.54.9.59,1.14.15,3.59-6.56,6.37-15.23,4.69-22.77-.79-3.58-3.47-6.15-5.69-8.91-3.7-4.62-7.2-9.37-10.56-14.24-.45-.66-1.54,0-1.08.63Z"/><path class="cls-1" d="M323.52,28.13c5.42,3.91,5.41,10.05,5.12,16.73a7,7,0,0,1-.93,3.6,8.48,8.48,0,0,1-2.47,2.18c-8.55,5.77-17.08,11.78-23.85,19.55s-11.71,17.57-11.81,27.87a22.53,22.53,0,0,0,2.5,11.2,25.06,25.06,0,0,0,6.64,7.28c2.2,1.73,4.57,3.29,6.32,5.47,5.7,7.14,2.92,18.37,8.22,25.82,4.16,5.84,12,7.57,19.14,8.22a124.15,124.15,0,0,0,39.1-2.63,3.34,3.34,0,0,0,3.2-2.7,220.79,220.79,0,0,0,11.24-55.41c.29-4,.45-8.16-.8-12-2.06-6.32-7.57-10.8-12.81-14.9l-14-11c1.43,7.51,8.08,12.84,11.29,19.78,3.9,8.4,2.41,18.19.84,27.31-3.73-2-6.05-6-6.92-10.11s-.47-8.41.08-12.59c-6.66,5-7.92,14.32-8.65,22.61a54,54,0,0,1-12.38-10.93,16.64,16.64,0,0,1-3.87-7c-.55-2.62.18-5.66,2.36-7.2,3.64-2.57,8.61.12,13.05-.19a9.68,9.68,0,0,0,8-5.48,31.87,31.87,0,0,1-8.35,1.86,7.71,7.71,0,0,1-5.5-1.15c-6.83-5.32-1.94-3.92-1.91-6.15A49.4,49.4,0,0,1,353,44a17.17,17.17,0,0,0-11.62,25.06c-4.29-1.07-8.85,1.26-11.69,4.65s-4.3,7.7-5.71,11.89c-.69.07-1.1-.75-1.28-1.42a28,28,0,0,1,2.52-20.68c2.38-4.28,5.84-7.85,8.53-11.93,1.36-2.06,2.53-4.25,3.69-6.43a8,8,0,0,0,1.3-4.24,6.75,6.75,0,0,0-1.29-3.06,23.68,23.68,0,0,0-18-10.36"/><path class="cls-1" d="M323.08,28.57c4.28,3.48,6.52,10.82,4.94,16.29-1.79,6.17-9.67,9.62-14.46,13.31-8.43,6.49-16.22,14.18-20.78,24-3.62,7.77-5.61,17.74-2,25.9,1.66,3.75,4.49,6.51,7.63,9.06,2.87,2.33,5.83,4.25,7.62,7.63a26.55,26.55,0,0,1,2.33,8.07c1.45,8.54,2.43,16.66,11.06,20.82,8.83,4.25,20.32,3.9,29.83,3.47a127.06,127.06,0,0,0,15.07-1.59c3.32-.55,8.59-.54,10.63-3.68,1.13-1.72,1.5-4.33,2.12-6.3q1.41-4.51,2.62-9.08,2.43-9.13,4.07-18.45t2.5-18.9c.51-5.74,1.22-11.88-1.05-17.35-1.92-4.62-5.63-8.19-9.41-11.33-5.55-4.61-11.35-8.94-17-13.39a.63.63,0,0,0-1,.61c2.47,10.48,12.17,16.82,13.47,27.93a43.81,43.81,0,0,1,0,9.44c-.16,1.69,0,4.42-.77,5.94s-.21,2.59-2.3,1.09c-5.73-4.15-4.62-14.17-3.89-20.17.07-.6-.7-.74-1.07-.44-4.09,3.37-6.26,7.95-7.43,13.06-.51,2.24-.37,5.06-1.13,7.19-.7,2-.32,1.46-2.06.39A35.24,35.24,0,0,1,347,97.32c-3.21-3.11-7.61-7.33-7.8-12.08s4.64-6.62,8.71-6.1c1.08.14,2.14.4,3.22.52,5,.54,9-1.21,11.53-5.65a.63.63,0,0,0-.71-.92c-4,1.35-13.07,4.23-15.62-1.14-1.38-2.92.27-1.32.59-3.29.58-3.71.51-7.42,1.41-11.13a51.33,51.33,0,0,1,5.27-13.18.64.64,0,0,0-.71-.92c-11.71,3-17.24,15.14-12,26l.71-.92c-7.5-1.21-12.89,4.18-15.79,10.59-.25.55-.48,1.12-.7,1.68-.51,1.27-.37,3.55-1.64,2.42-1.64-1.46-1.11-6.71-.92-8.72.63-6.66,3.84-12,7.81-17.16,3.54-4.61,11.34-12.79,8.1-19-3.56-6.84-11.58-10.68-18.93-11.39-.81-.08-.8,1.17,0,1.25A24,24,0,0,1,330.68,32c4.56,3,7.69,7,6.25,12.89S329.29,56.08,326,61.13a29.06,29.06,0,0,0-4.76,14.13c-.18,2.91-.62,9.32,2.47,10.91a.63.63,0,0,0,.91-.38c2.55-7.51,6.74-17.7,16.64-16.1a.63.63,0,0,0,.7-.92A16.81,16.81,0,0,1,353.2,44.64l-.71-.92a51.92,51.92,0,0,0-6.08,16.79c-.46,2.75-.2,6-1.32,8.54-.18.41-1,.5-1,1.1-.11,2,2.43,3.93,3.89,4.8,4.26,2.57,10,.83,14.33-.65l-.71-.92c-2.86,5.06-7.31,5.44-12.57,4.68a16.52,16.52,0,0,0-5.47-.32A6.79,6.79,0,0,0,338,83.8c-1.16,8.8,10.39,17,16.66,21.19a.63.63,0,0,0,.94-.54c.74-8.06,1.83-16.69,8.47-22.17L363,81.84c-1,8.53-1,18.21,7.15,23.24a.64.64,0,0,0,.92-.37c1.45-8.53,3-17.71-.17-26.06-2.92-7.77-10-13.14-12-21.37l-1,.61q6.62,5.18,13.23,10.36c4.19,3.28,8.75,6.66,11.56,11.28,5.71,9.39,2.13,24.2.51,34.38A221.63,221.63,0,0,1,375.29,147c-1.13,3.52-2.2,5.07-5.78,6.26a44.61,44.61,0,0,1-7.38,1.35,123.17,123.17,0,0,1-18.5,1.37c-9.9,0-24.87.22-30.61-9.64-4.17-7.17-2-16.43-6.61-23.45-2.47-3.78-6.59-5.82-9.77-8.9-4.93-4.8-6.77-10.71-6.38-17.51.61-10.82,6.53-20.7,13.9-28.34a102.72,102.72,0,0,1,14.31-12c3.21-2.3,8.8-4.54,10.32-8.42,2.46-6.33.38-15.73-4.83-20-.62-.51-1.51.37-.88.88Z"/><path class="cls-1" d="M363.54,28a22.8,22.8,0,0,0-1.72,5.5c-.46,3.82,1.57,1.26,2.08,11.3.39,7.86.39,7.86-1,11.5a8.54,8.54,0,0,0,6.37-3.95,12.7,12.7,0,0,0,1.87-7.41,10.83,10.83,0,0,0-1.05-4.6c-1.05-2-2.93-3.51-4.22-5.4A21.67,21.67,0,0,1,363.22,28"/><path class="cls-1" d="M362.94,27.79c-1.71,4.29-2,6.19-.65,10.15,1.82,5.28,2,12.88,0,18.15-.19.5.35.84.77.77,5.28-.83,8.32-5.24,8.67-10.4a12.11,12.11,0,0,0-1.83-7.64c-1-1.54-2.48-2.71-3.5-4.24a21.72,21.72,0,0,1-2.58-6.77.63.63,0,0,0-1.21.34,22.87,22.87,0,0,0,2.71,7.06c2.12,3.19,5,5.49,5.19,9.69a12.17,12.17,0,0,1-1.79,7.1c.35-.52-4.11,4.63-4.91,3.59,0-.06.87-3.46.91-3.88A38.68,38.68,0,0,0,363.6,38c-1.21-3.85-1.11-5.65.55-9.83.29-.74-.91-1.07-1.21-.33Z"/><path class="cls-2" d="M361.15,57.85c.1.69.69,1,1.12,1.42a30.37,30.37,0,0,0,4.6,3.67,54.08,54.08,0,0,1,6.2,4.26c2.18,1.75,4.36,3.52,6.48,5.34a33.05,33.05,0,0,1,4.89,5.35,5.89,5.89,0,0,1,.62,1,55.22,55.22,0,0,1,3.4,7.81,24.18,24.18,0,0,1,.69,7.19,42.78,42.78,0,0,1-2.22,13.22c7.93,7.35,11.07,16.18,7.94,26.8.67.29.86-.19,1.12-.5a26.08,26.08,0,0,1,4.32-4.08,5.83,5.83,0,0,1,3.17-1.33,50.58,50.58,0,0,1,.81,12.23,82.26,82.26,0,0,1-1.57,11.17c-.66,3.27-2.25,6.16-3.55,9.16a32.55,32.55,0,0,1-1.65,3.22,2.48,2.48,0,0,0-.16,2.23,19.56,19.56,0,0,0,1.31,2.73c1.4,2.48,2.77,5,4.16,7.46a44.5,44.5,0,0,1,3.84,10.44A41.52,41.52,0,0,1,408,199.12c-.2,5.67-2.4,10.54-5.61,15.06a4.31,4.31,0,0,1-.65.62h-5a25.91,25.91,0,0,0,2.45-3.36c1.75-3.11,3.57-6.18,5.27-9.32a8.47,8.47,0,0,0,1-3.32,30.46,30.46,0,0,0-1.38-11.87c-1.69-5.47-4.66-10.18-8-14.74a47.27,47.27,0,0,1-4.74-7.64,28.52,28.52,0,0,1-1.79-18.73c1-4.49,2.16-8.94,3.17-13.42a21.91,21.91,0,0,0-3.9-19.79,6.54,6.54,0,0,0,.39,2.47A24.17,24.17,0,0,1,386,133.87c-1.87,2.88-3.77,5.74-5.43,8.76a24.78,24.78,0,0,0-2.82,10,31.22,31.22,0,0,0,1.07,11.49,7,7,0,0,1-1.56,7,5.22,5.22,0,0,1-2.65,1.68,37.66,37.66,0,0,0-4.41,1.84,15.76,15.76,0,0,1-1.51.51,9.18,9.18,0,0,0-7.17,7.51c-.28,1.27-.41,2.57-.6,3.86a8.19,8.19,0,0,0,.39,3.3,26,26,0,0,0,1.42,4.26,38.26,38.26,0,0,1,2.49,7.56,18.63,18.63,0,0,1-.5,10.3c-.44,1.33-.94,2.64-1.38,4a2.23,2.23,0,0,1-1.38,1.48,3.82,3.82,0,0,1-.35-2.32,16.12,16.12,0,0,0-.94-8,53.2,53.2,0,0,1-3.11-12.8,62.06,62.06,0,0,1-.2-11.32,30.4,30.4,0,0,1,1.44-7.65,3.44,3.44,0,0,0,.3-2.11,10.47,10.47,0,0,0-1.64,2.25,34.76,34.76,0,0,0-4.57,15.15c-.08,1.08-.62,2.15-.13,3.2a2.61,2.61,0,0,1-1.24,1.08,8.42,8.42,0,0,0-3.31,2.75c-1.78,2.23-3.54,4.48-5.33,6.71a19.27,19.27,0,0,0-3.13,5.86,3.83,3.83,0,0,1-1.62,2.4,3.73,3.73,0,0,1-.6-3c1-4.08,2.26-8.08,4.69-11.6a7,7,0,0,0,.73-1.41,18.14,18.14,0,0,1,3.45-5.34,65.07,65.07,0,0,0,4.22-6.07A11.06,11.06,0,0,0,352,181a28.93,28.93,0,0,0-.22-11.24c-.62-3.53-1.07-7.08-.22-10.64a14.37,14.37,0,0,1,2.65-6.05c.83-1,1.55-2.1,2.32-3.16a15.4,15.4,0,0,1,2.34-2.13,1.37,1.37,0,0,0-1.62.21c-2.78,2-5.54,4.08-7.45,7a14.17,14.17,0,0,0-2.45,9.07,26.07,26.07,0,0,1-.32,8.81,23.73,23.73,0,0,1-8.2,12.55,63.92,63.92,0,0,1-9.34,6.38,51.27,51.27,0,0,0-10.07,6.85,18.69,18.69,0,0,0-5.52,8.71,11.36,11.36,0,0,0-.48,3.57c.12,2.62.51,5.2.82,7.8a32.79,32.79,0,0,1,.12,3.54,6.46,6.46,0,0,1-2.48-2.65c-4.51-8-4.52-16.32-1.63-24.8A40.63,40.63,0,0,1,316,184c1-1.32,2.27-2.37,3.21-3.74a25.69,25.69,0,0,0,3.05-5.24c.15-.38.75-.55.52-1.1-.36-.22-.58.05-.68.29a6.34,6.34,0,0,1-1.82,2.22,46.82,46.82,0,0,0-3.19,3.56c-2.55,2.66-5.33,5.07-8.06,7.52a11,11,0,0,0-1.63,1.85,9,9,0,0,1-.7.93c-2.86,3-4.63,6.71-6.51,10.38-2.1,4.12-2.31,8.42-2.21,12.85a33.86,33.86,0,0,0,.41,5.32c-.52.19-.8-.13-1.09-.33a69.26,69.26,0,0,1-7.66-6.21,66.31,66.31,0,0,1-7.88-7.93,34.87,34.87,0,0,1-6-9.86,26.78,26.78,0,0,1-1.15-5.5c-.47-3.35-1.07-6.71-.58-10.12a22.14,22.14,0,0,1,1.12-5.8,5,5,0,0,1,.5-.92,1.61,1.61,0,0,1,.08,1.09c-.4,1.91-.26,3.86-.5,5.79-.37,3.09.4,6.06,1.23,9a46.81,46.81,0,0,0,1.74,5.21,59.48,59.48,0,0,0,4.17,8.43c.24.4.57.39.89.55.2-.38,0-.62-.14-.94-1.68-4.23-3.66-8.35-4.65-12.82a4,4,0,0,1,0-1.92c1.8,3,3.3,6.23,5.06,9.27a57.46,57.46,0,0,0,6.25,8.58c.36-.69-.07-1-.31-1.3a48.3,48.3,0,0,1-5.93-11.87,1.27,1.27,0,0,1-.05-1.18c3.08,4.06,5.89,8.21,9.58,11.81a2.34,2.34,0,0,0-.49-1.79c-.93-1.68-1.94-3.31-2.89-5a4.42,4.42,0,0,1-.81-2.65c2.83,2.25,5.23,4.73,7.87,7,.42-.46.12-.74-.09-1a41.33,41.33,0,0,1-2.78-4.41,4.43,4.43,0,0,1-.65-1.73c1.95,1.18,3.22,3.15,5.39,4.08.16-.84-.37-1.22-.67-1.65a60.37,60.37,0,0,0-5.66-6.61,26.53,26.53,0,0,1-7.32-16.36,22.12,22.12,0,0,1,.94-9.73,74.69,74.69,0,0,1,7.34-14.59c2.5-3.85,2.56-7.89.88-12a17,17,0,0,0-.89-1.82A4.74,4.74,0,0,0,290,131a28,28,0,0,0-6.3-.74,20.75,20.75,0,0,1-9-2c-1.86-1-4.31-3.88-3.18-6.91a6.35,6.35,0,0,1,2.76-3.75,18.32,18.32,0,0,0,2.7-2c.67-.54,1.26-1.18,1.88-1.76-.21-.35-.47-.24-.67-.2A32,32,0,0,0,255.51,131a10.9,10.9,0,0,0,.83,11.15,7,7,0,0,0,3.12,2.71,19.67,19.67,0,0,0,5.24,1.57,5.07,5.07,0,0,0,2-.29,34,34,0,0,1,12.22-.75c3,.3,5.92,3.25,5.67,5.81-.15,1.53-.54,3-.84,4.56-.08.43-.24.84-.36,1.26a3.53,3.53,0,0,1-1.43,1.94,27.59,27.59,0,0,0-5.94,5.27c-1.19,1.45-2.58,2.74-3.87,4.1a27.16,27.16,0,0,0-5.44,8.67,37.9,37.9,0,0,0-2.34,9.83,38.43,38.43,0,0,0,.7,10.81,7.22,7.22,0,0,1,.19,2c-.12,1,.42,1.88.29,2.86-.11,0-.25,0-.26-.06-1.15-2.8-2.92-5.35-3.72-8.27a37.19,37.19,0,0,1-1.42-7.84c-.1-1.68-.32-3.36-.26-5.07.09-2.8.39-5.59.56-8.39.26-4.28.73-8.61-.73-12.8a23.46,23.46,0,0,0-6.25-9.13c-.24-.23-.25-.21-1.08-.2a18.09,18.09,0,0,1,1.81,3.63,19.4,19.4,0,0,1,.86,4.26,30.52,30.52,0,0,1,0,7.64,57.53,57.53,0,0,1-1.38,6.22,69.64,69.64,0,0,0-2.44,12.34c-.45,5.05.32,10,1.08,14.86a23,23,0,0,0,4.61,10.53,78.1,78.1,0,0,0,6.15,6.72c1.31,1.35,2.45,2.85,3.66,4.29a1,1,0,0,1,.17,1c-.09.26-.47.39-.93.45a11.46,11.46,0,0,1-3.74-.16,4.54,4.54,0,0,1-2.79-1.64,52,52,0,0,1-4.6-6.51c-.57-1-1.12-1.92-1.76-2.83a61.2,61.2,0,0,1-4-7.22c-.92-1.76-1.2-3.86-1.75-5.81a25.78,25.78,0,0,1-.74-4.72c-.13-1.62-.55-3.23-.67-4.87a8.6,8.6,0,0,1,.23-4,4.19,4.19,0,0,0,.18-1.29,33.28,33.28,0,0,1,2.18-9.44,67.64,67.64,0,0,0,2.89-10.58c1.33-5.82-.31-10.79-4.2-15.14a31.91,31.91,0,0,0-3.17-3.2,1.05,1.05,0,0,1-.55-1c1.66-.24,3.27.34,4.9.5a23.94,23.94,0,0,1,4.65.92c.27-.11.3-.19.24-.3-3.14-4.88-3.15-10.06-1.22-15.3,2.53-6.85,7.25-11.92,13.36-15.77,3.44-2.17,6-3.15,11.47-4.58a11.8,11.8,0,0,0-1.9-3.33,14.78,14.78,0,0,0-4-3.72,43.13,43.13,0,0,1-5.66-4,19.25,19.25,0,0,1-5.77-7.34A27.49,27.49,0,0,1,258,84.88c-.86-5.64.1-11.1,1.7-16.48.49-1.62,1.06-3.21,1.69-5.15C267,74.6,275.09,83.74,283.62,92.76a21.21,21.21,0,0,0-1.14-5.21,107,107,0,0,0-4.61-12C277,73.77,276.09,72,275,70.31a14.53,14.53,0,0,1-2-5.11,81.6,81.6,0,0,1-1-9.08c-.34-4.17,1.08-7.69,3.4-11A6.82,6.82,0,0,0,277,42.4c.62,1.74.34,3.39.76,5A11.57,11.57,0,0,0,280,51.94c2.22,2.65,4.88,4.83,7.29,7.27a24,24,0,0,1,6.81,12.53c0,.13,0,.3.23.32,1.65-1.8,2.93-3.88,4.42-5.8a35.6,35.6,0,0,1,11.7-9.81q4.05-2.1,8.15-4.09a25,25,0,0,0,6.49-4.57,8.15,8.15,0,0,0,2.09-9.42A21,21,0,0,0,322.45,31c-1.17-1.22-2.36-2.44-3.52-3.67a1.13,1.13,0,0,1-.43-.81,11.11,11.11,0,0,1,3.69.33,41.57,41.57,0,0,1,10.72,4.33,13.59,13.59,0,0,1,5.8,6.5A11.64,11.64,0,0,1,338,48.14a58,58,0,0,1-5.18,7.36c-1,1.28-2.1,2.55-3.24,3.73a23.58,23.58,0,0,0-5.93,12.37,23.58,23.58,0,0,0-.22,7.82c.55-.3.51-.93.69-1.4a17.17,17.17,0,0,1,4.71-7,12.94,12.94,0,0,1,11.05-3s0-.07-.07-.19c-2.77-3.61-2.86-7.56-1.41-11.68a20.9,20.9,0,0,1,6.22-8.78,33.76,33.76,0,0,1,7.94-5,9.33,9.33,0,0,1,2.76-.8c.45-.05.75,0,.94.39a1.19,1.19,0,0,1-.44,1.06,28,28,0,0,0-6.28,13.92c-.45,2.67-.83,5.35-1.29,8a20.21,20.21,0,0,0-.1,5.21,25.38,25.38,0,0,1,.22,2.86c4.37,2.78,11.57,2.67,14.49-3-.06-.47-.47-.71-.74-1a52.54,52.54,0,0,1-6.88-10,19.8,19.8,0,0,1-1.82-5.64,19.37,19.37,0,0,1,.2-5c0-.2.23-.38.41-.66a36.34,36.34,0,0,0,5.37,8.78c.5.62.91,1.34,1.74,1.62Zm6.4,18.93a1.85,1.85,0,0,1-.32,1.37c-.66,1.5-1.16,3.06-1.73,4.6-1.88,5.09-1.17,10,1.32,14.63a14.48,14.48,0,0,0,2.17,3.43,46.45,46.45,0,0,0,1-5.23,31.93,31.93,0,0,0,.14-12.51c-.56-2.44-1.05-4.9-2.58-7a31.7,31.7,0,0,0-3.08-4.65c-.21.57-.36,1-.52,1.38a10.58,10.58,0,0,1-7.56,7,19,19,0,0,1-7.63.07,21.68,21.68,0,0,0-4.18-.39c-3.58.16-5.27,2.12-4.93,5.67a10.57,10.57,0,0,0,2.49,5.62,57.73,57.73,0,0,0,8.92,9.1,6,6,0,0,0,1.65,1.23c0-.53,0-1,0-1.4a14,14,0,0,1,0-1.45,28.59,28.59,0,0,1,12.35-20.59A3.87,3.87,0,0,1,367.55,76.78ZM321.4,28.2c.09.22.11.34.17.38.51.36,1,.72,1.55,1.06a27.88,27.88,0,0,1,7.82,8.08A7.29,7.29,0,0,1,332,42.3a13,13,0,0,1-3,7.41A25.9,25.9,0,0,1,323,55a121.68,121.68,0,0,0-11.51,8.6c-7.62,6.28-13,14-15.28,23.69-1,4.19-1.7,8.45-1,12.79a14.76,14.76,0,0,0,3.49,8.13,53.08,53.08,0,0,0,4.76,4.48c1.71,1.44,3.59,2.62,5.4,3.92a14.68,14.68,0,0,1,5.65,7.35,78.59,78.59,0,0,1,2.47,8.63c.88,4.26,1.32,8.6,2.31,12.84a7.08,7.08,0,0,1,.05,3.6c-.34,1.2-1.3,1.56-2.15.68a23.18,23.18,0,0,0-3.86-3.06,7,7,0,0,1-1.17-1.08,18.39,18.39,0,0,1-4.15-8,13.93,13.93,0,0,1-.43-6.46,10.87,10.87,0,0,0,.33-3.95c-.39.07-.42.34-.5.55a43.21,43.21,0,0,0-2.88,17.2,12,12,0,0,0,2.76,7.64c1.24,1.49,2.46,3,3.68,4.49,2.54,3.11,4.32,6.56,4.42,10.66a13.63,13.63,0,0,1-1.44,7.45,28.13,28.13,0,0,1-4.15,5,11.17,11.17,0,0,1-3.73,2.44,9.78,9.78,0,0,0-4.32-7.28,8.85,8.85,0,0,1-2.56-2.54,5.52,5.52,0,0,0-1-1.08,30.26,30.26,0,0,1-7.3-9.62,3.3,3.3,0,0,0-.12,1.65,11.29,11.29,0,0,0,2.66,5.86c1.37,1.57,2.74,3.15,4,4.81,1.48,2,2.84,4,2.92,6.66a5.72,5.72,0,0,0,.3,1.27c.3,1.17.51,2.36.7,3.55.27,1.67.12,3.34.24,5.27,1-1.68,2.4-2.67,3.47-4a55.24,55.24,0,0,1,7.4-6.94,87.28,87.28,0,0,0,9.46-9,10,10,0,0,0,2.65-5.06,21.61,21.61,0,0,1,1.93-5.45,52.14,52.14,0,0,1,8.94-13.34c1.95-2.15,3.86-4.34,5.82-6.48a20.82,20.82,0,0,0,3.79-5.65,33.37,33.37,0,0,0,2.69-11.52,11.68,11.68,0,0,0-.52-4.74,40.65,40.65,0,0,0-3.31-7.23c-.16-.26-.33-.47,0-.79a4.44,4.44,0,0,1,1.65,1.68c2.11,3,3.78,6.2,5.58,9.35a23.89,23.89,0,0,1,3.07,11.67,38.11,38.11,0,0,1-1.85,11.27c-.34,1.19-.75,2.36-1.14,3.54.4.1.53-.13.72-.26a33.44,33.44,0,0,1,7.13-3.86,11.41,11.41,0,0,1,6.25-.81c.33.06.53.17.54.55a37,37,0,0,0-8.87,10,12.91,12.91,0,0,0-1.56,4.5,30.44,30.44,0,0,0-.39,4.48c0,3.67.78,7.27,1,11.05a3.11,3.11,0,0,0,1.13-1.24c.58-.84,1.14-1.69,1.77-2.48,1.73-2.16,3.42-4.34,5.12-6.51.27-.35.55-.67,1.1-.51.29.82-.32,1.38-.68,1.94a19,19,0,0,0-2.42,6c-.05.2-.08.5.39.53,2.57-3.75,3.4-8.34,5.42-12.35.58.21.56.54.47.89-.17.66-.36,1.3-.51,2a44.73,44.73,0,0,1-2.24,8.19c-.1.23-.2.56.17.74.38,0,.54-.32.71-.62,1.88-3.48,3.46-7,3.15-11.13-.11-1.54-.22-3.09-.29-4.63,0-.45-.19-1,.38-1.28a.62.62,0,0,1,.62.53c1.15,5.06,1.81,10.14.49,15.27.37.23.55,0,.73-.22a6.54,6.54,0,0,0,.91-2c1-3.21.65-6.4-.11-9.59-.49-2.08-1.44-4-2.07-6a26.26,26.26,0,0,1-1.24-8,2.23,2.23,0,0,1,.89-2c.51,2,.44,4,1.07,5.9s1.05,3.9,2.52,5.48c.06-.18.12-.26.11-.35,0-.28-.06-.57-.11-.86-1.58-9.48-.18-18.71,2.44-27.82,1-3.5,2.7-6.74,3.91-10.16a63.71,63.71,0,0,0,4.06-21.14,23,23,0,0,0-4.69-14.66,35.34,35.34,0,0,0-5.42-5.24,162.36,162.36,0,0,1-14.24-12.75c-.09-.1-.26-.07-.39,0a.76.76,0,0,0,0,.81,17.94,17.94,0,0,1,1.64,2.44,39.46,39.46,0,0,0,5.51,6,27,27,0,0,1,6.43,8.52,30.18,30.18,0,0,1,1.88,6.84,31.11,31.11,0,0,1,.18,11,70.53,70.53,0,0,1-3.06,10.73,8.16,8.16,0,0,0-.78,2.92,1.07,1.07,0,0,1-.82,1.14c-.84-.17-1.18-.9-1.41-1.63a17.64,17.64,0,0,0-3.52-6,33.52,33.52,0,0,1-2.31-3,11.49,11.49,0,0,1-1.87-8.84,30.24,30.24,0,0,1,1.82-6.18.44.44,0,0,0-.14-.62,2.72,2.72,0,0,0-1,1A39.16,39.16,0,0,0,358.21,93a16.16,16.16,0,0,0,1.7,13.93c1.25,2.07,2.48,4.15,3.59,6.31a19.65,19.65,0,0,1,1.88,10.85c-.27,3.44-1.61,6.56-2.78,9.73a4.74,4.74,0,0,1-1.21,1.79c-.41.39-.85.65-1.4.23a4.19,4.19,0,0,1,.11-2.17c.23-.88.57-1.75.86-2.62a24.2,24.2,0,0,0,.75-12.74,3.2,3.2,0,0,0-1-2.17,22.92,22.92,0,0,1,.08,5.41c-.26,1.79-.67,3.52-2.2,4.75a4,4,0,0,1-.45-2.8c0-1.36.3-2.71.25-4.06a12.27,12.27,0,0,0-1-5.2c-.19,5.87-.67,7.69-2.37,9-.06-.55-.39-1-.27-1.58a28,28,0,0,0,.33-4.19,13.6,13.6,0,0,0-1.25-7.33,31.44,31.44,0,0,0-6.91-8.71c-2-1.87-3.73-4.07-5.81-5.88a2.33,2.33,0,0,1-.63-1c-.35-.91-.91-1.71-1.34-2.57-1.44-2.89-2.45-5.87-2.06-9.19a6.52,6.52,0,0,1,5-5.51,9.68,9.68,0,0,1,4.84.28,15.52,15.52,0,0,0,8.14.25,10.08,10.08,0,0,0,4.5-2.39,2.26,2.26,0,0,0-1.81.24,11.35,11.35,0,0,1-9.93-.12,29.12,29.12,0,0,1-3.61-2.15,34.22,34.22,0,0,0-3.45-2.15,6.5,6.5,0,0,0-6.77.27,11.43,11.43,0,0,0-3.86,3.87,26.12,26.12,0,0,0-3.07,8.25c-.79,3.5-1,7,.31,10.44a1,1,0,0,1,.06.93,5.38,5.38,0,0,1-.49.38,3.44,3.44,0,0,1-.49.21,2.12,2.12,0,0,1-.43-.22,23.48,23.48,0,0,1-6.83-9.77,19,19,0,0,1-1-10.83,30,30,0,0,1,6.34-13.53c2.51-3.08,4.89-6.25,7.3-9.4a29.55,29.55,0,0,0,3.93-6.58c2-4.78,1.24-8-2.62-11.1-.23-.18-.46-.36-.7-.52a31.06,31.06,0,0,1-2.76-1.87c-2.27-1.95-5.18-2.51-7.8-3.69C321.81,28.1,321.65,28.17,321.4,28.2Zm28.37,96.31c-.14,1.21-.41,2.38-.55,3.56a28.81,28.81,0,0,1-7.44,16.49c-1.53,1.68-3,3.4-4.5,5.13a35.34,35.34,0,0,0-7.9,14.8c-.81,3.32-1.69,6.63-2.58,9.94a11.91,11.91,0,0,1-.64,1.75c-1,2.25-2.24,4.36-3.41,6.51-.13.23-.43.47.11.8,1.44-1.47,2.12-3.52,3.7-5-.9,2.68-1.47,5.4-2.16,8.14,2.89-2.51,4.64-6,7.26-8.92.35,2.27-.64,4.11-.73,6.09a2.15,2.15,0,0,0,.51-.13c3.37-2,6.46-4.25,8.22-7.92a7.85,7.85,0,0,1,.83-1.36,8.68,8.68,0,0,0,1.41-3.15,24.67,24.67,0,0,0,.57-8.93,19.53,19.53,0,0,1,.35-5.46c.27-1.71,1.35-3.09,1.85-4.71a9.38,9.38,0,0,1,1.74-3A19.31,19.31,0,0,0,349.6,144a29.23,29.23,0,0,0,1.9-11.22,22.36,22.36,0,0,0-.51-4.32C350.67,127.14,350.62,125.72,349.77,124.51ZM260.65,69.2a17.18,17.18,0,0,0,.05,4.53,62.81,62.81,0,0,0,3.53,13,25.33,25.33,0,0,0,8.56,11.46,52.4,52.4,0,0,1,6.53,5.74c2.18,2.42,4.29,4.87,5.38,8,.07.18.14.36.5.23-.08-1.31-.13-2.65-.24-4a20.6,20.6,0,0,0-5.25-12.47c-2.91-3.24-5.93-6.38-8.93-9.53a29,29,0,0,1-3.25-4.09,52.39,52.39,0,0,1-6.32-12.35C261.14,69.53,261.16,69.24,260.65,69.2Zm13.88-18.69a19,19,0,0,0-.19,5.21,27.94,27.94,0,0,0,2.28,9.1,33.16,33.16,0,0,0,3.89,6.79A46.07,46.07,0,0,1,288,87.38c.08.29.08.72.56.69.32-.11.27-.39.29-.61.18-1.54.39-3.07.5-4.61a27.22,27.22,0,0,0,0-6.81c-.4-2.19-.94-4.35-1.39-6.52a6.22,6.22,0,0,0-1.46-3c-.78-.87-1.55-1.73-2.37-2.56-1.5-1.51-3.06-3-4.55-4.48a17.31,17.31,0,0,1-4.2-6.87C275.1,51.92,274.8,51.22,274.53,50.51ZM395.61,159.67a1.84,1.84,0,0,0,.88-1,64.54,64.54,0,0,0,4.13-9.41,21.12,21.12,0,0,0,1.31-8.52,26.08,26.08,0,0,1,.14-5.22,32.24,32.24,0,0,0,0-3.81c-.16,0-.27,0-.33.1a14.87,14.87,0,0,0-4.45,7,51.56,51.56,0,0,0-2.24,13.54A40.68,40.68,0,0,0,395.61,159.67Zm-43.9-115a30,30,0,0,0-9.39,9.19,13.14,13.14,0,0,0-2.1,7.27c.2,3.25,2,5.41,4.64,7.12C345.22,56.83,345.27,56.68,351.71,44.71ZM264.48,170c1.92-3.18,3.36-6.6,5.33-9.74,2.31-3.67,3.74-7.81,6-11.52a6.09,6.09,0,0,0-3.09,1.51,23.36,23.36,0,0,0-7.48,11,8.53,8.53,0,0,1-.69,2.05,4.13,4.13,0,0,0-.52,2.64C264.16,167.26,264.34,168.6,264.48,170Zm43.18,1.86a20.47,20.47,0,0,0-2.51-9.15,62.11,62.11,0,0,1-3.49-7.66c-.51-1.36-.94-2.76-1.42-4.2a2.13,2.13,0,0,0-.21.45A20.05,20.05,0,0,0,302.24,165C303.7,167.54,305.83,169.53,307.66,171.81Zm-22.33-47.43c7.33,1.89,12,6.44,14.08,13.94a11.92,11.92,0,0,0-3.92-11.45C292.49,124.22,289.05,123.81,285.33,124.38Zm75.47-8.52-.06-.06v.11Z"/><path class="cls-3" d="M325.44,259a2.64,2.64,0,0,1-1.48,1.88,27.56,27.56,0,0,1-5.41,2.41c-1.39.53-2.81,1-4.22,1.5a29.62,29.62,0,0,0-7.39,3.61c-2.32,1.61-5.05,2.36-7.55,3.6a39,39,0,0,1-4.12,1.73,21.82,21.82,0,0,0-7.73,5,10.74,10.74,0,0,0-2,1.9c-.25.39-.67.32-1,.06-.31-.44-.14-.93-.15-1.4a39,39,0,0,0-2-12.54,29.49,29.49,0,0,0-4.72-7.76c-1.84-2.37-3.75-4.68-5.64-7a4.56,4.56,0,0,1-.93-1.61c.69-.42,1.22.07,1.74.34a37.91,37.91,0,0,1,5.59,3.88,73.64,73.64,0,0,1,6.08,5c-.69-3.55-2.39-6.76-3-10.28.45-.43.72-.11,1,.13a44.75,44.75,0,0,1,4.67,4.77c1,1.08,1.89,2.19,2.94,3.41a6,6,0,0,0-.6-2.77c-.95-2.48-1.53-5.08-2.65-7.49a1.65,1.65,0,0,1-.08-1.39c1.77.68,4.83,3.79,8.44,8.55a9.63,9.63,0,0,0-.31-4.84c-.74-2.4-1.55-4.76-2.33-7.14-.11-.32-.28-.63.06-1a36.15,36.15,0,0,1,8.68,11.73c0-4.42-.78-8.71-1.24-13.06,3.09,2.42,4.74,5.81,6.72,9.12a27.11,27.11,0,0,0-.17-2.86c-.17-1-.19-2.11-.4-3.16s-.41-2-.59-3a6.8,6.8,0,0,1-.27-3c.76-.35,1,.28,1.38.69a41.82,41.82,0,0,1,4.94,7.49c.22.41.29.93.84,1.23-.3-3.49-.24-7-1.24-10.37.34,0,.53,0,.61,0a21,21,0,0,1,3.64,3.72c1.34,2,1.56,3.84,2.53,5.87.2.41,1.45,2.87,1.45,2.87a5.47,5.47,0,0,0,1.15,2.31c2.17,3.73,2.17,3.73,4.1,6.94Z"/><path class="cls-4" d="M231.53,257c.76.36,1.16-.29,1.59-.64a19.79,19.79,0,0,0,3.45-3.91,80.61,80.61,0,0,0,8.61-16,49.48,49.48,0,0,0,2.32-7.1,1,1,0,0,1,.43-.74c.48.34.43.87.48,1.36a21.32,21.32,0,0,1-.73,6.46,36.51,36.51,0,0,0-1,7.18,41.79,41.79,0,0,0,3.46-6.29,45.86,45.86,0,0,0,2.91-7,3.94,3.94,0,0,1,.65,2.91,47.74,47.74,0,0,1-.8,5.3c-.28,1.77-.6,3.55-.79,5.38.86-.7,1.08-1.79,1.59-2.7s1.07-1.95,1.57-2.94.93-2,1.44-3,1-1.92,1.6-2.94c1.05.83.87,1.87.74,2.84q-.39,2.79-.93,5.57a11.78,11.78,0,0,1-.47,2.86c1-.39,1.89-1.81,4.17-6.46a65.62,65.62,0,0,0,3.42-6.94c.69.19.59.6.53.89a13,13,0,0,0-.19,3.17c0,2.38-.27,4.73-.46,7.09,0,.28-.16.58.13.8-.09-.07-.17-.07-.19,0s0,.1.07.16l.1-.22c.6-.16.65-.77.92-1.19a35.32,35.32,0,0,0,4.64-9.27c.05-.15.15-.23.49-.25.46,2.92-.13,5.87.12,9.14,1.78-3.26,4.1-5.91,4.75-9.46,1,.67,1,.67,1,6.59.52-.15.73-.61,1-1,1-1.21,1.93-2.41,2.82-3.67s1.78-2.16,1.82-3.69c1.38.94,1.42,1.08,1.67,6.51a39,39,0,0,0,4.6-6.55c1.64,2.3,1.4,4.55,1.09,6.89L285.55,238l-21.43,8.5c-.32.13-.74.16-.9.56l0-.05c-1.66.19-2.12.56-2.46,2a23.7,23.7,0,0,0-.24,5.05,22,22,0,0,1,.06,3.14,3.6,3.6,0,0,1-3.08,1.23c-7.1.14-14.2.36-21.3.54-1.21,0-2.42,0-3.63,0a1.56,1.56,0,0,1-1.25-.34c-.38-.38-.08-.85-.38-1.15l-.05,0c.31.1.42,0,.33-.32l0,0c.31.1.42,0,.33-.32Zm15.07-13-.07-.1s-.08.08-.07.09a.32.32,0,0,0,.1.1Z"/><path class="cls-5" d="M376.88,243.89c.87-1,1.76-1.91,2.6-2.89a3.81,3.81,0,0,1,1.66-1.3A39.56,39.56,0,0,1,381,246c1.9-2,2.78-4.39,4.74-5.92.08-.06.27,0,.52.06.24,2.3.12,4.61.2,7.21,1.49-2.65,2.56-5.26,4.57-7.28.74.21.59.8.61,1.3a67.31,67.31,0,0,1-.29,6.81c0,.28,0,.56,0,1.17,2.35-3.06,4.48-6,7.5-7.91.86.45.54,1,.29,1.41a27.72,27.72,0,0,0-2.7,7.29,40.36,40.36,0,0,0-.19,18.8,1.92,1.92,0,0,1,0,1,1.22,1.22,0,0,1-1.81.18c-2.28-1.79-5.07-2.28-7.73-3.13-1.1-.35-2.19-.72-3.3-1-1.5-.43-2.61-1.51-4.12-2.19,2.57-3.46,4.21-7.1,4.24-11.32a3.53,3.53,0,0,0-1.24-.7,57.93,57.93,0,0,1-12-8c-1.52-1.29-2.79-2.77-4.22-4.12-.89-.83-1.53-1.94-2.6-2.52a15,15,0,0,1,2.46-5.47c.76,0,.78.53.76,1.08a28.15,28.15,0,0,0,0,4.1c.72-1.17,1.09-2.58,2.69-2.59.61,1.66.16,3.39.47,5.22,1-1.36,1.6-2.89,2.94-4.18.59,2.31-.25,4.34,0,6.51,1.29-1.68,2-3.66,3.93-4.61a1.45,1.45,0,0,1,.28,1.59c-.34,1.58-.16,3.19-.36,4.77,0,.11.13.23.2.35-.19-.18-.2,0-.23.12Z"/><path class="cls-6" d="M390.51,228.16c.44-.12.45-.56.61-.87a36.64,36.64,0,0,1,4.83-7c.3-.34.51-.85,1.26-.81-.57,3-1.6,5.89-1.41,9,2.09-3.2,4.12-6.41,7.08-8.89,0,0,.16.07.39.16a58.88,58.88,0,0,0-2.56,8.71,33.64,33.64,0,0,1,6-7c-.76,2.72-1.37,5.42-2.09,8.14.71.06.82-.51,1.07-.87a53.27,53.27,0,0,1,4.74-6c.49-.55.51-.53,1.29-.5-.88,2.38-.86,4.89-1.21,7.38.51,0,.56-.33.73-.58a47,47,0,0,1,8-9.55c1.24-1.07,1.43-1.18,2.44-1.35.37.47,0,.93-.09,1.35-.7,2.24-1.44,4.47-2.17,6.71a70.55,70.55,0,0,0-2.27,9.39,16.45,16.45,0,0,0-.1,2.9c0,2.85,0,5.71.22,8.56.12,1.87-.73,2.51-2.44,1.95a3.14,3.14,0,0,1-.05-1.43c.17-2.28-.33-4.53-.36-6.8a1.84,1.84,0,0,0-.49-1,15.4,15.4,0,0,0-2.75-2.78,7.22,7.22,0,0,1-1.89-2.06c-2.74,0-5.5-.08-8.25-.23a40.55,40.55,0,0,1-8.28-1.2,71.48,71.48,0,0,0-7.52-1.38,56.48,56.48,0,0,1-6.19-1.38c-.55-.16-1.17,0-1.74-.43a14.72,14.72,0,0,1,2.85-6.37c.92,1.3.62,2.76,1.21,4.07a45.27,45.27,0,0,1,5.49-8.45c.43.25.41.44.35.79a42.71,42.71,0,0,0-.79,5.29.73.73,0,0,0,.09.54c-.34.12-.2.33-.08.65l.12-.61c1.13-1.36,1.8-3,2.86-4.42.34-.47.66-.95,1-1.41a.66.66,0,0,1,1-.16,13.58,13.58,0,0,1-.45,2.49c-.29,1.76-.43,3.54-.55,5.32,0,.07.11.15.17.23-.38,0-.18.22-.14.52Z"/><path class="cls-7" d="M350.37,278c0-.27-.07-.5,0-.65,1.53-2.72,2.53-5.69,4.13-8.38,3.37-5.65,7.38-10.75,12.82-14.57a17.17,17.17,0,0,1,7.06-3.16,8,8,0,0,1,3.44.1,4.38,4.38,0,0,1,3.27,5.11,15.54,15.54,0,0,1-3.13,6.76,42.48,42.48,0,0,1-19.34,14.46,15.49,15.49,0,0,1-5.51,1.05A5.16,5.16,0,0,1,350.37,278Z"/><path class="cls-3" d="M263.22,247.06a9.43,9.43,0,0,1,3.93,1.74,15.18,15.18,0,0,1,4.18,3.93c.85,1.17,1.79,2.28,2.63,3.46,1.68,2.35,3.39,4.68,5,7.11a10.82,10.82,0,0,1,1.57,3.55,11.61,11.61,0,0,0,1,2.54,13.41,13.41,0,0,1,1.21,5.47c.07,2.17-.09,4.35.15,6.52a1.12,1.12,0,0,1-.39,1,1.4,1.4,0,0,1-1.52-.19c-2.19-1.42-4.6-2.44-6.84-3.76a4.66,4.66,0,0,1-1.83-2,24.53,24.53,0,0,0-2.18-3.91c-.55-.75-.57-1.74-1.13-2.49-1.32-1.78-2.17-3.84-3.41-5.67-.84-1.21-1.32-2.61-2.25-3.82s-.93-3-1.24-4.56a15.39,15.39,0,0,1,.83-8.38,4.76,4.76,0,0,1,.35-.61Z"/><path class="cls-5" d="M346.74,263.43c1.55-1.59,3.1-3.19,4.78-4.64a4.63,4.63,0,0,1,2.5-1.3,40.23,40.23,0,0,0-3,8.29,45.36,45.36,0,0,1,6.23-6.24c.5-.44,1-1.11,2.06-.65a107.05,107.05,0,0,0-9.51,16.86l-.45.26a1.08,1.08,0,0,1-.78.12c-.48-.14-.74-.63-1.07-1-2.92-3.67-5.87-7.31-8.6-11.13-.14-.19-.26-.44-.46-.54a10.39,10.39,0,0,1-4.5-5.29,25.14,25.14,0,0,1-2.46-11.63,19.88,19.88,0,0,1,1.77-8.41,1.29,1.29,0,0,1,.51-.68c1.23.21,1.26.22,2.38,1.39a1.28,1.28,0,0,1-.64,1.35,12.38,12.38,0,0,0-2,2.26,2,2,0,0,0-.48,1.9c1.51-.73,2.53-2.39,4.62-2.33,0,2.31-1.49,4.24-1.65,6.54,1.05-.09,1.66-1,2.52-1.43a3.89,3.89,0,0,1,2.93-.55c-.6,2.57-1.85,4.86-2.48,7.55,1-.28,1.2-1.12,1.73-1.58s1-1,1.53-1.55,1.13-1.05,1.7-1.57c.81.28.71.81.52,1.4a30.76,30.76,0,0,0-1.17,4.91c-.12.84-.17,1.69-.27,2.84,2-2.22,3.62-4.38,6.11-5.64-.87,3.47-1.94,6.84-2.67,10.3-.09.21-.17.41.06.61Z"/><path class="cls-3" d="M407,236.52a10.84,10.84,0,0,1,5.3,5A4,4,0,0,0,412,244c.16,3.57.28,7.16.23,10.73a14.47,14.47,0,0,1-1.24,4.73c-.93,2.49-2.17,4.84-3,7.37a3.15,3.15,0,0,1-1.3,1.66c-1,.72-2,1.53-3,2.23a6.11,6.11,0,0,1-4,1c-1.08-.08-1.6-.59-1.56-1.67.13-3.92.26-7.83.49-11.74a115.79,115.79,0,0,1,1.76-12.31,5.31,5.31,0,0,1,1.31-2.8c1.5-1.77,2.87-3.65,4.3-5.48C406.26,237.38,406.61,237,407,236.52Z"/><path class="cls-8" d="M231,257.5c-.78.45-1.47,1.4-2.51.4a1,1,0,0,1-.14-.37c0-2.46-.05-4.92-.09-7.39a10.63,10.63,0,0,1,1.17-4.73c.79-1.66,1.56-3.32,2.4-4.95a31.32,31.32,0,0,0,2.59-6.11,7.06,7.06,0,0,1,2.24-3.32,49.2,49.2,0,0,1,5.81-4.56,21,21,0,0,0,2.8-2.05c.25-.23.5-.47,1-.29a25,25,0,0,1-1.12,6.57,67,67,0,0,1-6.76,16.83,63.41,63.41,0,0,1-6.17,8.4c-.25.3-.72.51-.63,1l0,0c-.29-.07-.39.05-.33.32l0,0c-.3-.08-.35.09-.33.32Z"/><path class="cls-9" d="M376.67,181.9c2.29-2.23,4-4.91,6.79-6.59a14.15,14.15,0,0,1-1.7,3.6,43.65,43.65,0,0,0-4.75,9.73,12.93,12.93,0,0,0-.12,7.42,31.18,31.18,0,0,1,1,6.87,18.17,18.17,0,0,1-2.73,10.93c-1,1.5-1.83,3.07-2.76,4.59-.23.38-.36.94-1,.9-.33-.39-.13-.75,0-1.1.82-1.75,1.32-3.63,2.25-5.34a12.63,12.63,0,0,0,.95-3.63,11.27,11.27,0,0,0-.35-7.11,39.63,39.63,0,0,0-3.69-6.72,15.23,15.23,0,0,1-3-6.67,10.45,10.45,0,0,1,1.27-6.94,24.64,24.64,0,0,1,6.38-7,1.81,1.81,0,0,1,1.34-.61,6.08,6.08,0,0,1-.65,3c.46.34.71,0,1-.25.66-.71,1.32-1.42,2-2.1.32-.31.64-.75,1.41-.47C379.41,177,377.38,179.15,376.67,181.9Z"/><path class="cls-4" d="M421.28,249.12a1.83,1.83,0,0,1-1.77-1.85,73.77,73.77,0,0,1-.47-8.53,28.81,28.81,0,0,1,.61-4.88c.8-3.9,1.41-7.87,2.89-11.58a25.53,25.53,0,0,1,3.6-6.55,1.07,1.07,0,0,1,1.26-.46,1.46,1.46,0,0,1,1.16,1.16,17,17,0,0,1,.31,3c-.09,3.33-.12,6.66-.28,10A39.65,39.65,0,0,1,428,234c-.32,1.84-.74,3.67-1.06,5.52a33,33,0,0,1-2.38,6.77,4,4,0,0,1-1.63,1.78C422.38,248.44,421.85,248.76,421.28,249.12Z"/><path class="cls-10" d="M361.18,57.88c-.31-1.68.74-3,1.28-4.39A16.59,16.59,0,0,0,363,42.83a14.11,14.11,0,0,0-1.27-2.59,10.32,10.32,0,0,1-.12-10.14,2.73,2.73,0,0,0,.28-.66,6,6,0,0,1,2.21-3.38.83.83,0,0,1,.1.8,7,7,0,0,0,.86,5.29,15.22,15.22,0,0,0,2.06,3,37.69,37.69,0,0,1,3.74,4.8c3.29,5.32,2.33,11.06-2.52,15A18.51,18.51,0,0,1,365,57.12c-1.13.58-2.26,1.14-3.58.57,0,0-.14.1-.22.16Zm4.07-3.79a5.61,5.61,0,0,0,2.44-1.73c3.31-3.75,3.42-7,1.7-10.23a16.52,16.52,0,0,0-2.14-3.28,22.36,22.36,0,0,1-2.06-3,20.42,20.42,0,0,1-2.16-5,8.49,8.49,0,0,0-.48,4.95,16,16,0,0,0,2,4.48,10,10,0,0,1,1.36,3.93,22.57,22.57,0,0,1-.58,8.77c-.08.34-.37.7-.07,1.09-.09-.11-.15-.1-.19,0s.05,0,.07,0C365.34,54.25,365.08,54.2,365.25,54.09Z"/><path class="cls-11" d="M382.82,211.3c0-1.43-.37-2.82-.07-4.2.52-2.3-.07-4.52-.49-6.75a38.87,38.87,0,0,1-.44-11,8.1,8.1,0,0,1,2.08-4.29c.46.06.46.38.53.65.78,3,1.6,6.06,2.33,9.11a10.8,10.8,0,0,1-.07,6.17c-.73,2.1-1.07,4.29-1.72,6.4A9.25,9.25,0,0,1,382.82,211.3Z"/><path class="cls-12" d="M326.92,139a5.38,5.38,0,0,1-.1-3.14,7.49,7.49,0,0,1,.37-1.1c2.34-5.91,1-11.28-2.41-16.33a50.06,50.06,0,0,0-8.34-8.87,67.06,67.06,0,0,1-8.67-8.76,23.11,23.11,0,0,1-4.84-10.43A19.18,19.18,0,0,1,302.7,85c.24-2.17.33-4.34.38-6.52a17,17,0,0,1,1.55-5.64c.65.24.4.7.43,1a32.22,32.22,0,0,0,.27,4c.62,3.3,2.54,5.83,4.67,8.22A15.84,15.84,0,0,0,313.29,89c1.75,1.13,3.33,2.49,5.11,3.57a25.57,25.57,0,0,1,3.71,2.77,17.62,17.62,0,0,0,1.6,1.25,41.1,41.1,0,0,1,9.68,9.34A14.41,14.41,0,0,1,336,118.68c-.37,1.4-.65,2.83-1.1,4.21A78.85,78.85,0,0,1,328.8,137,4.79,4.79,0,0,1,326.92,139Zm5.43-16.1a23.83,23.83,0,0,1,1-4.49c1.29-4.2.2-7.93-2.26-11.35-3-4.22-7.24-7.23-11.26-10.39-3.3-2.59-6.93-4.73-10.15-7.45A13.39,13.39,0,0,1,305.92,85c-.13-.28-.35-.62-.77-.35a.35.35,0,0,0,0,.41,27.73,27.73,0,0,0,2.8,4.68c3.41,4.67,7.89,8.37,11.47,12.88a1,1,0,0,1,.11.1,61.92,61.92,0,0,1,4.93,5.68c1.67,2.19,3.28,4.42,4.86,6.67a12.25,12.25,0,0,1,2.65,6.92C331.93,122.3,331.84,122.68,332.35,122.92Z"/></g></g></svg>