<svg width="90" height="74" viewBox="0 0 90 74" fill="none" xmlns="http://www.w3.org/2000/svg">
<path d="M89.9354 56.2282C89.6674 55.1062 88.6434 54.3642 87.5314 54.4142L87.4704 45.7472L87.7574 45.6752C88.7354 45.4292 89.4504 44.5912 89.5394 43.5862C89.6284 42.5812 89.0704 41.6302 88.1504 41.2182L77.0834 36.2472L77.9644 35.7682C80.1024 34.6052 81.6394 32.5812 82.1814 30.2142C83.0364 26.4802 82.1224 22.8292 79.6044 19.7882C82.3794 11.5542 77.7644 7.27321 77.5554 7.08621C77.2214 6.78621 76.8074 6.58621 76.3654 6.51221L42.7354 0.843209C42.3094 0.771209 41.8754 0.817209 41.4744 0.974209L11.3234 12.8272C10.3404 13.2142 9.73144 14.2052 9.83344 15.2582C9.93544 16.3092 10.7184 17.1642 11.7554 17.3582V25.6972L8.30744 27.4682C8.30444 27.4692 8.30244 27.4712 8.29944 27.4722L8.27544 27.4842C8.12644 27.5602 7.99044 27.6512 7.86544 27.7532L7.86144 27.7562C7.84844 27.7662 7.84044 27.7802 7.82744 27.7902C7.71244 27.8872 7.60744 27.9932 7.51544 28.1082C7.48144 28.1502 7.45544 28.1972 7.42444 28.2412C7.36144 28.3312 7.30144 28.4232 7.25144 28.5202C7.22244 28.5772 7.20044 28.6362 7.17644 28.6952C7.13844 28.7882 7.10444 28.8812 7.07844 28.9782C7.06144 29.0422 7.04844 29.1062 7.03644 29.1712C7.01844 29.2722 7.00744 29.3722 7.00244 29.4752C7.00044 29.5142 6.98944 29.5512 6.98944 29.5902V35.3392H5.62144C5.61044 35.3392 5.60144 35.3422 5.59044 35.3422C5.55544 35.3422 5.52244 35.3502 5.48844 35.3522C5.32544 35.3612 5.16844 35.3862 5.01644 35.4262C4.96644 35.4392 4.91844 35.4552 4.86844 35.4722C4.71144 35.5252 4.56344 35.5922 4.42344 35.6742C4.40244 35.6862 4.37944 35.6912 4.35844 35.7032C4.34444 35.7122 4.33244 35.7222 4.31844 35.7302C4.30344 35.7402 4.28944 35.7502 4.27444 35.7602C0.743441 38.0352 -0.668559 41.9892 0.301441 46.9102C0.814441 49.5112 2.41344 51.8142 4.68944 53.2302L36.1964 72.8312C36.2114 72.8402 36.2274 72.8432 36.2424 72.8512C36.4084 72.9502 36.5854 73.0292 36.7714 73.0852C36.8014 73.0942 36.8314 73.1002 36.8624 73.1082C37.0514 73.1572 37.2464 73.1892 37.4454 73.1892C37.4474 73.1892 37.4494 73.1882 37.4524 73.1882C37.4574 73.1882 37.4624 73.1882 37.4684 73.1882C37.6754 73.1882 37.8724 73.1532 38.0634 73.1032C38.0724 73.1012 38.0814 73.1022 38.0904 73.0992L85.7834 59.6532L88.1844 59.0802C89.4544 58.7792 90.2384 57.5002 89.9354 56.2282ZM79.9874 42.7432L52.4204 49.6712L71.8574 39.0922L79.9874 42.7432ZM77.5644 29.1562C77.3244 30.1992 76.6454 31.0922 75.7004 31.6072L52.2734 44.3582C52.7274 39.9422 50.9484 36.7232 50.8404 36.5342C50.6734 36.2422 50.4474 35.9932 50.1814 35.7992L76.2724 23.2322C77.6074 25.0362 78.0524 27.0202 77.5644 29.1562ZM75.0424 11.5852C75.6544 12.7832 76.2684 15.0712 75.0044 18.5852L53.2174 29.0792C53.3574 27.4882 53.2574 25.5672 52.7584 23.2832L73.7764 13.1702C74.4444 12.8492 74.8824 12.2532 75.0424 11.5852ZM42.5954 5.62221L69.2134 10.1092L49.6544 19.5192L20.7704 14.2022L42.5954 5.62221ZM16.4914 18.2312L48.0794 24.0462C48.9844 27.9832 48.3334 30.2062 47.8104 31.2422L16.4924 25.1892V18.2312H16.4914ZM11.7234 32.4972L47.1094 39.7822C47.5554 41.0602 48.0824 43.5782 46.8944 46.5112L11.7234 36.9192V32.4972ZM33.2444 65.4202L7.18844 49.2102C6.02344 48.4862 5.20544 47.3142 4.94644 45.9972C4.36044 43.0282 5.08444 41.4332 5.84544 40.5652L34.5534 56.9532C33.9214 58.9702 33.1284 62.1942 33.2444 65.4202ZM23.0014 44.9052L46.2044 51.2332L37.7904 53.3472L23.0014 44.9052ZM38.5224 68.0572C37.3344 65.1482 38.3974 60.4382 39.2434 57.8662L82.7414 46.9352L82.8014 55.5742L38.5224 68.0572Z" fill="#E5E7EB"/>
</svg>
